CowboyHenk.ufo
<glyph name="uni0041" format="1">
  <advance width="249"/>
  <unicode hex="0041"/>
  <outline>
    <contour>
      <point x="111" y="422" type="curve" smooth="yes"/>
      <point x="111" y="420"/>
      <point x="109" y="415"/>
      <point x="103" y="404" type="curve" smooth="yes"/>
      <point x="99" y="395"/>
      <point x="94" y="385"/>
      <point x="93" y="382" type="curve" smooth="yes"/>
      <point x="92" y="378"/>
      <point x="90" y="375"/>
      <point x="90" y="374" type="curve" smooth="yes"/>
      <point x="89" y="373"/>
      <point x="88" y="371"/>
      <point x="88" y="370" type="curve" smooth="yes"/>
      <point x="87" y="369"/>
      <point x="86" y="366"/>
      <point x="86" y="365" type="curve" smooth="yes"/>
      <point x="85" y="364"/>
      <point x="84" y="361"/>
      <point x="83" y="359" type="curve" smooth="yes"/>
      <point x="82" y="357"/>
      <point x="80" y="353"/>
      <point x="78" y="350" type="curve" smooth="yes"/>
      <point x="76" y="347"/>
      <point x="74" y="342"/>
      <point x="73" y="339" type="curve" smooth="yes"/>
      <point x="73" y="336"/>
      <point x="71" y="333"/>
      <point x="70" y="332" type="curve" smooth="yes"/>
      <point x="69" y="331"/>
      <point x="68" y="330"/>
      <point x="68" y="328" type="curve" smooth="yes"/>
      <point x="68" y="325"/>
      <point x="66" y="320"/>
      <point x="62" y="311" type="curve" smooth="yes"/>
      <point x="60" y="307"/>
      <point x="58" y="302"/>
      <point x="58" y="301" type="curve" smooth="yes"/>
      <point x="58" y="300"/>
      <point x="57" y="296"/>
      <point x="55" y="293" type="curve"/>
      <point x="54" y="289"/>
      <point x="52" y="284"/>
      <point x="51" y="281" type="curve" smooth="yes"/>
      <point x="50" y="278"/>
      <point x="48" y="275"/>
      <point x="48" y="274" type="curve" smooth="yes"/>
      <point x="47" y="273"/>
      <point x="46" y="271"/>
      <point x="45" y="268" type="curve" smooth="yes"/>
      <point x="44" y="266"/>
      <point x="42" y="262"/>
      <point x="41" y="260" type="curve" smooth="yes"/>
      <point x="38" y="256"/>
      <point x="33" y="244"/>
      <point x="33" y="241" type="curve" smooth="yes"/>
      <point x="33" y="240"/>
      <point x="30" y="235"/>
      <point x="27" y="228" type="curve"/>
      <point x="19" y="216"/>
      <point x="18" y="210"/>
      <point x="22" y="202" type="curve" smooth="yes"/>
      <point x="22" y="200"/>
      <point x="23" y="197"/>
      <point x="24" y="195" type="curve" smooth="yes"/>
      <point x="25" y="189"/>
      <point x="32" y="180"/>
      <point x="36" y="180" type="curve" smooth="yes"/>
      <point x="40" y="180"/>
      <point x="47" y="185"/>
      <point x="49" y="190" type="curve" smooth="yes"/>
      <point x="50" y="192"/>
      <point x="53" y="195"/>
      <point x="54" y="197" type="curve" smooth="yes"/>
      <point x="56" y="199"/>
      <point x="57" y="201"/>
      <point x="57" y="203" type="curve" smooth="yes"/>
      <point x="57" y="208"/>
      <point x="59" y="212"/>
      <point x="62" y="214" type="curve" smooth="yes"/>
      <point x="63" y="215"/>
      <point x="64" y="218"/>
      <point x="65" y="220" type="curve" smooth="yes"/>
      <point x="66" y="228"/>
      <point x="69" y="232"/>
      <point x="73" y="232" type="curve" smooth="yes"/>
      <point x="77" y="233"/>
      <point x="91" y="232"/>
      <point x="100" y="230" type="curve" smooth="yes"/>
      <point x="103" y="230"/>
      <point x="108" y="230"/>
      <point x="113" y="231" type="curve" smooth="yes"/>
      <point x="120" y="232"/>
      <point x="123" y="232"/>
      <point x="126" y="231" type="curve" smooth="yes"/>
      <point x="128" y="230"/>
      <point x="135" y="230"/>
      <point x="142" y="229" type="curve"/>
      <point x="162" y="229"/>
      <point x="168" y="228"/>
      <point x="171" y="227" type="curve" smooth="yes"/>
      <point x="172" y="226"/>
      <point x="174" y="225"/>
      <point x="175" y="225" type="curve" smooth="yes"/>
      <point x="177" y="225"/>
      <point x="178" y="223"/>
      <point x="180" y="215" type="curve" smooth="yes"/>
      <point x="181" y="212"/>
      <point x="182" y="207"/>
      <point x="183" y="205" type="curve" smooth="yes"/>
      <point x="184" y="203"/>
      <point x="185" y="198"/>
      <point x="186" y="195" type="curve"/>
      <point x="186" y="191"/>
      <point x="187" y="188"/>
      <point x="187" y="187" type="curve" smooth="yes"/>
      <point x="188" y="183" type="line" smooth="yes"/>
      <point x="188" y="183"/>
      <point x="188" y="182"/>
      <point x="188" y="182" type="curve"/>
      <point x="189" y="182"/>
      <point x="189" y="181"/>
      <point x="189" y="179" type="curve" smooth="yes"/>
      <point x="189" y="174"/>
      <point x="198" y="172"/>
      <point x="204" y="176" type="curve" smooth="yes"/>
      <point x="207" y="178"/>
      <point x="209" y="178"/>
      <point x="218" y="178" type="curve" smooth="yes"/>
      <point x="226" y="178"/>
      <point x="228" y="179"/>
      <point x="229" y="180" type="curve" smooth="yes"/>
      <point x="231" y="183"/>
      <point x="231" y="187"/>
      <point x="229" y="190" type="curve" smooth="yes"/>
      <point x="228" y="191"/>
      <point x="226" y="195"/>
      <point x="225" y="200" type="curve"/>
      <point x="223" y="204"/>
      <point x="221" y="210"/>
      <point x="219" y="213" type="curve" smooth="yes"/>
      <point x="218" y="215"/>
      <point x="216" y="221"/>
      <point x="215" y="224" type="curve" smooth="yes"/>
      <point x="214" y="228"/>
      <point x="213" y="232"/>
      <point x="212" y="233" type="curve" smooth="yes"/>
      <point x="211" y="234"/>
      <point x="209" y="240"/>
      <point x="208" y="246" type="curve" smooth="yes"/>
      <point x="206" y="252"/>
      <point x="205" y="257"/>
      <point x="204" y="258" type="curve" smooth="yes"/>
      <point x="204" y="258"/>
      <point x="203" y="261"/>
      <point x="203" y="264" type="curve" smooth="yes"/>
      <point x="202" y="267"/>
      <point x="201" y="271"/>
      <point x="200" y="274" type="curve" smooth="yes"/>
      <point x="197" y="280"/>
      <point x="194" y="289"/>
      <point x="194" y="292" type="curve" smooth="yes"/>
      <point x="194" y="293"/>
      <point x="193" y="296"/>
      <point x="192" y="299" type="curve"/>
      <point x="190" y="301"/>
      <point x="189" y="304"/>
      <point x="189" y="305" type="curve" smooth="yes"/>
      <point x="189" y="305"/>
      <point x="189" y="307"/>
      <point x="188" y="309" type="curve" smooth="yes"/>
      <point x="184" y="316"/>
      <point x="176" y="339"/>
      <point x="175" y="345" type="curve" smooth="yes"/>
      <point x="174" y="347"/>
      <point x="173" y="349"/>
      <point x="173" y="350" type="curve" smooth="yes"/>
      <point x="172" y="352"/>
      <point x="170" y="356"/>
      <point x="169" y="360" type="curve" smooth="yes"/>
      <point x="168" y="363"/>
      <point x="166" y="368"/>
      <point x="165" y="369" type="curve" smooth="yes"/>
      <point x="164" y="370"/>
      <point x="163" y="374"/>
      <point x="162" y="378" type="curve" smooth="yes"/>
      <point x="161" y="381"/>
      <point x="159" y="385"/>
      <point x="158" y="387" type="curve" smooth="yes"/>
      <point x="157" y="389"/>
      <point x="156" y="392"/>
      <point x="156" y="394" type="curve" smooth="yes"/>
      <point x="156" y="396"/>
      <point x="156" y="397"/>
      <point x="155" y="398" type="curve" smooth="yes"/>
      <point x="155" y="398"/>
      <point x="154" y="399"/>
      <point x="154" y="401" type="curve" smooth="yes"/>
      <point x="154" y="403"/>
      <point x="153" y="407"/>
      <point x="151" y="411" type="curve" smooth="yes"/>
      <point x="150" y="415"/>
      <point x="148" y="419"/>
      <point x="148" y="421" type="curve" smooth="yes"/>
      <point x="148" y="422"/>
      <point x="148" y="423"/>
      <point x="148" y="425" type="curve" smooth="yes"/>
      <point x="148" y="431"/>
      <point x="131" y="436"/>
      <point x="119" y="434" type="curve" smooth="yes"/>
      <point x="114" y="433"/>
      <point x="109" y="428"/>
    </contour>
    <contour>
      <point x="135" y="348" type="curve" smooth="yes"/>
      <point x="135" y="347"/>
      <point x="136" y="344"/>
      <point x="138" y="342" type="curve"/>
      <point x="139" y="339"/>
      <point x="142" y="332"/>
      <point x="144" y="325" type="curve" smooth="yes"/>
      <point x="147" y="318"/>
      <point x="150" y="310"/>
      <point x="151" y="307" type="curve" smooth="yes"/>
      <point x="154" y="301"/>
      <point x="159" y="289"/>
      <point x="160" y="281" type="curve"/>
      <point x="162" y="274"/>
      <point x="161" y="274"/>
      <point x="152" y="273" type="curve" smooth="yes"/>
      <point x="149" y="273"/>
      <point x="142" y="273"/>
      <point x="138" y="273" type="curve" smooth="yes"/>
      <point x="132" y="272"/>
      <point x="130" y="273"/>
      <point x="129" y="274" type="curve" smooth="yes"/>
      <point x="128" y="275"/>
      <point x="125" y="275"/>
      <point x="111" y="274" type="curve"/>
      <point x="89" y="274"/>
      <point x="86" y="275"/>
      <point x="89" y="285" type="curve" smooth="yes"/>
      <point x="91" y="291"/>
      <point x="97" y="308"/>
      <point x="98" y="311" type="curve" smooth="yes"/>
      <point x="99" y="312"/>
      <point x="100" y="314"/>
      <point x="101" y="316" type="curve" smooth="yes"/>
      <point x="101" y="318"/>
      <point x="102" y="321"/>
      <point x="103" y="322" type="curve" smooth="yes"/>
      <point x="104" y="325"/>
      <point x="105" y="327"/>
      <point x="106" y="326" type="curve" smooth="yes"/>
      <point x="108" y="325"/>
      <point x="110" y="328"/>
      <point x="111" y="333" type="curve" smooth="yes"/>
      <point x="111" y="335"/>
      <point x="112" y="338"/>
      <point x="114" y="339" type="curve" smooth="yes"/>
      <point x="115" y="340"/>
      <point x="117" y="344"/>
      <point x="117" y="346" type="curve" smooth="yes"/>
      <point x="118" y="349"/>
      <point x="119" y="353"/>
      <point x="120" y="354" type="curve" smooth="yes"/>
      <point x="121" y="356"/>
      <point x="121" y="358"/>
      <point x="121" y="358" type="curve" smooth="yes"/>
      <point x="121" y="360"/>
      <point x="125" y="366"/>
      <point x="126" y="365" type="curve" smooth="yes"/>
      <point x="127" y="365"/>
      <point x="129" y="362"/>
      <point x="131" y="358" type="curve" smooth="yes"/>
      <point x="133" y="353"/>
      <point x="135" y="349"/>
    </contour>
  </outline>
</glyph>
<glyph name="uni0042" format="1">
  <advance width="244"/>
  <unicode hex="0042"/>
  <outline>
    <contour>
      <point x="44" y="434" type="curve" smooth="yes"/>
      <point x="43" y="433"/>
      <point x="39" y="433"/>
      <point x="35" y="433" type="curve" smooth="yes"/>
      <point x="28" y="432"/>
      <point x="22" y="429"/>
      <point x="20" y="425" type="curve" smooth="yes"/>
      <point x="19" y="421"/>
      <point x="20" y="377"/>
      <point x="21" y="356" type="curve" smooth="yes"/>
      <point x="22" y="349"/>
      <point x="22" y="344"/>
      <point x="20" y="339" type="curve"/>
      <point x="19" y="332"/>
      <point x="19" y="328"/>
      <point x="20" y="320" type="curve" smooth="yes"/>
      <point x="21" y="306"/>
      <point x="21" y="296"/>
      <point x="20" y="293" type="curve" smooth="yes"/>
      <point x="19" y="292"/>
      <point x="19" y="286"/>
      <point x="20" y="276" type="curve" smooth="yes"/>
      <point x="20" y="268"/>
      <point x="20" y="260"/>
      <point x="20" y="258" type="curve" smooth="yes"/>
      <point x="20" y="256"/>
      <point x="20" y="251"/>
      <point x="21" y="246" type="curve" smooth="yes"/>
      <point x="22" y="239"/>
      <point x="22" y="229"/>
      <point x="22" y="215" type="curve"/>
      <point x="21" y="208"/>
      <point x="23" y="191"/>
      <point x="24" y="182" type="curve" smooth="yes"/>
      <point x="26" y="169"/>
      <point x="26" y="168"/>
      <point x="50" y="167" type="curve" smooth="yes"/>
      <point x="52" y="166"/>
      <point x="54" y="166"/>
      <point x="54" y="166" type="curve"/>
      <point x="56" y="164"/>
      <point x="62" y="166"/>
      <point x="65" y="169" type="curve" smooth="yes"/>
      <point x="67" y="172"/>
      <point x="67" y="172"/>
      <point x="79" y="172" type="curve" smooth="yes"/>
      <point x="93" y="172"/>
      <point x="94" y="172"/>
      <point x="105" y="173" type="curve" smooth="yes"/>
      <point x="110" y="174"/>
      <point x="116" y="174"/>
      <point x="118" y="174" type="curve" smooth="yes"/>
      <point x="122" y="174"/>
      <point x="131" y="176"/>
      <point x="141" y="178" type="curve" smooth="yes"/>
      <point x="143" y="179"/>
      <point x="148" y="180"/>
      <point x="151" y="180" type="curve" smooth="yes"/>
      <point x="160" y="181"/>
      <point x="179" y="189"/>
      <point x="187" y="195" type="curve" smooth="yes"/>
      <point x="189" y="196"/>
      <point x="193" y="197"/>
      <point x="196" y="198" type="curve" smooth="yes"/>
      <point x="200" y="199"/>
      <point x="201" y="200"/>
      <point x="203" y="203" type="curve" smooth="yes"/>
      <point x="204" y="205"/>
      <point x="208" y="209"/>
      <point x="210" y="211" type="curve" smooth="yes"/>
      <point x="213" y="213"/>
      <point x="215" y="216"/>
      <point x="215" y="217" type="curve" smooth="yes"/>
      <point x="215" y="220"/>
      <point x="216" y="221"/>
      <point x="218" y="223" type="curve"/>
      <point x="227" y="227"/>
      <point x="227" y="259"/>
      <point x="219" y="287" type="curve" smooth="yes"/>
      <point x="218" y="290"/>
      <point x="217" y="295"/>
      <point x="216" y="297" type="curve" smooth="yes"/>
      <point x="215" y="303"/>
      <point x="198" y="320"/>
      <point x="193" y="320" type="curve" smooth="yes"/>
      <point x="191" y="320"/>
      <point x="188" y="321"/>
      <point x="186" y="322" type="curve" smooth="yes"/>
      <point x="184" y="324"/>
      <point x="180" y="325"/>
      <point x="177" y="325" type="curve" smooth="yes"/>
      <point x="171" y="326"/>
      <point x="171" y="327"/>
      <point x="175" y="335" type="curve" smooth="yes"/>
      <point x="176" y="338"/>
      <point x="178" y="342"/>
      <point x="178" y="342" type="curve" smooth="yes"/>
      <point x="178" y="343"/>
      <point x="179" y="346"/>
      <point x="180" y="348" type="curve" smooth="yes"/>
      <point x="181" y="351"/>
      <point x="182" y="353"/>
      <point x="181" y="354" type="curve" smooth="yes"/>
      <point x="181" y="355"/>
      <point x="181" y="356"/>
      <point x="182" y="357" type="curve" smooth="yes"/>
      <point x="187" y="366"/>
      <point x="187" y="398"/>
      <point x="182" y="408" type="curve" smooth="yes"/>
      <point x="178" y="416"/>
      <point x="169" y="423"/>
      <point x="162" y="423" type="curve" smooth="yes"/>
      <point x="160" y="423"/>
      <point x="159" y="423"/>
      <point x="158" y="425" type="curve" smooth="yes"/>
      <point x="158" y="426"/>
      <point x="157" y="427"/>
      <point x="156" y="428" type="curve" smooth="yes"/>
      <point x="155" y="428"/>
      <point x="152" y="429"/>
      <point x="149" y="431" type="curve" smooth="yes"/>
      <point x="144" y="433"/>
      <point x="137" y="434"/>
      <point x="129" y="433" type="curve" smooth="yes"/>
      <point x="128" y="433"/>
      <point x="124" y="433"/>
      <point x="121" y="434" type="curve" smooth="yes"/>
      <point x="117" y="435"/>
      <point x="114" y="435"/>
      <point x="113" y="434" type="curve" smooth="yes"/>
      <point x="112" y="433"/>
      <point x="109" y="433"/>
      <point x="107" y="434" type="curve" smooth="yes"/>
      <point x="105" y="434"/>
      <point x="102" y="434"/>
      <point x="99" y="435" type="curve" smooth="yes"/>
      <point x="96" y="435"/>
      <point x="91" y="435"/>
      <point x="88" y="436" type="curve"/>
      <point x="84" y="436"/>
      <point x="81" y="436"/>
      <point x="80" y="435" type="curve" smooth="yes"/>
      <point x="79" y="434"/>
      <point x="70" y="434"/>
      <point x="64" y="435" type="curve" smooth="yes"/>
      <point x="63" y="435"/>
      <point x="58" y="435"/>
      <point x="54" y="435" type="curve" smooth="yes"/>
      <point x="49" y="435"/>
      <point x="45" y="434"/>
    </contour>
    <contour>
      <point x="141" y="400" type="curve" smooth="yes"/>
      <point x="144" y="400"/>
      <point x="146" y="399"/>
      <point x="148" y="398" type="curve"/>
      <point x="149" y="396"/>
      <point x="151" y="395"/>
      <point x="152" y="395" type="curve" smooth="yes"/>
      <point x="153" y="395"/>
      <point x="155" y="394"/>
      <point x="156" y="393" type="curve" smooth="yes"/>
      <point x="157" y="392"/>
      <point x="160" y="391"/>
      <point x="161" y="390" type="curve" smooth="yes"/>
      <point x="173" y="384"/>
      <point x="173" y="367"/>
      <point x="162" y="357" type="curve" smooth="yes"/>
      <point x="159" y="354"/>
      <point x="155" y="350"/>
      <point x="152" y="347" type="curve" smooth="yes"/>
      <point x="149" y="344"/>
      <point x="146" y="342"/>
      <point x="145" y="342" type="curve" smooth="yes"/>
      <point x="144" y="342"/>
      <point x="143" y="342"/>
      <point x="143" y="341" type="curve" smooth="yes"/>
      <point x="143" y="340"/>
      <point x="142" y="340"/>
      <point x="141" y="340" type="curve" smooth="yes"/>
      <point x="140" y="340"/>
      <point x="139" y="340"/>
      <point x="138" y="339" type="curve" smooth="yes"/>
      <point x="135" y="333"/>
      <point x="72" y="326"/>
      <point x="63" y="331" type="curve" smooth="yes"/>
      <point x="61" y="332"/>
      <point x="60" y="333"/>
      <point x="60" y="333" type="curve"/>
      <point x="60" y="335"/>
      <point x="59" y="350"/>
      <point x="59" y="353" type="curve" smooth="yes"/>
      <point x="59" y="354"/>
      <point x="59" y="361"/>
      <point x="59" y="368" type="curve" smooth="yes"/>
      <point x="59" y="375"/>
      <point x="59" y="385"/>
      <point x="58" y="389" type="curve" smooth="yes"/>
      <point x="57" y="400"/>
      <point x="58" y="400"/>
      <point x="81" y="400" type="curve" smooth="yes"/>
      <point x="97" y="400"/>
      <point x="106" y="400"/>
      <point x="107" y="402" type="curve" smooth="yes"/>
      <point x="108" y="403"/>
      <point x="109" y="403"/>
      <point x="112" y="402" type="curve" smooth="yes"/>
      <point x="115" y="401"/>
      <point x="125" y="400"/>
    </contour>
    <contour>
      <point x="103" y="284" type="curve" smooth="yes"/>
      <point x="108" y="283"/>
      <point x="114" y="283"/>
      <point x="115" y="282" type="curve" smooth="yes"/>
      <point x="118" y="281"/>
      <point x="135" y="280"/>
      <point x="155" y="280" type="curve"/>
      <point x="163" y="279"/>
      <point x="169" y="279"/>
      <point x="171" y="278" type="curve" smooth="yes"/>
      <point x="172" y="277"/>
      <point x="175" y="276"/>
      <point x="179" y="275" type="curve" smooth="yes"/>
      <point x="186" y="274"/>
      <point x="197" y="267"/>
      <point x="197" y="265" type="curve" smooth="yes"/>
      <point x="197" y="264"/>
      <point x="197" y="263"/>
      <point x="198" y="262" type="curve" smooth="yes"/>
      <point x="199" y="261"/>
      <point x="200" y="260"/>
      <point x="200" y="258" type="curve" smooth="yes"/>
      <point x="200" y="257"/>
      <point x="200" y="255"/>
      <point x="201" y="253" type="curve" smooth="yes"/>
      <point x="202" y="250"/>
      <point x="200" y="245"/>
      <point x="197" y="245" type="curve" smooth="yes"/>
      <point x="196" y="245"/>
      <point x="193" y="243"/>
      <point x="190" y="241" type="curve" smooth="yes"/>
      <point x="187" y="239"/>
      <point x="183" y="236"/>
      <point x="181" y="235" type="curve" smooth="yes"/>
      <point x="178" y="234"/>
      <point x="175" y="232"/>
      <point x="174" y="230" type="curve" smooth="yes"/>
      <point x="170" y="226"/>
      <point x="164" y="224"/>
      <point x="159" y="224" type="curve" smooth="yes"/>
      <point x="156" y="224"/>
      <point x="150" y="223"/>
      <point x="146" y="222" type="curve" smooth="yes"/>
      <point x="141" y="220"/>
      <point x="134" y="219"/>
      <point x="128" y="219" type="curve"/>
      <point x="123" y="218"/>
      <point x="115" y="217"/>
      <point x="110" y="217" type="curve" smooth="yes"/>
      <point x="90" y="215"/>
      <point x="65" y="215"/>
      <point x="61" y="218" type="curve" smooth="yes"/>
      <point x="60" y="219"/>
      <point x="60" y="222"/>
      <point x="60" y="226" type="curve" smooth="yes"/>
      <point x="60" y="230"/>
      <point x="60" y="238"/>
      <point x="59" y="245" type="curve" smooth="yes"/>
      <point x="58" y="269"/>
      <point x="58" y="285"/>
      <point x="59" y="285" type="curve"/>
      <point x="59" y="286"/>
      <point x="62" y="285"/>
      <point x="66" y="285" type="curve" smooth="yes"/>
      <point x="72" y="284"/>
      <point x="74" y="284"/>
      <point x="78" y="285" type="curve" smooth="yes"/>
      <point x="86" y="287"/>
      <point x="86" y="287"/>
      <point x="90" y="286" type="curve" smooth="yes"/>
      <point x="92" y="285"/>
      <point x="98" y="284"/>
    </contour>
  </outline>
</glyph>
<glyph name="uni0043" format="1">
  <advance width="209"/>
  <unicode hex="0043"/>
  <outline>
    <contour>
      <point x="95" y="441" type="curve" smooth="yes"/>
      <point x="92" y="440"/>
      <point x="88" y="439"/>
      <point x="87" y="439" type="curve" smooth="yes"/>
      <point x="87" y="439"/>
      <point x="84" y="437"/>
      <point x="81" y="434" type="curve" smooth="yes"/>
      <point x="78" y="432"/>
      <point x="74" y="429"/>
      <point x="72" y="428" type="curve" smooth="yes"/>
      <point x="67" y="426"/>
      <point x="59" y="418"/>
      <point x="56" y="413" type="curve" smooth="yes"/>
      <point x="54" y="411"/>
      <point x="53" y="409"/>
      <point x="52" y="409" type="curve" smooth="yes"/>
      <point x="48" y="409"/>
      <point x="38" y="394"/>
      <point x="37" y="386" type="curve" smooth="yes"/>
      <point x="36" y="384"/>
      <point x="35" y="381"/>
      <point x="33" y="378" type="curve" smooth="yes"/>
      <point x="31" y="375"/>
      <point x="30" y="373"/>
      <point x="30" y="372" type="curve" smooth="yes"/>
      <point x="30" y="372"/>
      <point x="29" y="368"/>
      <point x="27" y="365" type="curve" smooth="yes"/>
      <point x="19" y="347"/>
      <point x="15" y="314"/>
      <point x="18" y="299" type="curve" smooth="yes"/>
      <point x="19" y="297"/>
      <point x="19" y="293"/>
      <point x="20" y="292" type="curve" smooth="yes"/>
      <point x="21" y="277"/>
      <point x="23" y="272"/>
      <point x="25" y="271" type="curve" smooth="yes"/>
      <point x="26" y="270"/>
      <point x="26" y="269"/>
      <point x="26" y="268" type="curve" smooth="yes"/>
      <point x="26" y="267"/>
      <point x="27" y="265"/>
      <point x="28" y="262" type="curve" smooth="yes"/>
      <point x="29" y="260"/>
      <point x="30" y="257"/>
      <point x="29" y="256" type="curve" smooth="yes"/>
      <point x="29" y="255"/>
      <point x="30" y="253"/>
      <point x="31" y="251" type="curve" smooth="yes"/>
      <point x="33" y="248"/>
      <point x="33" y="247"/>
      <point x="32" y="245" type="curve" smooth="yes"/>
      <point x="31" y="243"/>
      <point x="31" y="243"/>
      <point x="36" y="229" type="curve" smooth="yes"/>
      <point x="41" y="216"/>
      <point x="43" y="212"/>
      <point x="45" y="211" type="curve" smooth="yes"/>
      <point x="46" y="210"/>
      <point x="47" y="209"/>
      <point x="47" y="209" type="curve" smooth="yes"/>
      <point x="47" y="208"/>
      <point x="49" y="205"/>
      <point x="51" y="202" type="curve" smooth="yes"/>
      <point x="53" y="199"/>
      <point x="55" y="196"/>
      <point x="55" y="195" type="curve" smooth="yes"/>
      <point x="55" y="195"/>
      <point x="57" y="193"/>
      <point x="59" y="191" type="curve" smooth="yes"/>
      <point x="61" y="188"/>
      <point x="64" y="184"/>
      <point x="66" y="182" type="curve" smooth="yes"/>
      <point x="69" y="179"/>
      <point x="72" y="177"/>
      <point x="78" y="174" type="curve" smooth="yes"/>
      <point x="94" y="166"/>
      <point x="97" y="165"/>
      <point x="110" y="164" type="curve" smooth="yes"/>
      <point x="117" y="164"/>
      <point x="123" y="164"/>
      <point x="124" y="163" type="curve"/>
      <point x="126" y="163"/>
      <point x="127" y="163"/>
      <point x="128" y="164" type="curve" smooth="yes"/>
      <point x="128" y="165"/>
      <point x="130" y="165"/>
      <point x="133" y="165" type="curve" smooth="yes"/>
      <point x="135" y="165"/>
      <point x="137" y="165"/>
      <point x="138" y="166" type="curve" smooth="yes"/>
      <point x="138" y="167"/>
      <point x="140" y="167"/>
      <point x="142" y="168" type="curve" smooth="yes"/>
      <point x="144" y="169"/>
      <point x="148" y="170"/>
      <point x="149" y="172" type="curve"/>
      <point x="152" y="174"/>
      <point x="163" y="180"/>
      <point x="165" y="180" type="curve" smooth="yes"/>
      <point x="166" y="180"/>
      <point x="169" y="183"/>
      <point x="172" y="186" type="curve" smooth="yes"/>
      <point x="176" y="189"/>
      <point x="180" y="192"/>
      <point x="181" y="193" type="curve" smooth="yes"/>
      <point x="183" y="194"/>
      <point x="184" y="195"/>
      <point x="185" y="197" type="curve" smooth="yes"/>
      <point x="186" y="198"/>
      <point x="187" y="201"/>
      <point x="188" y="203" type="curve" smooth="yes"/>
      <point x="192" y="208"/>
      <point x="193" y="235"/>
      <point x="191" y="241" type="curve" smooth="yes"/>
      <point x="189" y="246"/>
      <point x="188" y="246"/>
      <point x="185" y="242" type="curve" smooth="yes"/>
      <point x="182" y="239"/>
      <point x="177" y="234"/>
      <point x="172" y="229" type="curve" smooth="yes"/>
      <point x="170" y="228"/>
      <point x="168" y="227"/>
      <point x="165" y="227" type="curve" smooth="yes"/>
      <point x="162" y="226"/>
      <point x="161" y="226"/>
      <point x="159" y="224" type="curve" smooth="yes"/>
      <point x="158" y="222"/>
      <point x="155" y="221"/>
      <point x="152" y="220" type="curve" smooth="yes"/>
      <point x="150" y="219"/>
      <point x="146" y="218"/>
      <point x="145" y="217" type="curve" smooth="yes"/>
      <point x="140" y="215"/>
      <point x="124" y="213"/>
      <point x="112" y="213" type="curve" smooth="yes"/>
      <point x="99" y="213"/>
      <point x="94" y="215"/>
      <point x="84" y="225" type="curve" smooth="yes"/>
      <point x="81" y="228"/>
      <point x="78" y="231"/>
      <point x="76" y="231" type="curve" smooth="yes"/>
      <point x="75" y="231"/>
      <point x="73" y="232"/>
      <point x="73" y="233" type="curve" smooth="yes"/>
      <point x="67" y="245"/>
      <point x="63" y="254"/>
      <point x="63" y="256" type="curve" smooth="yes"/>
      <point x="63" y="257"/>
      <point x="62" y="260"/>
      <point x="62" y="261" type="curve" smooth="yes"/>
      <point x="61" y="262"/>
      <point x="60" y="265"/>
      <point x="60" y="266" type="curve" smooth="yes"/>
      <point x="60" y="268"/>
      <point x="59" y="272"/>
      <point x="58" y="275" type="curve" smooth="yes"/>
      <point x="54" y="286"/>
      <point x="55" y="306"/>
      <point x="60" y="322" type="curve" smooth="yes"/>
      <point x="61" y="323"/>
      <point x="62" y="326"/>
      <point x="62" y="328" type="curve" smooth="yes"/>
      <point x="62" y="329"/>
      <point x="64" y="332"/>
      <point x="65" y="335" type="curve" smooth="yes"/>
      <point x="66" y="337"/>
      <point x="67" y="340"/>
      <point x="67" y="340" type="curve"/>
      <point x="67" y="343"/>
      <point x="73" y="355"/>
      <point x="76" y="359" type="curve" smooth="yes"/>
      <point x="77" y="360"/>
      <point x="78" y="362"/>
      <point x="79" y="363" type="curve" smooth="yes"/>
      <point x="81" y="367"/>
      <point x="90" y="378"/>
      <point x="94" y="381" type="curve" smooth="yes"/>
      <point x="96" y="382"/>
      <point x="99" y="385"/>
      <point x="102" y="387" type="curve" smooth="yes"/>
      <point x="111" y="396"/>
      <point x="119" y="399"/>
      <point x="135" y="400" type="curve" smooth="yes"/>
      <point x="148" y="400"/>
      <point x="151" y="399"/>
      <point x="155" y="390" type="curve" smooth="yes"/>
      <point x="156" y="388"/>
      <point x="158" y="385"/>
      <point x="159" y="383" type="curve" smooth="yes"/>
      <point x="161" y="380"/>
      <point x="163" y="376"/>
      <point x="164" y="374" type="curve" smooth="yes"/>
      <point x="165" y="369"/>
      <point x="168" y="367"/>
      <point x="174" y="366" type="curve" smooth="yes"/>
      <point x="175" y="365"/>
      <point x="178" y="364"/>
      <point x="180" y="362" type="curve" smooth="yes"/>
      <point x="187" y="357"/>
      <point x="191" y="359"/>
      <point x="191" y="366" type="curve" smooth="yes"/>
      <point x="191" y="368"/>
      <point x="192" y="371"/>
      <point x="192" y="373" type="curve" smooth="yes"/>
      <point x="193" y="377"/>
      <point x="193" y="379"/>
      <point x="191" y="385" type="curve" smooth="yes"/>
      <point x="190" y="388"/>
      <point x="189" y="393"/>
      <point x="189" y="394" type="curve" smooth="yes"/>
      <point x="189" y="405"/>
      <point x="167" y="432"/>
      <point x="154" y="437" type="curve" smooth="yes"/>
      <point x="152" y="437"/>
      <point x="147" y="440"/>
      <point x="144" y="441" type="curve" smooth="yes"/>
      <point x="140" y="443"/>
      <point x="137" y="444"/>
      <point x="136" y="443" type="curve"/>
      <point x="134" y="443"/>
      <point x="131" y="444"/>
      <point x="129" y="444" type="curve" smooth="yes"/>
      <point x="123" y="446"/>
      <point x="120" y="446"/>
      <point x="108" y="444" type="curve" smooth="yes"/>
      <point x="104" y="444"/>
      <point x="98" y="442"/>
    </contour>
  </outline>
</glyph>
<glyph name="uni0044" format="1">
  <advance width="247"/>
  <unicode hex="0044"/>
  <outline>
    <contour>
      <point x="32" y="442" type="curve" smooth="yes"/>
      <point x="28" y="442"/>
      <point x="28" y="442"/>
      <point x="26" y="439" type="curve" smooth="yes"/>
      <point x="22" y="431"/>
      <point x="18" y="398"/>
      <point x="20" y="392" type="curve" smooth="yes"/>
      <point x="23" y="385"/>
      <point x="24" y="377"/>
      <point x="23" y="375" type="curve" smooth="yes"/>
      <point x="22" y="374"/>
      <point x="22" y="371"/>
      <point x="23" y="367" type="curve" smooth="yes"/>
      <point x="24" y="361"/>
      <point x="24" y="354"/>
      <point x="23" y="344" type="curve" smooth="yes"/>
      <point x="23" y="343"/>
      <point x="23" y="337"/>
      <point x="24" y="330" type="curve"/>
      <point x="24" y="322"/>
      <point x="24" y="315"/>
      <point x="24" y="314" type="curve" smooth="yes"/>
      <point x="24" y="313"/>
      <point x="24" y="306"/>
      <point x="24" y="300" type="curve" smooth="yes"/>
      <point x="24" y="294"/>
      <point x="24" y="286"/>
      <point x="24" y="282" type="curve" smooth="yes"/>
      <point x="24" y="268"/>
      <point x="24" y="251"/>
      <point x="25" y="249" type="curve" smooth="yes"/>
      <point x="27" y="246"/>
      <point x="27" y="217"/>
      <point x="26" y="213" type="curve" smooth="yes"/>
      <point x="25" y="210"/>
      <point x="25" y="208"/>
      <point x="26" y="208" type="curve"/>
      <point x="26" y="207"/>
      <point x="27" y="202"/>
      <point x="28" y="198" type="curve"/>
      <point x="28" y="193"/>
      <point x="29" y="188"/>
      <point x="29" y="188" type="curve" smooth="yes"/>
      <point x="29" y="187"/>
      <point x="30" y="185"/>
      <point x="30" y="184" type="curve" smooth="yes"/>
      <point x="31" y="180"/>
      <point x="39" y="173"/>
      <point x="44" y="172" type="curve" smooth="yes"/>
      <point x="51" y="170"/>
      <point x="52" y="170"/>
      <point x="72" y="170" type="curve" smooth="yes"/>
      <point x="82" y="170"/>
      <point x="92" y="170"/>
      <point x="93" y="170" type="curve" smooth="yes"/>
      <point x="98" y="170"/>
      <point x="117" y="173"/>
      <point x="120" y="175" type="curve" smooth="yes"/>
      <point x="121" y="175"/>
      <point x="126" y="177"/>
      <point x="130" y="178" type="curve" smooth="yes"/>
      <point x="139" y="180"/>
      <point x="143" y="181"/>
      <point x="152" y="185" type="curve" smooth="yes"/>
      <point x="156" y="187"/>
      <point x="159" y="189"/>
      <point x="160" y="189" type="curve" smooth="yes"/>
      <point x="161" y="189"/>
      <point x="163" y="190"/>
      <point x="165" y="192" type="curve" smooth="yes"/>
      <point x="168" y="194"/>
      <point x="170" y="195"/>
      <point x="171" y="195" type="curve" smooth="yes"/>
      <point x="171" y="195"/>
      <point x="174" y="197"/>
      <point x="176" y="200" type="curve"/>
      <point x="179" y="202"/>
      <point x="182" y="204"/>
      <point x="183" y="204" type="curve" smooth="yes"/>
      <point x="185" y="204"/>
      <point x="187" y="205"/>
      <point x="188" y="206" type="curve" smooth="yes"/>
      <point x="192" y="208"/>
      <point x="209" y="226"/>
      <point x="209" y="227" type="curve" smooth="yes"/>
      <point x="209" y="228"/>
      <point x="210" y="230"/>
      <point x="212" y="232" type="curve" smooth="yes"/>
      <point x="214" y="235"/>
      <point x="216" y="239"/>
      <point x="217" y="241" type="curve" smooth="yes"/>
      <point x="218" y="244"/>
      <point x="219" y="246"/>
      <point x="219" y="247" type="curve" smooth="yes"/>
      <point x="220" y="249"/>
      <point x="221" y="252"/>
      <point x="221" y="254" type="curve" smooth="yes"/>
      <point x="222" y="257"/>
      <point x="223" y="261"/>
      <point x="224" y="263" type="curve" smooth="yes"/>
      <point x="230" y="276"/>
      <point x="228" y="332"/>
      <point x="221" y="354" type="curve" smooth="yes"/>
      <point x="219" y="358"/>
      <point x="218" y="364"/>
      <point x="217" y="368" type="curve" smooth="yes"/>
      <point x="215" y="375"/>
      <point x="212" y="381"/>
      <point x="209" y="385" type="curve" smooth="yes"/>
      <point x="208" y="386"/>
      <point x="207" y="388"/>
      <point x="207" y="389" type="curve" smooth="yes"/>
      <point x="207" y="390"/>
      <point x="202" y="398"/>
      <point x="197" y="405" type="curve" smooth="yes"/>
      <point x="193" y="412"/>
      <point x="183" y="421"/>
      <point x="178" y="424" type="curve" smooth="yes"/>
      <point x="176" y="426"/>
      <point x="173" y="428"/>
      <point x="172" y="429" type="curve" smooth="yes"/>
      <point x="171" y="431"/>
      <point x="161" y="435"/>
      <point x="149" y="439" type="curve" smooth="yes"/>
      <point x="143" y="441"/>
      <point x="139" y="441"/>
      <point x="115" y="441" type="curve"/>
      <point x="99" y="442"/>
      <point x="86" y="442"/>
      <point x="85" y="443" type="curve" smooth="yes"/>
      <point x="81" y="444"/>
      <point x="79" y="444"/>
      <point x="71" y="442" type="curve" smooth="yes"/>
      <point x="64" y="440"/>
      <point x="43" y="440"/>
    </contour>
    <contour>
      <point x="131" y="403" type="curve" smooth="yes"/>
      <point x="137" y="404"/>
      <point x="142" y="403"/>
      <point x="150" y="399" type="curve" smooth="yes"/>
      <point x="152" y="398"/>
      <point x="154" y="397"/>
      <point x="154" y="397" type="curve"/>
      <point x="157" y="397"/>
      <point x="173" y="378"/>
      <point x="173" y="375" type="curve"/>
      <point x="173" y="375"/>
      <point x="174" y="373"/>
      <point x="176" y="372" type="curve" smooth="yes"/>
      <point x="177" y="371"/>
      <point x="178" y="369"/>
      <point x="178" y="368" type="curve" smooth="yes"/>
      <point x="178" y="367"/>
      <point x="179" y="364"/>
      <point x="181" y="362" type="curve" smooth="yes"/>
      <point x="183" y="359"/>
      <point x="184" y="355"/>
      <point x="185" y="349" type="curve" smooth="yes"/>
      <point x="186" y="344"/>
      <point x="187" y="338"/>
      <point x="187" y="336" type="curve" smooth="yes"/>
      <point x="190" y="324"/>
      <point x="188" y="278"/>
      <point x="184" y="269" type="curve" smooth="yes"/>
      <point x="184" y="267"/>
      <point x="183" y="265"/>
      <point x="183" y="264" type="curve" smooth="yes"/>
      <point x="183" y="260"/>
      <point x="174" y="244"/>
      <point x="169" y="239" type="curve" smooth="yes"/>
      <point x="163" y="232"/>
      <point x="146" y="220"/>
      <point x="143" y="220" type="curve" smooth="yes"/>
      <point x="142" y="220"/>
      <point x="140" y="219"/>
      <point x="138" y="219" type="curve" smooth="yes"/>
      <point x="136" y="218"/>
      <point x="133" y="217"/>
      <point x="130" y="216" type="curve" smooth="yes"/>
      <point x="128" y="215"/>
      <point x="122" y="214"/>
      <point x="119" y="213" type="curve" smooth="yes"/>
      <point x="101" y="208"/>
      <point x="99" y="208"/>
      <point x="79" y="208" type="curve" smooth="yes"/>
      <point x="59" y="209"/>
      <point x="55" y="209"/>
      <point x="54" y="213" type="curve" smooth="yes"/>
      <point x="54" y="214"/>
      <point x="53" y="217"/>
      <point x="52" y="220" type="curve" smooth="yes"/>
      <point x="51" y="222"/>
      <point x="50" y="229"/>
      <point x="50" y="235" type="curve" smooth="yes"/>
      <point x="49" y="241"/>
      <point x="49" y="249"/>
      <point x="48" y="254" type="curve" smooth="yes"/>
      <point x="46" y="267"/>
      <point x="46" y="278"/>
      <point x="47" y="281" type="curve" smooth="yes"/>
      <point x="48" y="282"/>
      <point x="48" y="284"/>
      <point x="47" y="287" type="curve" smooth="yes"/>
      <point x="46" y="290"/>
      <point x="46" y="293"/>
      <point x="47" y="299" type="curve" smooth="yes"/>
      <point x="49" y="306"/>
      <point x="49" y="311"/>
      <point x="48" y="328" type="curve" smooth="yes"/>
      <point x="48" y="339"/>
      <point x="47" y="355"/>
      <point x="47" y="364" type="curve"/>
      <point x="46" y="372"/>
      <point x="46" y="383"/>
      <point x="45" y="387" type="curve" smooth="yes"/>
      <point x="44" y="397"/>
      <point x="45" y="400"/>
      <point x="52" y="399" type="curve" smooth="yes"/>
      <point x="59" y="398"/>
      <point x="64" y="399"/>
      <point x="67" y="400" type="curve" smooth="yes"/>
      <point x="76" y="404"/>
      <point x="76" y="404"/>
      <point x="80" y="403" type="curve" smooth="yes"/>
      <point x="83" y="402"/>
      <point x="122" y="402"/>
    </contour>
  </outline>
</glyph>
<glyph name="uni0045" format="1">
  <advance width="221"/>
  <unicode hex="0045"/>
  <outline>
    <contour>
      <point x="120" y="443" type="curve" smooth="yes"/>
      <point x="115" y="443"/>
      <point x="108" y="442"/>
      <point x="104" y="441" type="curve" smooth="yes"/>
      <point x="98" y="439"/>
      <point x="91" y="439"/>
      <point x="81" y="439" type="curve"/>
      <point x="74" y="438"/>
      <point x="66" y="438"/>
      <point x="65" y="438" type="curve" smooth="yes"/>
      <point x="64" y="438"/>
      <point x="58" y="438"/>
      <point x="51" y="438" type="curve" smooth="yes"/>
      <point x="33" y="439"/>
      <point x="28" y="437"/>
      <point x="26" y="428" type="curve" smooth="yes"/>
      <point x="25" y="426"/>
      <point x="24" y="422"/>
      <point x="22" y="421" type="curve"/>
      <point x="21" y="418"/>
      <point x="21" y="417"/>
      <point x="22" y="409" type="curve" smooth="yes"/>
      <point x="22" y="404"/>
      <point x="23" y="399"/>
      <point x="22" y="398" type="curve" smooth="yes"/>
      <point x="22" y="397"/>
      <point x="22" y="394"/>
      <point x="21" y="391" type="curve"/>
      <point x="21" y="387"/>
      <point x="20" y="384"/>
      <point x="20" y="384" type="curve"/>
      <point x="18" y="380"/>
      <point x="17" y="358"/>
      <point x="18" y="329" type="curve" smooth="yes"/>
      <point x="19" y="320"/>
      <point x="19" y="309"/>
      <point x="19" y="304" type="curve" smooth="yes"/>
      <point x="19" y="299"/>
      <point x="20" y="290"/>
      <point x="20" y="285" type="curve" smooth="yes"/>
      <point x="21" y="274"/>
      <point x="22" y="257"/>
      <point x="22" y="238" type="curve"/>
      <point x="23" y="231"/>
      <point x="23" y="222"/>
      <point x="24" y="220" type="curve"/>
      <point x="24" y="217"/>
      <point x="24" y="214"/>
      <point x="24" y="212" type="curve" smooth="yes"/>
      <point x="22" y="207"/>
      <point x="23" y="198"/>
      <point x="25" y="193" type="curve" smooth="yes"/>
      <point x="27" y="190"/>
      <point x="28" y="187"/>
      <point x="28" y="185" type="curve" smooth="yes"/>
      <point x="28" y="183"/>
      <point x="29" y="180"/>
      <point x="30" y="178" type="curve" smooth="yes"/>
      <point x="32" y="174"/>
      <point x="32" y="174"/>
      <point x="37" y="174" type="curve" smooth="yes"/>
      <point x="50" y="176"/>
      <point x="54" y="176"/>
      <point x="56" y="175" type="curve" smooth="yes"/>
      <point x="59" y="173"/>
      <point x="76" y="173"/>
      <point x="82" y="175" type="curve" smooth="yes"/>
      <point x="85" y="176"/>
      <point x="87" y="176"/>
      <point x="88" y="175" type="curve" smooth="yes"/>
      <point x="89" y="174"/>
      <point x="93" y="174"/>
      <point x="100" y="175" type="curve" smooth="yes"/>
      <point x="108" y="176"/>
      <point x="112" y="176"/>
      <point x="115" y="175" type="curve" smooth="yes"/>
      <point x="119" y="174"/>
      <point x="129" y="174"/>
      <point x="154" y="176" type="curve" smooth="yes"/>
      <point x="171" y="177"/>
      <point x="173" y="177"/>
      <point x="184" y="177" type="curve" smooth="yes"/>
      <point x="196" y="176"/>
      <point x="200" y="178"/>
      <point x="201" y="187" type="curve" smooth="yes"/>
      <point x="206" y="218"/>
      <point x="205" y="222"/>
      <point x="193" y="220" type="curve"/>
      <point x="184" y="220"/>
      <point x="161" y="219"/>
      <point x="134" y="218" type="curve" smooth="yes"/>
      <point x="119" y="218"/>
      <point x="101" y="218"/>
      <point x="94" y="217" type="curve" smooth="yes"/>
      <point x="73" y="215"/>
      <point x="62" y="217"/>
      <point x="60" y="221" type="curve" smooth="yes"/>
      <point x="59" y="224"/>
      <point x="58" y="283"/>
      <point x="59" y="284" type="curve" smooth="yes"/>
      <point x="59" y="285"/>
      <point x="63" y="285"/>
      <point x="67" y="285" type="curve" smooth="yes"/>
      <point x="72" y="285"/>
      <point x="76" y="286"/>
      <point x="78" y="286" type="curve" smooth="yes"/>
      <point x="80" y="287"/>
      <point x="82" y="287"/>
      <point x="87" y="286" type="curve"/>
      <point x="91" y="284"/>
      <point x="94" y="284"/>
      <point x="99" y="285" type="curve" smooth="yes"/>
      <point x="102" y="285"/>
      <point x="107" y="286"/>
      <point x="111" y="285" type="curve" smooth="yes"/>
      <point x="114" y="285"/>
      <point x="119" y="284"/>
      <point x="123" y="285" type="curve"/>
      <point x="132" y="285"/>
      <point x="152" y="284"/>
      <point x="166" y="282" type="curve" smooth="yes"/>
      <point x="179" y="281"/>
      <point x="185" y="283"/>
      <point x="186" y="290" type="curve" smooth="yes"/>
      <point x="187" y="292"/>
      <point x="187" y="296"/>
      <point x="188" y="298" type="curve" smooth="yes"/>
      <point x="190" y="306"/>
      <point x="188" y="323"/>
      <point x="185" y="325" type="curve" smooth="yes"/>
      <point x="184" y="326"/>
      <point x="168" y="327"/>
      <point x="148" y="327" type="curve" smooth="yes"/>
      <point x="146" y="327"/>
      <point x="139" y="327"/>
      <point x="130" y="326" type="curve" smooth="yes"/>
      <point x="113" y="324"/>
      <point x="100" y="324"/>
      <point x="96" y="326" type="curve" smooth="yes"/>
      <point x="95" y="327"/>
      <point x="92" y="327"/>
      <point x="89" y="326" type="curve" smooth="yes"/>
      <point x="85" y="325"/>
      <point x="60" y="325"/>
      <point x="58" y="327" type="curve"/>
      <point x="56" y="327"/>
      <point x="54" y="332"/>
      <point x="55" y="334" type="curve"/>
      <point x="55" y="334"/>
      <point x="55" y="343"/>
      <point x="54" y="353" type="curve" smooth="yes"/>
      <point x="51" y="388"/>
      <point x="51" y="393"/>
      <point x="54" y="394" type="curve" smooth="yes"/>
      <point x="55" y="395"/>
      <point x="64" y="396"/>
      <point x="76" y="396" type="curve"/>
      <point x="87" y="397"/>
      <point x="98" y="398"/>
      <point x="101" y="398" type="curve" smooth="yes"/>
      <point x="104" y="399"/>
      <point x="109" y="400"/>
      <point x="111" y="400" type="curve" smooth="yes"/>
      <point x="113" y="400"/>
      <point x="119" y="401"/>
      <point x="124" y="402" type="curve" smooth="yes"/>
      <point x="135" y="404"/>
      <point x="150" y="403"/>
      <point x="159" y="399" type="curve" smooth="yes"/>
      <point x="161" y="399"/>
      <point x="168" y="398"/>
      <point x="173" y="397" type="curve"/>
      <point x="179" y="397"/>
      <point x="184" y="396"/>
      <point x="185" y="396" type="curve" smooth="yes"/>
      <point x="188" y="394"/>
      <point x="196" y="396"/>
      <point x="196" y="399" type="curve"/>
      <point x="197" y="400"/>
      <point x="198" y="402"/>
      <point x="199" y="405" type="curve" smooth="yes"/>
      <point x="200" y="407"/>
      <point x="201" y="411"/>
      <point x="201" y="415" type="curve" smooth="yes"/>
      <point x="201" y="418"/>
      <point x="201" y="424"/>
      <point x="201" y="428" type="curve" smooth="yes"/>
      <point x="202" y="438"/>
      <point x="199" y="440"/>
      <point x="181" y="440" type="curve" smooth="yes"/>
      <point x="176" y="440"/>
      <point x="169" y="441"/>
      <point x="166" y="441" type="curve" smooth="yes"/>
      <point x="161" y="442"/>
      <point x="139" y="445"/>
      <point x="137" y="445" type="curve" smooth="yes"/>
      <point x="137" y="445"/>
      <point x="134" y="444"/>
      <point x="132" y="444" type="curve" smooth="yes"/>
      <point x="129" y="444"/>
      <point x="124" y="443"/>
    </contour>
  </outline>
</glyph>
<glyph name="uni0046" format="1">
  <advance width="207"/>
  <unicode hex="0046"/>
  <outline>
    <contour>
      <point x="82" y="439" type="curve" smooth="yes"/>
      <point x="78" y="438"/>
      <point x="73" y="437"/>
      <point x="70" y="437" type="curve" smooth="yes"/>
      <point x="67" y="437"/>
      <point x="64" y="437"/>
      <point x="64" y="437" type="curve"/>
      <point x="63" y="436"/>
      <point x="60" y="437"/>
      <point x="56" y="437" type="curve" smooth="yes"/>
      <point x="49" y="438"/>
      <point x="48" y="438"/>
      <point x="43" y="436" type="curve" smooth="yes"/>
      <point x="40" y="434"/>
      <point x="35" y="433"/>
      <point x="33" y="433" type="curve" smooth="yes"/>
      <point x="30" y="432"/>
      <point x="28" y="431"/>
      <point x="19" y="424" type="curve" smooth="yes"/>
      <point x="16" y="421"/>
      <point x="16" y="420"/>
      <point x="20" y="401" type="curve" smooth="yes"/>
      <point x="21" y="395"/>
      <point x="22" y="382"/>
      <point x="23" y="372" type="curve" smooth="yes"/>
      <point x="24" y="362"/>
      <point x="25" y="349"/>
      <point x="26" y="345" type="curve" smooth="yes"/>
      <point x="27" y="340"/>
      <point x="28" y="329"/>
      <point x="28" y="320" type="curve" smooth="yes"/>
      <point x="28" y="311"/>
      <point x="29" y="301"/>
      <point x="29" y="296" type="curve" smooth="yes"/>
      <point x="29" y="291"/>
      <point x="30" y="278"/>
      <point x="30" y="267" type="curve" smooth="yes"/>
      <point x="30" y="256"/>
      <point x="31" y="245"/>
      <point x="32" y="244" type="curve" smooth="yes"/>
      <point x="34" y="236"/>
      <point x="34" y="204"/>
      <point x="33" y="195" type="curve"/>
      <point x="30" y="186"/>
      <point x="42" y="178"/>
      <point x="62" y="174" type="curve" smooth="yes"/>
      <point x="69" y="173"/>
      <point x="75" y="180"/>
      <point x="74" y="187" type="curve" smooth="yes"/>
      <point x="73" y="189"/>
      <point x="73" y="194"/>
      <point x="73" y="199" type="curve" smooth="yes"/>
      <point x="74" y="206"/>
      <point x="74" y="207"/>
      <point x="72" y="209" type="curve" smooth="yes"/>
      <point x="70" y="211"/>
      <point x="70" y="216"/>
      <point x="66" y="276" type="curve" smooth="yes"/>
      <point x="65" y="287"/>
      <point x="66" y="288"/>
      <point x="76" y="286" type="curve" smooth="yes"/>
      <point x="85" y="285"/>
      <point x="90" y="285"/>
      <point x="103" y="286" type="curve" smooth="yes"/>
      <point x="120" y="288"/>
      <point x="147" y="287"/>
      <point x="157" y="285" type="curve" smooth="yes"/>
      <point x="162" y="284"/>
      <point x="162" y="284"/>
      <point x="165" y="287" type="curve" smooth="yes"/>
      <point x="167" y="290"/>
      <point x="171" y="298"/>
      <point x="171" y="302" type="curve" smooth="yes"/>
      <point x="171" y="303"/>
      <point x="171" y="305"/>
      <point x="172" y="306" type="curve" smooth="yes"/>
      <point x="173" y="308"/>
      <point x="171" y="323"/>
      <point x="170" y="325" type="curve" smooth="yes"/>
      <point x="169" y="326"/>
      <point x="164" y="326"/>
      <point x="149" y="326" type="curve" smooth="yes"/>
      <point x="139" y="326"/>
      <point x="129" y="326"/>
      <point x="127" y="326" type="curve" smooth="yes"/>
      <point x="125" y="326"/>
      <point x="119" y="326"/>
      <point x="114" y="325" type="curve" smooth="yes"/>
      <point x="109" y="324"/>
      <point x="104" y="323"/>
      <point x="103" y="323" type="curve" smooth="yes"/>
      <point x="101" y="324"/>
      <point x="94" y="324"/>
      <point x="85" y="324" type="curve" smooth="yes"/>
      <point x="66" y="325"/>
      <point x="66" y="325"/>
      <point x="65" y="334" type="curve" smooth="yes"/>
      <point x="64" y="337"/>
      <point x="64" y="343"/>
      <point x="64" y="347" type="curve" smooth="yes"/>
      <point x="64" y="352"/>
      <point x="64" y="358"/>
      <point x="63" y="362" type="curve" smooth="yes"/>
      <point x="61" y="373"/>
      <point x="60" y="393"/>
      <point x="61" y="395" type="curve" smooth="yes"/>
      <point x="62" y="397"/>
      <point x="64" y="398"/>
      <point x="76" y="398" type="curve"/>
      <point x="81" y="399"/>
      <point x="88" y="400"/>
      <point x="92" y="401" type="curve" smooth="yes"/>
      <point x="100" y="403"/>
      <point x="122" y="404"/>
      <point x="130" y="403" type="curve" smooth="yes"/>
      <point x="133" y="402"/>
      <point x="138" y="402"/>
      <point x="140" y="403" type="curve" smooth="yes"/>
      <point x="149" y="404"/>
      <point x="166" y="403"/>
      <point x="171" y="400" type="curve" smooth="yes"/>
      <point x="176" y="396"/>
      <point x="178" y="397"/>
      <point x="184" y="402" type="curve" smooth="yes"/>
      <point x="190" y="408"/>
      <point x="193" y="431"/>
      <point x="188" y="432" type="curve" smooth="yes"/>
      <point x="187" y="433"/>
      <point x="186" y="434"/>
      <point x="186" y="435" type="curve" smooth="yes"/>
      <point x="186" y="436"/>
      <point x="185" y="437"/>
      <point x="184" y="438" type="curve" smooth="yes"/>
      <point x="183" y="438"/>
      <point x="162" y="440"/>
      <point x="140" y="440" type="curve"/>
      <point x="131" y="441"/>
      <point x="119" y="441"/>
      <point x="115" y="441" type="curve" smooth="yes"/>
      <point x="111" y="442"/>
      <point x="103" y="441"/>
      <point x="98" y="441" type="curve" smooth="yes"/>
      <point x="92" y="440"/>
      <point x="85" y="439"/>
    </contour>
  </outline>
</glyph>
<glyph name="uni0047" format="1">
  <advance width="242"/>
  <unicode hex="0047"/>
  <outline>
    <contour>
      <point x="112" y="438" type="curve" smooth="yes"/>
      <point x="108" y="437"/>
      <point x="104" y="437"/>
      <point x="102" y="436" type="curve" smooth="yes"/>
      <point x="101" y="435"/>
      <point x="98" y="434"/>
      <point x="96" y="434" type="curve" smooth="yes"/>
      <point x="94" y="434"/>
      <point x="90" y="432"/>
      <point x="86" y="430" type="curve" smooth="yes"/>
      <point x="83" y="428"/>
      <point x="77" y="425"/>
      <point x="74" y="424" type="curve" smooth="yes"/>
      <point x="71" y="423"/>
      <point x="68" y="421"/>
      <point x="67" y="419" type="curve"/>
      <point x="65" y="418"/>
      <point x="63" y="416"/>
      <point x="61" y="415" type="curve" smooth="yes"/>
      <point x="58" y="413"/>
      <point x="56" y="411"/>
      <point x="55" y="410" type="curve" smooth="yes"/>
      <point x="52" y="406"/>
      <point x="40" y="388"/>
      <point x="40" y="387" type="curve" smooth="yes"/>
      <point x="40" y="386"/>
      <point x="39" y="384"/>
      <point x="38" y="383" type="curve" smooth="yes"/>
      <point x="33" y="377"/>
      <point x="28" y="366"/>
      <point x="28" y="363" type="curve" smooth="yes"/>
      <point x="28" y="359"/>
      <point x="25" y="343"/>
      <point x="23" y="337" type="curve" smooth="yes"/>
      <point x="20" y="326"/>
      <point x="18" y="292"/>
      <point x="20" y="290" type="curve" smooth="yes"/>
      <point x="21" y="289"/>
      <point x="21" y="288"/>
      <point x="21" y="287" type="curve" smooth="yes"/>
      <point x="20" y="286"/>
      <point x="22" y="266"/>
      <point x="23" y="260" type="curve" smooth="yes"/>
      <point x="23" y="257"/>
      <point x="24" y="252"/>
      <point x="25" y="249" type="curve" smooth="yes"/>
      <point x="26" y="243"/>
      <point x="31" y="231"/>
      <point x="35" y="223" type="curve" smooth="yes"/>
      <point x="39" y="217"/>
      <point x="54" y="201"/>
      <point x="59" y="199" type="curve" smooth="yes"/>
      <point x="60" y="199"/>
      <point x="62" y="198"/>
      <point x="62" y="197" type="curve" smooth="yes"/>
      <point x="62" y="196"/>
      <point x="63" y="195"/>
      <point x="65" y="194" type="curve" smooth="yes"/>
      <point x="67" y="194"/>
      <point x="70" y="192"/>
      <point x="71" y="191" type="curve" smooth="yes"/>
      <point x="78" y="187"/>
      <point x="90" y="183"/>
      <point x="107" y="178" type="curve" smooth="yes"/>
      <point x="111" y="177"/>
      <point x="124" y="177"/>
      <point x="141" y="178" type="curve" smooth="yes"/>
      <point x="149" y="179"/>
      <point x="162" y="184"/>
      <point x="166" y="188" type="curve" smooth="yes"/>
      <point x="168" y="190"/>
      <point x="171" y="190"/>
      <point x="176" y="191" type="curve" smooth="yes"/>
      <point x="185" y="192"/>
      <point x="193" y="198"/>
      <point x="200" y="213" type="curve" smooth="yes"/>
      <point x="202" y="216"/>
      <point x="206" y="221"/>
      <point x="207" y="223" type="curve" smooth="yes"/>
      <point x="209" y="225"/>
      <point x="211" y="229"/>
      <point x="212" y="231" type="curve"/>
      <point x="212" y="234"/>
      <point x="214" y="239"/>
      <point x="215" y="243" type="curve" smooth="yes"/>
      <point x="216" y="246"/>
      <point x="217" y="250"/>
      <point x="217" y="251" type="curve" smooth="yes"/>
      <point x="217" y="253"/>
      <point x="219" y="263"/>
      <point x="221" y="267" type="curve" smooth="yes"/>
      <point x="223" y="272"/>
      <point x="224" y="296"/>
      <point x="221" y="301" type="curve"/>
      <point x="221" y="303"/>
      <point x="220" y="306"/>
      <point x="220" y="308" type="curve" smooth="yes"/>
      <point x="220" y="314"/>
      <point x="213" y="321"/>
      <point x="208" y="320" type="curve" smooth="yes"/>
      <point x="205" y="319"/>
      <point x="174" y="318"/>
      <point x="173" y="319" type="curve" smooth="yes"/>
      <point x="168" y="323"/>
      <point x="124" y="319"/>
      <point x="124" y="315" type="curve" smooth="yes"/>
      <point x="124" y="314"/>
      <point x="123" y="313"/>
      <point x="123" y="312" type="curve" smooth="yes"/>
      <point x="121" y="310"/>
      <point x="117" y="298"/>
      <point x="116" y="291" type="curve" smooth="yes"/>
      <point x="116" y="284"/>
      <point x="116" y="284"/>
      <point x="120" y="282" type="curve"/>
      <point x="123" y="279"/>
      <point x="124" y="279"/>
      <point x="126" y="280" type="curve" smooth="yes"/>
      <point x="128" y="281"/>
      <point x="135" y="282"/>
      <point x="149" y="282" type="curve" smooth="yes"/>
      <point x="161" y="282"/>
      <point x="175" y="282"/>
      <point x="180" y="282" type="curve" smooth="yes"/>
      <point x="198" y="283"/>
      <point x="198" y="283"/>
      <point x="198" y="274" type="curve" smooth="yes"/>
      <point x="198" y="266"/>
      <point x="197" y="264"/>
      <point x="194" y="255" type="curve" smooth="yes"/>
      <point x="193" y="252"/>
      <point x="192" y="248"/>
      <point x="192" y="247" type="curve" smooth="yes"/>
      <point x="192" y="243"/>
      <point x="185" y="236"/>
      <point x="179" y="233" type="curve" smooth="yes"/>
      <point x="176" y="231"/>
      <point x="173" y="230"/>
      <point x="172" y="229" type="curve" smooth="yes"/>
      <point x="172" y="228"/>
      <point x="164" y="224"/>
      <point x="162" y="224" type="curve" smooth="yes"/>
      <point x="161" y="224"/>
      <point x="159" y="223"/>
      <point x="158" y="222" type="curve" smooth="yes"/>
      <point x="155" y="221"/>
      <point x="145" y="219"/>
      <point x="138" y="219" type="curve" smooth="yes"/>
      <point x="128" y="219"/>
      <point x="109" y="221"/>
      <point x="107" y="222" type="curve" smooth="yes"/>
      <point x="105" y="223"/>
      <point x="102" y="223"/>
      <point x="101" y="223" type="curve" smooth="yes"/>
      <point x="99" y="223"/>
      <point x="96" y="224"/>
      <point x="95" y="224" type="curve" smooth="yes"/>
      <point x="94" y="225"/>
      <point x="89" y="227"/>
      <point x="85" y="229" type="curve" smooth="yes"/>
      <point x="61" y="241"/>
      <point x="48" y="259"/>
      <point x="44" y="283" type="curve" smooth="yes"/>
      <point x="44" y="289"/>
      <point x="42" y="295"/>
      <point x="42" y="297" type="curve"/>
      <point x="41" y="298"/>
      <point x="41" y="299"/>
      <point x="42" y="301" type="curve" smooth="yes"/>
      <point x="43" y="302"/>
      <point x="43" y="304"/>
      <point x="42" y="307" type="curve" smooth="yes"/>
      <point x="41" y="309"/>
      <point x="41" y="317"/>
      <point x="41" y="325" type="curve" smooth="yes"/>
      <point x="41" y="339"/>
      <point x="41" y="340"/>
      <point x="45" y="346" type="curve"/>
      <point x="46" y="350"/>
      <point x="48" y="353"/>
      <point x="48" y="354" type="curve" smooth="yes"/>
      <point x="48" y="362"/>
      <point x="62" y="380"/>
      <point x="67" y="380" type="curve" smooth="yes"/>
      <point x="68" y="380"/>
      <point x="70" y="382"/>
      <point x="71" y="383" type="curve" smooth="yes"/>
      <point x="77" y="389"/>
      <point x="97" y="394"/>
      <point x="116" y="393" type="curve"/>
      <point x="144" y="393"/>
      <point x="145" y="393"/>
      <point x="156" y="387" type="curve" smooth="yes"/>
      <point x="162" y="383"/>
      <point x="167" y="381"/>
      <point x="168" y="381" type="curve" smooth="yes"/>
      <point x="171" y="381"/>
      <point x="172" y="380"/>
      <point x="175" y="377" type="curve" smooth="yes"/>
      <point x="178" y="374"/>
      <point x="181" y="372"/>
      <point x="183" y="371" type="curve" smooth="yes"/>
      <point x="186" y="369"/>
      <point x="192" y="363"/>
      <point x="192" y="361" type="curve" smooth="yes"/>
      <point x="192" y="358"/>
      <point x="206" y="347"/>
      <point x="210" y="348" type="curve" smooth="yes"/>
      <point x="212" y="349"/>
      <point x="217" y="356"/>
      <point x="217" y="361" type="curve" smooth="yes"/>
      <point x="217" y="363"/>
      <point x="218" y="366"/>
      <point x="219" y="368" type="curve" smooth="yes"/>
      <point x="223" y="377"/>
      <point x="219" y="393"/>
      <point x="209" y="404" type="curve" smooth="yes"/>
      <point x="196" y="418"/>
      <point x="192" y="422"/>
      <point x="179" y="428" type="curve" smooth="yes"/>
      <point x="176" y="430"/>
      <point x="173" y="432"/>
      <point x="172" y="432" type="curve" smooth="yes"/>
      <point x="171" y="433"/>
      <point x="170" y="434"/>
      <point x="169" y="434" type="curve" smooth="yes"/>
      <point x="168" y="434"/>
      <point x="165" y="435"/>
      <point x="163" y="436" type="curve" smooth="yes"/>
      <point x="161" y="436"/>
      <point x="157" y="437"/>
      <point x="154" y="437" type="curve" smooth="yes"/>
      <point x="151" y="438"/>
      <point x="146" y="438"/>
      <point x="143" y="439" type="curve" smooth="yes"/>
      <point x="137" y="440"/>
      <point x="129" y="440"/>
      <point x="123" y="439" type="curve" smooth="yes"/>
      <point x="121" y="438"/>
      <point x="116" y="438"/>
    </contour>
  </outline>
</glyph>
<glyph name="uni0048" format="1">
  <advance width="257"/>
  <unicode hex="0048"/>
  <outline>
    <contour>
      <point x="21" y="418" type="curve" smooth="yes"/>
      <point x="21" y="417"/>
      <point x="21" y="413"/>
      <point x="21" y="409" type="curve" smooth="yes"/>
      <point x="19" y="390"/>
      <point x="21" y="349"/>
      <point x="24" y="340" type="curve" smooth="yes"/>
      <point x="25" y="338"/>
      <point x="25" y="334"/>
      <point x="25" y="330" type="curve" smooth="yes"/>
      <point x="25" y="324"/>
      <point x="27" y="315"/>
      <point x="29" y="311" type="curve" smooth="yes"/>
      <point x="31" y="307"/>
      <point x="30" y="269"/>
      <point x="28" y="257" type="curve" smooth="yes"/>
      <point x="27" y="254"/>
      <point x="28" y="252"/>
      <point x="29" y="251" type="curve" smooth="yes"/>
      <point x="30" y="249"/>
      <point x="31" y="249"/>
      <point x="29" y="246" type="curve"/>
      <point x="29" y="244"/>
      <point x="28" y="238"/>
      <point x="28" y="228" type="curve" smooth="yes"/>
      <point x="28" y="220"/>
      <point x="28" y="206"/>
      <point x="28" y="197" type="curve" smooth="yes"/>
      <point x="28" y="177"/>
      <point x="29" y="175"/>
      <point x="34" y="180" type="curve" smooth="yes"/>
      <point x="36" y="182"/>
      <point x="37" y="182"/>
      <point x="40" y="180" type="curve" smooth="yes"/>
      <point x="45" y="176"/>
      <point x="58" y="178"/>
      <point x="59" y="182" type="curve" smooth="yes"/>
      <point x="59" y="184"/>
      <point x="60" y="185"/>
      <point x="62" y="185" type="curve" smooth="yes"/>
      <point x="65" y="185"/>
      <point x="65" y="185"/>
      <point x="64" y="215" type="curve" smooth="yes"/>
      <point x="64" y="231"/>
      <point x="63" y="247"/>
      <point x="63" y="249" type="curve" smooth="yes"/>
      <point x="62" y="253"/>
      <point x="65" y="278"/>
      <point x="66" y="280" type="curve" smooth="yes"/>
      <point x="67" y="281"/>
      <point x="70" y="281"/>
      <point x="78" y="278" type="curve" smooth="yes"/>
      <point x="86" y="275"/>
      <point x="106" y="275"/>
      <point x="139" y="279" type="curve" smooth="yes"/>
      <point x="142" y="279"/>
      <point x="147" y="279"/>
      <point x="150" y="278" type="curve" smooth="yes"/>
      <point x="153" y="277"/>
      <point x="159" y="277"/>
      <point x="163" y="277" type="curve" smooth="yes"/>
      <point x="170" y="276"/>
      <point x="179" y="275"/>
      <point x="192" y="273" type="curve" smooth="yes"/>
      <point x="198" y="272"/>
      <point x="198" y="272"/>
      <point x="198" y="257" type="curve" smooth="yes"/>
      <point x="196" y="220"/>
      <point x="195" y="204"/>
      <point x="194" y="198" type="curve" smooth="yes"/>
      <point x="190" y="174"/>
      <point x="195" y="167"/>
      <point x="212" y="172" type="curve" smooth="yes"/>
      <point x="214" y="173"/>
      <point x="218" y="173"/>
      <point x="221" y="173" type="curve" smooth="yes"/>
      <point x="232" y="173"/>
      <point x="233" y="176"/>
      <point x="234" y="206" type="curve" smooth="yes"/>
      <point x="237" y="261"/>
      <point x="237" y="274"/>
      <point x="237" y="315" type="curve"/>
      <point x="236" y="338"/>
      <point x="236" y="371"/>
      <point x="236" y="387" type="curve" smooth="yes"/>
      <point x="237" y="433"/>
      <point x="238" y="430"/>
      <point x="222" y="430" type="curve" smooth="yes"/>
      <point x="202" y="430"/>
      <point x="201" y="428"/>
      <point x="200" y="406" type="curve" smooth="yes"/>
      <point x="200" y="397"/>
      <point x="199" y="389"/>
      <point x="199" y="387" type="curve" smooth="yes"/>
      <point x="198" y="384"/>
      <point x="198" y="381"/>
      <point x="198" y="380" type="curve" smooth="yes"/>
      <point x="199" y="378"/>
      <point x="199" y="375"/>
      <point x="198" y="374" type="curve" smooth="yes"/>
      <point x="198" y="373"/>
      <point x="198" y="363"/>
      <point x="198" y="353" type="curve" smooth="yes"/>
      <point x="198" y="343"/>
      <point x="198" y="331"/>
      <point x="198" y="327" type="curve" smooth="yes"/>
      <point x="197" y="320"/>
      <point x="197" y="320"/>
      <point x="190" y="320" type="curve" smooth="yes"/>
      <point x="173" y="320"/>
      <point x="160" y="321"/>
      <point x="156" y="322" type="curve" smooth="yes"/>
      <point x="153" y="323"/>
      <point x="148" y="323"/>
      <point x="142" y="322" type="curve" smooth="yes"/>
      <point x="136" y="322"/>
      <point x="131" y="321"/>
      <point x="130" y="321" type="curve" smooth="yes"/>
      <point x="129" y="321"/>
      <point x="120" y="321"/>
      <point x="110" y="320" type="curve" smooth="yes"/>
      <point x="90" y="319"/>
      <point x="74" y="319"/>
      <point x="74" y="320" type="curve" smooth="yes"/>
      <point x="74" y="320"/>
      <point x="72" y="321"/>
      <point x="69" y="321" type="curve"/>
      <point x="65" y="323"/>
      <point x="65" y="323"/>
      <point x="62" y="336" type="curve" smooth="yes"/>
      <point x="61" y="343"/>
      <point x="60" y="349"/>
      <point x="59" y="350" type="curve"/>
      <point x="59" y="350"/>
      <point x="59" y="352"/>
      <point x="59" y="354" type="curve" smooth="yes"/>
      <point x="59" y="356"/>
      <point x="59" y="363"/>
      <point x="58" y="370" type="curve" smooth="yes"/>
      <point x="57" y="383"/>
      <point x="57" y="390"/>
      <point x="59" y="419" type="curve" smooth="yes"/>
      <point x="60" y="430"/>
      <point x="59" y="430"/>
      <point x="48" y="431" type="curve" smooth="yes"/>
      <point x="41" y="431"/>
      <point x="37" y="430"/>
      <point x="33" y="429" type="curve" smooth="yes"/>
      <point x="26" y="426"/>
      <point x="21" y="422"/>
    </contour>
  </outline>
</glyph>
<glyph name="uni0049" format="1">
  <advance width="89"/>
  <unicode hex="0049"/>
  <outline>
    <contour>
      <point x="18" y="532" type="curve" smooth="yes"/>
      <point x="8" y="515"/>
      <point x="6" y="501"/>
      <point x="12" y="491" type="curve" smooth="yes"/>
      <point x="13" y="488"/>
      <point x="15" y="484"/>
      <point x="16" y="482" type="curve" smooth="yes"/>
      <point x="18" y="479"/>
      <point x="22" y="475"/>
      <point x="31" y="471" type="curve"/>
      <point x="41" y="465"/>
      <point x="56" y="468"/>
      <point x="65" y="477" type="curve" smooth="yes"/>
      <point x="68" y="481"/>
      <point x="76" y="497"/>
      <point x="76" y="501" type="curve"/>
      <point x="76" y="501"/>
      <point x="77" y="503"/>
      <point x="78" y="505" type="curve" smooth="yes"/>
      <point x="84" y="517"/>
      <point x="81" y="526"/>
      <point x="68" y="536" type="curve" smooth="yes"/>
      <point x="57" y="545"/>
      <point x="54" y="546"/>
      <point x="42" y="547" type="curve" smooth="yes"/>
      <point x="33" y="547"/>
      <point x="32" y="547"/>
      <point x="28" y="544" type="curve" smooth="yes"/>
      <point x="25" y="542"/>
      <point x="22" y="539"/>
    </contour>
    <contour>
      <point x="22" y="405" type="curve" smooth="yes"/>
      <point x="22" y="394"/>
      <point x="20" y="383"/>
      <point x="19" y="377" type="curve" smooth="yes"/>
      <point x="17" y="371"/>
      <point x="16" y="321"/>
      <point x="17" y="293" type="curve" smooth="yes"/>
      <point x="17" y="288"/>
      <point x="17" y="280"/>
      <point x="16" y="277" type="curve"/>
      <point x="16" y="273"/>
      <point x="16" y="261"/>
      <point x="15" y="250" type="curve" smooth="yes"/>
      <point x="15" y="239"/>
      <point x="14" y="222"/>
      <point x="14" y="211" type="curve" smooth="yes"/>
      <point x="14" y="200"/>
      <point x="14" y="190"/>
      <point x="14" y="189" type="curve" smooth="yes"/>
      <point x="13" y="183"/>
      <point x="18" y="174"/>
      <point x="22" y="172" type="curve" smooth="yes"/>
      <point x="28" y="170"/>
      <point x="48" y="171"/>
      <point x="51" y="173" type="curve" smooth="yes"/>
      <point x="54" y="174"/>
      <point x="55" y="183"/>
      <point x="55" y="221" type="curve" smooth="yes"/>
      <point x="55" y="238"/>
      <point x="56" y="261"/>
      <point x="56" y="273" type="curve" smooth="yes"/>
      <point x="57" y="305"/>
      <point x="58" y="335"/>
      <point x="58" y="349" type="curve" smooth="yes"/>
      <point x="58" y="355"/>
      <point x="59" y="370"/>
      <point x="60" y="381" type="curve" smooth="yes"/>
      <point x="63" y="415"/>
      <point x="63" y="421"/>
      <point x="61" y="424" type="curve" smooth="yes"/>
      <point x="59" y="427"/>
      <point x="41" y="428"/>
      <point x="34" y="425" type="curve"/>
      <point x="25" y="423"/>
      <point x="23" y="418"/>
    </contour>
  </outline>
</glyph>
<glyph name="uni004A" format="1">
  <advance width="221"/>
  <unicode hex="004A"/>
  <outline>
    <contour>
      <point x="138" y="511" type="curve"/>
      <point x="137" y="498"/>
      <point x="147" y="485"/>
      <point x="163" y="482" type="curve" smooth="yes"/>
      <point x="183" y="478"/>
      <point x="187" y="479"/>
      <point x="192" y="490" type="curve" smooth="yes"/>
      <point x="193" y="493"/>
      <point x="196" y="499"/>
      <point x="198" y="503" type="curve" smooth="yes"/>
      <point x="205" y="516"/>
      <point x="206" y="526"/>
      <point x="201" y="538" type="curve" smooth="yes"/>
      <point x="197" y="548"/>
      <point x="179" y="555"/>
      <point x="166" y="552" type="curve" smooth="yes"/>
      <point x="153" y="550"/>
      <point x="142" y="531"/>
    </contour>
    <contour>
      <point x="152" y="408" type="curve" smooth="yes"/>
      <point x="152" y="392"/>
      <point x="151" y="379"/>
      <point x="150" y="371" type="curve" smooth="yes"/>
      <point x="149" y="363"/>
      <point x="148" y="352"/>
      <point x="148" y="345" type="curve" smooth="yes"/>
      <point x="147" y="333"/>
      <point x="147" y="326"/>
      <point x="146" y="324" type="curve" smooth="yes"/>
      <point x="145" y="322"/>
      <point x="145" y="317"/>
      <point x="145" y="311" type="curve" smooth="yes"/>
      <point x="144" y="293"/>
      <point x="143" y="268"/>
      <point x="141" y="260" type="curve" smooth="yes"/>
      <point x="141" y="257"/>
      <point x="140" y="253"/>
      <point x="140" y="250" type="curve" smooth="yes"/>
      <point x="140" y="236"/>
      <point x="131" y="213"/>
      <point x="124" y="206" type="curve" smooth="yes"/>
      <point x="116" y="197"/>
      <point x="96" y="192"/>
      <point x="83" y="196" type="curve" smooth="yes"/>
      <point x="81" y="197"/>
      <point x="78" y="198"/>
      <point x="77" y="198" type="curve" smooth="yes"/>
      <point x="75" y="198"/>
      <point x="67" y="206"/>
      <point x="67" y="207" type="curve" smooth="yes"/>
      <point x="67" y="208"/>
      <point x="65" y="210"/>
      <point x="64" y="213" type="curve" smooth="yes"/>
      <point x="62" y="216"/>
      <point x="61" y="219"/>
      <point x="61" y="220" type="curve" smooth="yes"/>
      <point x="61" y="221"/>
      <point x="60" y="224"/>
      <point x="58" y="228" type="curve"/>
      <point x="57" y="233"/>
      <point x="56" y="236"/>
      <point x="56" y="258" type="curve" smooth="yes"/>
      <point x="56" y="276"/>
      <point x="56" y="282"/>
      <point x="55" y="283" type="curve" smooth="yes"/>
      <point x="54" y="284"/>
      <point x="50" y="285"/>
      <point x="43" y="285" type="curve" smooth="yes"/>
      <point x="24" y="285"/>
      <point x="17" y="281"/>
      <point x="18" y="270" type="curve" smooth="yes"/>
      <point x="20" y="256"/>
      <point x="21" y="243"/>
      <point x="21" y="235" type="curve" smooth="yes"/>
      <point x="21" y="216"/>
      <point x="29" y="196"/>
      <point x="38" y="191" type="curve" smooth="yes"/>
      <point x="40" y="190"/>
      <point x="42" y="188"/>
      <point x="42" y="187" type="curve" smooth="yes"/>
      <point x="42" y="185"/>
      <point x="55" y="180"/>
      <point x="64" y="179" type="curve" smooth="yes"/>
      <point x="65" y="178"/>
      <point x="68" y="178"/>
      <point x="71" y="177" type="curve" smooth="yes"/>
      <point x="74" y="176"/>
      <point x="82" y="176"/>
      <point x="93" y="176" type="curve" smooth="yes"/>
      <point x="109" y="176"/>
      <point x="114" y="176"/>
      <point x="127" y="181" type="curve" smooth="yes"/>
      <point x="129" y="181"/>
      <point x="133" y="182"/>
      <point x="135" y="183" type="curve" smooth="yes"/>
      <point x="140" y="184"/>
      <point x="156" y="194"/>
      <point x="162" y="199" type="curve"/>
      <point x="170" y="208"/>
      <point x="182" y="237"/>
      <point x="183" y="251" type="curve" smooth="yes"/>
      <point x="183" y="255"/>
      <point x="184" y="259"/>
      <point x="184" y="261" type="curve" smooth="yes"/>
      <point x="185" y="266"/>
      <point x="186" y="285"/>
      <point x="187" y="304" type="curve" smooth="yes"/>
      <point x="187" y="314"/>
      <point x="188" y="330"/>
      <point x="189" y="339" type="curve" smooth="yes"/>
      <point x="191" y="378"/>
      <point x="192" y="387"/>
      <point x="192" y="403" type="curve" smooth="yes"/>
      <point x="193" y="422"/>
      <point x="192" y="424"/>
      <point x="187" y="427" type="curve" smooth="yes"/>
      <point x="184" y="428"/>
      <point x="171" y="428"/>
      <point x="163" y="427" type="curve" smooth="yes"/>
      <point x="154" y="425"/>
      <point x="152" y="423"/>
    </contour>
  </outline>
</glyph>
<glyph name="uni004B" format="1">
  <advance width="279"/>
  <unicode hex="004B"/>
  <outline>
    <contour>
      <point x="37" y="428" type="curve" smooth="yes"/>
      <point x="35" y="419"/>
      <point x="33" y="408"/>
      <point x="32" y="384" type="curve" smooth="yes"/>
      <point x="31" y="379"/>
      <point x="31" y="371"/>
      <point x="30" y="367" type="curve" smooth="yes"/>
      <point x="27" y="352"/>
      <point x="26" y="344"/>
      <point x="26" y="316" type="curve" smooth="yes"/>
      <point x="25" y="283"/>
      <point x="25" y="286"/>
      <point x="26" y="278" type="curve" smooth="yes"/>
      <point x="26" y="274"/>
      <point x="26" y="270"/>
      <point x="25" y="268" type="curve" smooth="yes"/>
      <point x="25" y="267"/>
      <point x="24" y="257"/>
      <point x="24" y="246" type="curve" smooth="yes"/>
      <point x="24" y="235"/>
      <point x="24" y="220"/>
      <point x="23" y="212" type="curve" smooth="yes"/>
      <point x="21" y="189"/>
      <point x="21" y="185"/>
      <point x="26" y="180" type="curve" smooth="yes"/>
      <point x="31" y="175"/>
      <point x="38" y="171"/>
      <point x="40" y="172" type="curve" smooth="yes"/>
      <point x="41" y="172"/>
      <point x="45" y="173"/>
      <point x="50" y="173" type="curve" smooth="yes"/>
      <point x="63" y="173"/>
      <point x="66" y="175"/>
      <point x="63" y="185" type="curve" smooth="yes"/>
      <point x="62" y="188"/>
      <point x="62" y="190"/>
      <point x="63" y="195" type="curve" smooth="yes"/>
      <point x="64" y="198"/>
      <point x="65" y="201"/>
      <point x="64" y="202" type="curve"/>
      <point x="64" y="202"/>
      <point x="65" y="210"/>
      <point x="65" y="220" type="curve" smooth="yes"/>
      <point x="67" y="241"/>
      <point x="67" y="242"/>
      <point x="66" y="251" type="curve" smooth="yes"/>
      <point x="65" y="257"/>
      <point x="65" y="258"/>
      <point x="69" y="263" type="curve" smooth="yes"/>
      <point x="71" y="266"/>
      <point x="74" y="269"/>
      <point x="75" y="270" type="curve" smooth="yes"/>
      <point x="76" y="270"/>
      <point x="80" y="272"/>
      <point x="85" y="274" type="curve" smooth="yes"/>
      <point x="89" y="276"/>
      <point x="95" y="280"/>
      <point x="98" y="283" type="curve" smooth="yes"/>
      <point x="107" y="291"/>
      <point x="106" y="291"/>
      <point x="115" y="283" type="curve" smooth="yes"/>
      <point x="119" y="279"/>
      <point x="123" y="276"/>
      <point x="123" y="276" type="curve" smooth="yes"/>
      <point x="124" y="276"/>
      <point x="128" y="273"/>
      <point x="133" y="269" type="curve" smooth="yes"/>
      <point x="141" y="261"/>
      <point x="157" y="249"/>
      <point x="159" y="249" type="curve"/>
      <point x="159" y="249"/>
      <point x="168" y="240"/>
      <point x="178" y="230" type="curve" smooth="yes"/>
      <point x="199" y="208"/>
      <point x="199" y="209"/>
      <point x="208" y="201" type="curve" smooth="yes"/>
      <point x="215" y="194"/>
      <point x="216" y="193"/>
      <point x="219" y="191" type="curve" smooth="yes"/>
      <point x="221" y="190"/>
      <point x="225" y="186"/>
      <point x="228" y="183" type="curve" smooth="yes"/>
      <point x="238" y="174"/>
      <point x="243" y="172"/>
      <point x="249" y="177" type="curve" smooth="yes"/>
      <point x="252" y="179"/>
      <point x="256" y="191"/>
      <point x="257" y="196" type="curve" smooth="yes"/>
      <point x="257" y="199"/>
      <point x="257" y="201"/>
      <point x="258" y="202" type="curve" smooth="yes"/>
      <point x="260" y="205"/>
      <point x="252" y="220"/>
      <point x="249" y="220" type="curve" smooth="yes"/>
      <point x="247" y="220"/>
      <point x="239" y="227"/>
      <point x="229" y="238" type="curve"/>
      <point x="224" y="242"/>
      <point x="220" y="246"/>
      <point x="219" y="246" type="curve" smooth="yes"/>
      <point x="218" y="246"/>
      <point x="209" y="255"/>
      <point x="187" y="277" type="curve" smooth="yes"/>
      <point x="181" y="282"/>
      <point x="173" y="289"/>
      <point x="167" y="293" type="curve" smooth="yes"/>
      <point x="166" y="294"/>
      <point x="162" y="297"/>
      <point x="159" y="300" type="curve"/>
      <point x="155" y="302"/>
      <point x="150" y="306"/>
      <point x="148" y="308" type="curve" smooth="yes"/>
      <point x="141" y="312"/>
      <point x="139" y="321"/>
      <point x="145" y="323" type="curve" smooth="yes"/>
      <point x="146" y="323"/>
      <point x="148" y="324"/>
      <point x="149" y="326" type="curve" smooth="yes"/>
      <point x="150" y="328"/>
      <point x="152" y="329"/>
      <point x="153" y="329" type="curve" smooth="yes"/>
      <point x="154" y="330"/>
      <point x="156" y="330"/>
      <point x="158" y="330" type="curve"/>
      <point x="159" y="331"/>
      <point x="165" y="335"/>
      <point x="171" y="340" type="curve" smooth="yes"/>
      <point x="177" y="345"/>
      <point x="183" y="349"/>
      <point x="185" y="350" type="curve" smooth="yes"/>
      <point x="187" y="351"/>
      <point x="188" y="352"/>
      <point x="189" y="353" type="curve" smooth="yes"/>
      <point x="189" y="354"/>
      <point x="191" y="356"/>
      <point x="192" y="357" type="curve" smooth="yes"/>
      <point x="194" y="358"/>
      <point x="198" y="361"/>
      <point x="202" y="365" type="curve" smooth="yes"/>
      <point x="206" y="369"/>
      <point x="210" y="372"/>
      <point x="211" y="372" type="curve" smooth="yes"/>
      <point x="219" y="374"/>
      <point x="232" y="386"/>
      <point x="237" y="396" type="curve" smooth="yes"/>
      <point x="238" y="398"/>
      <point x="236" y="413"/>
      <point x="234" y="417" type="curve" smooth="yes"/>
      <point x="234" y="418"/>
      <point x="233" y="421"/>
      <point x="233" y="424" type="curve" smooth="yes"/>
      <point x="232" y="432"/>
      <point x="228" y="435"/>
      <point x="225" y="431" type="curve" smooth="yes"/>
      <point x="224" y="430"/>
      <point x="220" y="426"/>
      <point x="216" y="423" type="curve" smooth="yes"/>
      <point x="212" y="420"/>
      <point x="207" y="415"/>
      <point x="205" y="413" type="curve" smooth="yes"/>
      <point x="203" y="411"/>
      <point x="199" y="407"/>
      <point x="196" y="406" type="curve" smooth="yes"/>
      <point x="193" y="404"/>
      <point x="190" y="401"/>
      <point x="188" y="399" type="curve" smooth="yes"/>
      <point x="186" y="397"/>
      <point x="184" y="396"/>
      <point x="184" y="396" type="curve" smooth="yes"/>
      <point x="183" y="396"/>
      <point x="180" y="393"/>
      <point x="176" y="390" type="curve" smooth="yes"/>
      <point x="173" y="387"/>
      <point x="168" y="383"/>
      <point x="165" y="381" type="curve" smooth="yes"/>
      <point x="162" y="380"/>
      <point x="157" y="376"/>
      <point x="153" y="373" type="curve" smooth="yes"/>
      <point x="149" y="371"/>
      <point x="142" y="365"/>
      <point x="137" y="361" type="curve" smooth="yes"/>
      <point x="129" y="353"/>
      <point x="119" y="346"/>
      <point x="108" y="339" type="curve" smooth="yes"/>
      <point x="105" y="337"/>
      <point x="100" y="333"/>
      <point x="97" y="330" type="curve" smooth="yes"/>
      <point x="94" y="328"/>
      <point x="88" y="324"/>
      <point x="84" y="321" type="curve" smooth="yes"/>
      <point x="79" y="318"/>
      <point x="75" y="315"/>
      <point x="73" y="313" type="curve" smooth="yes"/>
      <point x="69" y="310"/>
      <point x="68" y="311"/>
      <point x="67" y="317" type="curve" smooth="yes"/>
      <point x="65" y="324"/>
      <point x="67" y="357"/>
      <point x="68" y="368" type="curve" smooth="yes"/>
      <point x="69" y="371"/>
      <point x="70" y="376"/>
      <point x="70" y="378" type="curve" smooth="yes"/>
      <point x="70" y="381"/>
      <point x="71" y="387"/>
      <point x="71" y="392" type="curve"/>
      <point x="72" y="396"/>
      <point x="72" y="406"/>
      <point x="72" y="413" type="curve"/>
      <point x="73" y="419"/>
      <point x="73" y="425"/>
      <point x="73" y="426" type="curve" smooth="yes"/>
      <point x="75" y="429"/>
      <point x="73" y="432"/>
      <point x="69" y="434" type="curve" smooth="yes"/>
      <point x="67" y="435"/>
      <point x="65" y="436"/>
      <point x="65" y="436" type="curve"/>
      <point x="65" y="436"/>
      <point x="61" y="435"/>
      <point x="56" y="435" type="curve" smooth="yes"/>
      <point x="46" y="434"/>
      <point x="38" y="432"/>
    </contour>
  </outline>
</glyph>
<glyph name="uni004C" format="1">
  <advance width="237"/>
  <unicode hex="004C"/>
  <outline>
    <contour>
      <point x="28" y="414" type="curve" smooth="yes"/>
      <point x="27" y="405"/>
      <point x="26" y="350"/>
      <point x="26" y="336" type="curve" smooth="yes"/>
      <point x="26" y="333"/>
      <point x="26" y="321"/>
      <point x="26" y="309" type="curve" smooth="yes"/>
      <point x="26" y="297"/>
      <point x="26" y="285"/>
      <point x="26" y="283" type="curve" smooth="yes"/>
      <point x="26" y="280"/>
      <point x="26" y="277"/>
      <point x="26" y="276" type="curve" smooth="yes"/>
      <point x="26" y="275"/>
      <point x="26" y="270"/>
      <point x="25" y="266" type="curve"/>
      <point x="25" y="261"/>
      <point x="25" y="256"/>
      <point x="25" y="254" type="curve"/>
      <point x="26" y="253"/>
      <point x="26" y="250"/>
      <point x="25" y="246" type="curve" smooth="yes"/>
      <point x="25" y="243"/>
      <point x="24" y="237"/>
      <point x="24" y="233" type="curve" smooth="yes"/>
      <point x="24" y="228"/>
      <point x="24" y="223"/>
      <point x="23" y="221" type="curve" smooth="yes"/>
      <point x="21" y="216"/>
      <point x="19" y="204"/>
      <point x="19" y="194" type="curve"/>
      <point x="18" y="186"/>
      <point x="23" y="181"/>
      <point x="31" y="182" type="curve" smooth="yes"/>
      <point x="33" y="183"/>
      <point x="41" y="182"/>
      <point x="47" y="182" type="curve" smooth="yes"/>
      <point x="53" y="181"/>
      <point x="65" y="181"/>
      <point x="74" y="181" type="curve" smooth="yes"/>
      <point x="85" y="180"/>
      <point x="92" y="180"/>
      <point x="94" y="179" type="curve" smooth="yes"/>
      <point x="97" y="178"/>
      <point x="100" y="178"/>
      <point x="106" y="179" type="curve" smooth="yes"/>
      <point x="111" y="179"/>
      <point x="116" y="179"/>
      <point x="117" y="179" type="curve" smooth="yes"/>
      <point x="118" y="179"/>
      <point x="127" y="178"/>
      <point x="137" y="179" type="curve"/>
      <point x="164" y="179"/>
      <point x="168" y="179"/>
      <point x="174" y="177" type="curve" smooth="yes"/>
      <point x="177" y="176"/>
      <point x="181" y="175"/>
      <point x="182" y="175" type="curve" smooth="yes"/>
      <point x="184" y="175"/>
      <point x="185" y="175"/>
      <point x="186" y="174" type="curve" smooth="yes"/>
      <point x="187" y="172"/>
      <point x="195" y="172"/>
      <point x="197" y="174" type="curve" smooth="yes"/>
      <point x="199" y="176"/>
      <point x="205" y="178"/>
      <point x="208" y="177" type="curve" smooth="yes"/>
      <point x="211" y="177"/>
      <point x="215" y="181"/>
      <point x="216" y="187" type="curve" smooth="yes"/>
      <point x="216" y="189"/>
      <point x="217" y="194"/>
      <point x="217" y="197" type="curve" smooth="yes"/>
      <point x="221" y="219"/>
      <point x="220" y="221"/>
      <point x="203" y="220" type="curve" smooth="yes"/>
      <point x="195" y="219"/>
      <point x="191" y="220"/>
      <point x="188" y="221" type="curve" smooth="yes"/>
      <point x="186" y="222"/>
      <point x="178" y="222"/>
      <point x="151" y="222" type="curve" smooth="yes"/>
      <point x="117" y="222"/>
      <point x="74" y="223"/>
      <point x="67" y="224" type="curve" smooth="yes"/>
      <point x="64" y="224"/>
      <point x="64" y="228"/>
      <point x="66" y="263" type="curve" smooth="yes"/>
      <point x="67" y="270"/>
      <point x="68" y="292"/>
      <point x="68" y="313" type="curve" smooth="yes"/>
      <point x="68" y="367"/>
      <point x="68" y="375"/>
      <point x="67" y="381" type="curve" smooth="yes"/>
      <point x="67" y="383"/>
      <point x="67" y="387"/>
      <point x="67" y="389" type="curve" smooth="yes"/>
      <point x="68" y="392"/>
      <point x="69" y="407"/>
      <point x="68" y="424" type="curve" smooth="yes"/>
      <point x="68" y="429"/>
      <point x="68" y="430"/>
      <point x="66" y="432" type="curve" smooth="yes"/>
      <point x="63" y="434"/>
      <point x="48" y="434"/>
      <point x="41" y="432" type="curve" smooth="yes"/>
      <point x="30" y="430"/>
      <point x="29" y="428"/>
    </contour>
  </outline>
</glyph>
<glyph name="uni004D" format="1">
  <advance width="319"/>
  <unicode hex="004D"/>
  <outline>
    <contour>
      <point x="51" y="436" type="curve" smooth="yes"/>
      <point x="49" y="434"/>
      <point x="48" y="433"/>
      <point x="46" y="434" type="curve"/>
      <point x="42" y="434"/>
      <point x="35" y="432"/>
      <point x="32" y="430" type="curve"/>
      <point x="28" y="425"/>
      <point x="25" y="355"/>
      <point x="27" y="298" type="curve" smooth="yes"/>
      <point x="28" y="275"/>
      <point x="27" y="268"/>
      <point x="26" y="264" type="curve" smooth="yes"/>
      <point x="26" y="261"/>
      <point x="25" y="253"/>
      <point x="25" y="238" type="curve" smooth="yes"/>
      <point x="25" y="226"/>
      <point x="25" y="208"/>
      <point x="24" y="197" type="curve"/>
      <point x="24" y="174"/>
      <point x="24" y="170"/>
      <point x="31" y="171" type="curve" smooth="yes"/>
      <point x="33" y="171"/>
      <point x="38" y="171"/>
      <point x="43" y="171" type="curve" smooth="yes"/>
      <point x="56" y="172"/>
      <point x="56" y="171"/>
      <point x="57" y="240" type="curve" smooth="yes"/>
      <point x="58" y="258"/>
      <point x="58" y="275"/>
      <point x="58" y="279" type="curve" smooth="yes"/>
      <point x="59" y="283"/>
      <point x="59" y="304"/>
      <point x="59" y="326" type="curve" smooth="yes"/>
      <point x="60" y="376"/>
      <point x="60" y="372"/>
      <point x="61" y="372" type="curve" smooth="yes"/>
      <point x="63" y="372"/>
      <point x="71" y="362"/>
      <point x="71" y="361" type="curve" smooth="yes"/>
      <point x="71" y="359"/>
      <point x="79" y="349"/>
      <point x="83" y="345" type="curve" smooth="yes"/>
      <point x="85" y="343"/>
      <point x="87" y="340"/>
      <point x="87" y="339" type="curve" smooth="yes"/>
      <point x="88" y="338"/>
      <point x="90" y="335"/>
      <point x="91" y="333" type="curve" smooth="yes"/>
      <point x="93" y="330"/>
      <point x="95" y="327"/>
      <point x="96" y="326" type="curve" smooth="yes"/>
      <point x="97" y="324"/>
      <point x="99" y="322"/>
      <point x="103" y="317" type="curve" smooth="yes"/>
      <point x="104" y="316"/>
      <point x="106" y="314"/>
      <point x="106" y="312" type="curve" smooth="yes"/>
      <point x="107" y="310"/>
      <point x="109" y="308"/>
      <point x="109" y="308" type="curve" smooth="yes"/>
      <point x="110" y="307"/>
      <point x="112" y="305"/>
      <point x="112" y="304" type="curve" smooth="yes"/>
      <point x="113" y="302"/>
      <point x="115" y="299"/>
      <point x="116" y="298" type="curve" smooth="yes"/>
      <point x="118" y="297"/>
      <point x="120" y="293"/>
      <point x="121" y="291" type="curve" smooth="yes"/>
      <point x="123" y="289"/>
      <point x="127" y="283"/>
      <point x="130" y="280" type="curve" smooth="yes"/>
      <point x="136" y="272"/>
      <point x="143" y="261"/>
      <point x="143" y="259" type="curve" smooth="yes"/>
      <point x="143" y="257"/>
      <point x="147" y="253"/>
      <point x="150" y="252" type="curve" smooth="yes"/>
      <point x="151" y="251"/>
      <point x="152" y="250"/>
      <point x="153" y="249" type="curve" smooth="yes"/>
      <point x="156" y="240"/>
      <point x="164" y="243"/>
      <point x="170" y="255" type="curve" smooth="yes"/>
      <point x="173" y="260"/>
      <point x="176" y="264"/>
      <point x="190" y="279" type="curve" smooth="yes"/>
      <point x="196" y="285"/>
      <point x="199" y="290"/>
      <point x="201" y="295" type="curve" smooth="yes"/>
      <point x="202" y="297"/>
      <point x="204" y="299"/>
      <point x="206" y="300" type="curve" smooth="yes"/>
      <point x="208" y="301"/>
      <point x="211" y="304"/>
      <point x="213" y="307" type="curve" smooth="yes"/>
      <point x="221" y="317"/>
      <point x="222" y="319"/>
      <point x="228" y="325" type="curve" smooth="yes"/>
      <point x="231" y="328"/>
      <point x="234" y="332"/>
      <point x="235" y="334" type="curve" smooth="yes"/>
      <point x="238" y="338"/>
      <point x="242" y="342"/>
      <point x="252" y="352" type="curve" smooth="yes"/>
      <point x="259" y="360"/>
      <point x="260" y="360"/>
      <point x="260" y="348" type="curve" smooth="yes"/>
      <point x="260" y="344"/>
      <point x="260" y="333"/>
      <point x="260" y="323" type="curve" smooth="yes"/>
      <point x="260" y="313"/>
      <point x="260" y="305"/>
      <point x="259" y="304" type="curve" smooth="yes"/>
      <point x="259" y="304"/>
      <point x="259" y="285"/>
      <point x="258" y="263" type="curve" smooth="yes"/>
      <point x="258" y="241"/>
      <point x="258" y="221"/>
      <point x="257" y="219" type="curve" smooth="yes"/>
      <point x="256" y="208"/>
      <point x="255" y="197"/>
      <point x="254" y="196" type="curve" smooth="yes"/>
      <point x="253" y="194"/>
      <point x="256" y="183"/>
      <point x="259" y="181" type="curve"/>
      <point x="261" y="178"/>
      <point x="266" y="178"/>
      <point x="269" y="180" type="curve" smooth="yes"/>
      <point x="269" y="181"/>
      <point x="271" y="181"/>
      <point x="273" y="181" type="curve" smooth="yes"/>
      <point x="277" y="180"/>
      <point x="284" y="183"/>
      <point x="286" y="186" type="curve" smooth="yes"/>
      <point x="287" y="189"/>
      <point x="288" y="204"/>
      <point x="289" y="250" type="curve" smooth="yes"/>
      <point x="290" y="265"/>
      <point x="290" y="277"/>
      <point x="291" y="277" type="curve"/>
      <point x="291" y="278"/>
      <point x="292" y="304"/>
      <point x="292" y="340" type="curve"/>
      <point x="293" y="355"/>
      <point x="293" y="371"/>
      <point x="294" y="377" type="curve" smooth="yes"/>
      <point x="295" y="394"/>
      <point x="295" y="430"/>
      <point x="294" y="431" type="curve" smooth="yes"/>
      <point x="292" y="432"/>
      <point x="284" y="434"/>
      <point x="283" y="434" type="curve" smooth="yes"/>
      <point x="282" y="433"/>
      <point x="279" y="434"/>
      <point x="277" y="434" type="curve" smooth="yes"/>
      <point x="271" y="435"/>
      <point x="265" y="431"/>
      <point x="263" y="425" type="curve" smooth="yes"/>
      <point x="263" y="422"/>
      <point x="261" y="419"/>
      <point x="258" y="416" type="curve" smooth="yes"/>
      <point x="255" y="413"/>
      <point x="253" y="411"/>
      <point x="253" y="410" type="curve" smooth="yes"/>
      <point x="254" y="409"/>
      <point x="249" y="402"/>
      <point x="242" y="395" type="curve" smooth="yes"/>
      <point x="239" y="391"/>
      <point x="236" y="388"/>
      <point x="236" y="388" type="curve" smooth="yes"/>
      <point x="236" y="387"/>
      <point x="234" y="386"/>
      <point x="233" y="384" type="curve" smooth="yes"/>
      <point x="231" y="382"/>
      <point x="227" y="377"/>
      <point x="223" y="373" type="curve" smooth="yes"/>
      <point x="220" y="369"/>
      <point x="215" y="363"/>
      <point x="211" y="360" type="curve"/>
      <point x="205" y="353"/>
      <point x="204" y="352"/>
      <point x="198" y="343" type="curve" smooth="yes"/>
      <point x="197" y="341"/>
      <point x="194" y="337"/>
      <point x="192" y="336" type="curve" smooth="yes"/>
      <point x="189" y="334"/>
      <point x="183" y="327"/>
      <point x="180" y="320" type="curve" smooth="yes"/>
      <point x="178" y="316"/>
      <point x="162" y="301"/>
      <point x="160" y="301" type="curve" smooth="yes"/>
      <point x="159" y="301"/>
      <point x="157" y="303"/>
      <point x="156" y="305" type="curve" smooth="yes"/>
      <point x="155" y="307"/>
      <point x="151" y="311"/>
      <point x="148" y="314" type="curve" smooth="yes"/>
      <point x="145" y="317"/>
      <point x="142" y="320"/>
      <point x="141" y="321" type="curve" smooth="yes"/>
      <point x="141" y="322"/>
      <point x="138" y="327"/>
      <point x="135" y="331" type="curve" smooth="yes"/>
      <point x="131" y="336"/>
      <point x="127" y="342"/>
      <point x="125" y="346" type="curve" smooth="yes"/>
      <point x="121" y="351"/>
      <point x="114" y="360"/>
      <point x="108" y="366" type="curve" smooth="yes"/>
      <point x="106" y="368"/>
      <point x="104" y="371"/>
      <point x="102" y="373" type="curve" smooth="yes"/>
      <point x="101" y="375"/>
      <point x="99" y="377"/>
      <point x="98" y="378" type="curve" smooth="yes"/>
      <point x="97" y="379"/>
      <point x="96" y="381"/>
      <point x="96" y="381" type="curve" smooth="yes"/>
      <point x="96" y="382"/>
      <point x="83" y="401"/>
      <point x="80" y="405" type="curve"/>
      <point x="78" y="406"/>
      <point x="77" y="409"/>
      <point x="76" y="410" type="curve" smooth="yes"/>
      <point x="75" y="412"/>
      <point x="73" y="415"/>
      <point x="63" y="432" type="curve" smooth="yes"/>
      <point x="58" y="440"/>
      <point x="56" y="441"/>
      <point x="53" y="439" type="curve"/>
      <point x="53" y="439"/>
      <point x="52" y="437"/>
    </contour>
  </outline>
</glyph>
<glyph name="uni004E" format="1">
  <advance width="331"/>
  <unicode hex="004E"/>
  <outline>
    <contour>
      <point x="268" y="426" type="curve" smooth="yes"/>
      <point x="268" y="424"/>
      <point x="267" y="420"/>
      <point x="266" y="418" type="curve" smooth="yes"/>
      <point x="265" y="414"/>
      <point x="263" y="400"/>
      <point x="262" y="382" type="curve" smooth="yes"/>
      <point x="262" y="378"/>
      <point x="261" y="373"/>
      <point x="261" y="370" type="curve" smooth="yes"/>
      <point x="260" y="365"/>
      <point x="259" y="346"/>
      <point x="260" y="333" type="curve" smooth="yes"/>
      <point x="260" y="332"/>
      <point x="260" y="329"/>
      <point x="260" y="328" type="curve" smooth="yes"/>
      <point x="259" y="327"/>
      <point x="260" y="319"/>
      <point x="260" y="312" type="curve" smooth="yes"/>
      <point x="260" y="303"/>
      <point x="260" y="295"/>
      <point x="259" y="288" type="curve" smooth="yes"/>
      <point x="259" y="281"/>
      <point x="258" y="267"/>
      <point x="258" y="255" type="curve" smooth="yes"/>
      <point x="258" y="232"/>
      <point x="258" y="231"/>
      <point x="253" y="238" type="curve" smooth="yes"/>
      <point x="251" y="240"/>
      <point x="248" y="243"/>
      <point x="246" y="244" type="curve" smooth="yes"/>
      <point x="245" y="244"/>
      <point x="243" y="247"/>
      <point x="242" y="249" type="curve" smooth="yes"/>
      <point x="240" y="252"/>
      <point x="232" y="265"/>
      <point x="231" y="266" type="curve" smooth="yes"/>
      <point x="230" y="266"/>
      <point x="225" y="274"/>
      <point x="221" y="280" type="curve" smooth="yes"/>
      <point x="221" y="281"/>
      <point x="219" y="284"/>
      <point x="217" y="286" type="curve" smooth="yes"/>
      <point x="215" y="289"/>
      <point x="206" y="300"/>
      <point x="196" y="310" type="curve" smooth="yes"/>
      <point x="185" y="321"/>
      <point x="176" y="331"/>
      <point x="175" y="332" type="curve"/>
      <point x="175" y="334"/>
      <point x="171" y="339"/>
      <point x="167" y="344" type="curve" smooth="yes"/>
      <point x="163" y="348"/>
      <point x="158" y="353"/>
      <point x="156" y="356" type="curve" smooth="yes"/>
      <point x="154" y="358"/>
      <point x="145" y="368"/>
      <point x="136" y="377" type="curve" smooth="yes"/>
      <point x="127" y="386"/>
      <point x="118" y="396"/>
      <point x="116" y="398" type="curve" smooth="yes"/>
      <point x="113" y="403"/>
      <point x="108" y="410"/>
      <point x="107" y="411" type="curve" smooth="yes"/>
      <point x="104" y="413"/>
      <point x="102" y="418"/>
      <point x="102" y="420" type="curve" smooth="yes"/>
      <point x="102" y="422"/>
      <point x="101" y="423"/>
      <point x="101" y="424" type="curve"/>
      <point x="100" y="424"/>
      <point x="99" y="426"/>
      <point x="97" y="429" type="curve" smooth="yes"/>
      <point x="94" y="435"/>
      <point x="92" y="436"/>
      <point x="78" y="436" type="curve" smooth="yes"/>
      <point x="63" y="436"/>
      <point x="58" y="433"/>
      <point x="58" y="425" type="curve" smooth="yes"/>
      <point x="58" y="416"/>
      <point x="58" y="399"/>
      <point x="58" y="393" type="curve" smooth="yes"/>
      <point x="58" y="389"/>
      <point x="59" y="381"/>
      <point x="60" y="374" type="curve" smooth="yes"/>
      <point x="61" y="361"/>
      <point x="61" y="359"/>
      <point x="60" y="320" type="curve" smooth="yes"/>
      <point x="60" y="292"/>
      <point x="59" y="280"/>
      <point x="58" y="269" type="curve" smooth="yes"/>
      <point x="57" y="262"/>
      <point x="55" y="242"/>
      <point x="54" y="218" type="curve" smooth="yes"/>
      <point x="54" y="214"/>
      <point x="53" y="208"/>
      <point x="52" y="204" type="curve" smooth="yes"/>
      <point x="48" y="188"/>
      <point x="50" y="175"/>
      <point x="57" y="177" type="curve" smooth="yes"/>
      <point x="58" y="177"/>
      <point x="63" y="177"/>
      <point x="69" y="178" type="curve"/>
      <point x="86" y="178"/>
      <point x="90" y="180"/>
      <point x="88" y="187" type="curve" smooth="yes"/>
      <point x="88" y="189"/>
      <point x="88" y="192"/>
      <point x="89" y="194" type="curve" smooth="yes"/>
      <point x="90" y="196"/>
      <point x="91" y="199"/>
      <point x="91" y="201" type="curve" smooth="yes"/>
      <point x="91" y="203"/>
      <point x="91" y="209"/>
      <point x="92" y="215" type="curve" smooth="yes"/>
      <point x="93" y="220"/>
      <point x="94" y="226"/>
      <point x="94" y="227" type="curve" smooth="yes"/>
      <point x="93" y="233"/>
      <point x="95" y="261"/>
      <point x="96" y="266" type="curve" smooth="yes"/>
      <point x="97" y="273"/>
      <point x="98" y="295"/>
      <point x="98" y="311" type="curve" smooth="yes"/>
      <point x="98" y="330"/>
      <point x="100" y="352"/>
      <point x="102" y="352" type="curve" smooth="yes"/>
      <point x="104" y="352"/>
      <point x="110" y="348"/>
      <point x="114" y="342" type="curve" smooth="yes"/>
      <point x="116" y="339"/>
      <point x="121" y="334"/>
      <point x="124" y="331" type="curve" smooth="yes"/>
      <point x="127" y="329"/>
      <point x="130" y="325"/>
      <point x="131" y="323" type="curve" smooth="yes"/>
      <point x="132" y="322"/>
      <point x="134" y="318"/>
      <point x="137" y="316" type="curve"/>
      <point x="139" y="313"/>
      <point x="143" y="308"/>
      <point x="145" y="305" type="curve" smooth="yes"/>
      <point x="148" y="301"/>
      <point x="151" y="296"/>
      <point x="152" y="295" type="curve" smooth="yes"/>
      <point x="154" y="294"/>
      <point x="156" y="292"/>
      <point x="156" y="291" type="curve" smooth="yes"/>
      <point x="157" y="290"/>
      <point x="160" y="287"/>
      <point x="163" y="285" type="curve" smooth="yes"/>
      <point x="166" y="283"/>
      <point x="169" y="280"/>
      <point x="169" y="279" type="curve" smooth="yes"/>
      <point x="170" y="278"/>
      <point x="172" y="276"/>
      <point x="174" y="274" type="curve" smooth="yes"/>
      <point x="179" y="268"/>
      <point x="182" y="263"/>
      <point x="182" y="262" type="curve" smooth="yes"/>
      <point x="182" y="261"/>
      <point x="183" y="260"/>
      <point x="184" y="260" type="curve" smooth="yes"/>
      <point x="186" y="260"/>
      <point x="187" y="259"/>
      <point x="188" y="257" type="curve" smooth="yes"/>
      <point x="189" y="255"/>
      <point x="192" y="252"/>
      <point x="195" y="250" type="curve" smooth="yes"/>
      <point x="198" y="247"/>
      <point x="201" y="243"/>
      <point x="202" y="240" type="curve"/>
      <point x="204" y="238"/>
      <point x="207" y="233"/>
      <point x="210" y="229" type="curve" smooth="yes"/>
      <point x="213" y="226"/>
      <point x="217" y="221"/>
      <point x="219" y="218" type="curve"/>
      <point x="220" y="214"/>
      <point x="224" y="209"/>
      <point x="226" y="206" type="curve" smooth="yes"/>
      <point x="229" y="202"/>
      <point x="233" y="197"/>
      <point x="235" y="195" type="curve"/>
      <point x="236" y="192"/>
      <point x="239" y="189"/>
      <point x="241" y="188" type="curve" smooth="yes"/>
      <point x="242" y="187"/>
      <point x="247" y="182"/>
      <point x="250" y="177" type="curve" smooth="yes"/>
      <point x="260" y="163"/>
      <point x="265" y="160"/>
      <point x="270" y="165" type="curve" smooth="yes"/>
      <point x="273" y="169"/>
      <point x="276" y="169"/>
      <point x="284" y="170" type="curve"/>
      <point x="294" y="170"/>
      <point x="294" y="170"/>
      <point x="294" y="189" type="curve" smooth="yes"/>
      <point x="294" y="198"/>
      <point x="295" y="208"/>
      <point x="296" y="213" type="curve" smooth="yes"/>
      <point x="297" y="220"/>
      <point x="297" y="239"/>
      <point x="296" y="268" type="curve" smooth="yes"/>
      <point x="296" y="272"/>
      <point x="297" y="282"/>
      <point x="298" y="289" type="curve" smooth="yes"/>
      <point x="299" y="298"/>
      <point x="299" y="306"/>
      <point x="298" y="315" type="curve" smooth="yes"/>
      <point x="297" y="335"/>
      <point x="297" y="358"/>
      <point x="298" y="365" type="curve" smooth="yes"/>
      <point x="299" y="373"/>
      <point x="301" y="394"/>
      <point x="303" y="406" type="curve" smooth="yes"/>
      <point x="303" y="411"/>
      <point x="304" y="418"/>
      <point x="305" y="421" type="curve" smooth="yes"/>
      <point x="308" y="430"/>
      <point x="307" y="436"/>
      <point x="304" y="436" type="curve"/>
      <point x="302" y="437"/>
      <point x="299" y="437"/>
      <point x="297" y="438" type="curve" smooth="yes"/>
      <point x="291" y="439"/>
      <point x="282" y="439"/>
      <point x="278" y="438" type="curve" smooth="yes"/>
      <point x="273" y="436"/>
      <point x="269" y="431"/>
    </contour>
    <contour>
      <point x="25" y="419" type="curve" smooth="yes"/>
      <point x="26" y="421"/>
      <point x="26" y="423"/>
      <point x="25" y="425" type="curve" smooth="yes"/>
      <point x="25" y="427"/>
      <point x="25" y="426"/>
      <point x="25" y="422" type="curve" smooth="yes"/>
      <point x="25" y="418"/>
      <point x="25" y="417"/>
    </contour>
  </outline>
</glyph>
<glyph name="uni004F" format="1">
  <advance width="298"/>
  <unicode hex="004F"/>
  <outline>
    <contour>
      <point x="149" y="453" type="curve" smooth="yes"/>
      <point x="144" y="452"/>
      <point x="139" y="451"/>
      <point x="138" y="450" type="curve" smooth="yes"/>
      <point x="137" y="450"/>
      <point x="135" y="449"/>
      <point x="133" y="449" type="curve" smooth="yes"/>
      <point x="132" y="449"/>
      <point x="130" y="448"/>
      <point x="129" y="448" type="curve" smooth="yes"/>
      <point x="128" y="447"/>
      <point x="124" y="444"/>
      <point x="119" y="442" type="curve" smooth="yes"/>
      <point x="115" y="440"/>
      <point x="110" y="437"/>
      <point x="109" y="436" type="curve" smooth="yes"/>
      <point x="108" y="435"/>
      <point x="106" y="434"/>
      <point x="104" y="433" type="curve" smooth="yes"/>
      <point x="96" y="429"/>
      <point x="76" y="402"/>
      <point x="72" y="392" type="curve" smooth="yes"/>
      <point x="71" y="390"/>
      <point x="69" y="384"/>
      <point x="67" y="380" type="curve" smooth="yes"/>
      <point x="64" y="376"/>
      <point x="63" y="371"/>
      <point x="63" y="370" type="curve" smooth="yes"/>
      <point x="63" y="369"/>
      <point x="59" y="359"/>
      <point x="55" y="353" type="curve" smooth="yes"/>
      <point x="54" y="351"/>
      <point x="53" y="348"/>
      <point x="53" y="346" type="curve" smooth="yes"/>
      <point x="52" y="343"/>
      <point x="51" y="339"/>
      <point x="51" y="336" type="curve" smooth="yes"/>
      <point x="48" y="321"/>
      <point x="51" y="277"/>
      <point x="55" y="271" type="curve" smooth="yes"/>
      <point x="56" y="269"/>
      <point x="57" y="268"/>
      <point x="57" y="267" type="curve" smooth="yes"/>
      <point x="57" y="265"/>
      <point x="58" y="262"/>
      <point x="59" y="260" type="curve" smooth="yes"/>
      <point x="61" y="257"/>
      <point x="62" y="253"/>
      <point x="62" y="250" type="curve" smooth="yes"/>
      <point x="62" y="248"/>
      <point x="62" y="246"/>
      <point x="63" y="244" type="curve" smooth="yes"/>
      <point x="64" y="243"/>
      <point x="65" y="240"/>
      <point x="66" y="237" type="curve" smooth="yes"/>
      <point x="67" y="231"/>
      <point x="69" y="228"/>
      <point x="78" y="218" type="curve" smooth="yes"/>
      <point x="82" y="213"/>
      <point x="85" y="209"/>
      <point x="85" y="208" type="curve" smooth="yes"/>
      <point x="85" y="207"/>
      <point x="88" y="204"/>
      <point x="98" y="199" type="curve" smooth="yes"/>
      <point x="103" y="196"/>
      <point x="110" y="192"/>
      <point x="114" y="189" type="curve" smooth="yes"/>
      <point x="117" y="187"/>
      <point x="121" y="185"/>
      <point x="122" y="185" type="curve" smooth="yes"/>
      <point x="123" y="185"/>
      <point x="126" y="184"/>
      <point x="127" y="183" type="curve" smooth="yes"/>
      <point x="128" y="182"/>
      <point x="130" y="181"/>
      <point x="131" y="181" type="curve" smooth="yes"/>
      <point x="131" y="181"/>
      <point x="133" y="180"/>
      <point x="135" y="179" type="curve" smooth="yes"/>
      <point x="141" y="177"/>
      <point x="142" y="176"/>
      <point x="151" y="174" type="curve" smooth="yes"/>
      <point x="164" y="170"/>
      <point x="168" y="170"/>
      <point x="171" y="171" type="curve" smooth="yes"/>
      <point x="173" y="171"/>
      <point x="176" y="172"/>
      <point x="179" y="172" type="curve"/>
      <point x="181" y="171"/>
      <point x="184" y="172"/>
      <point x="186" y="172" type="curve" smooth="yes"/>
      <point x="188" y="173"/>
      <point x="190" y="173"/>
      <point x="192" y="172" type="curve" smooth="yes"/>
      <point x="194" y="171"/>
      <point x="196" y="172"/>
      <point x="200" y="173" type="curve" smooth="yes"/>
      <point x="203" y="174"/>
      <point x="206" y="175"/>
      <point x="207" y="175" type="curve" smooth="yes"/>
      <point x="215" y="175"/>
      <point x="235" y="191"/>
      <point x="242" y="202" type="curve" smooth="yes"/>
      <point x="246" y="208"/>
      <point x="251" y="217"/>
      <point x="251" y="219" type="curve"/>
      <point x="251" y="219"/>
      <point x="252" y="222"/>
      <point x="254" y="224" type="curve" smooth="yes"/>
      <point x="255" y="226"/>
      <point x="257" y="229"/>
      <point x="257" y="229" type="curve" smooth="yes"/>
      <point x="257" y="230"/>
      <point x="258" y="232"/>
      <point x="259" y="235" type="curve" smooth="yes"/>
      <point x="260" y="237"/>
      <point x="261" y="240"/>
      <point x="261" y="240" type="curve" smooth="yes"/>
      <point x="261" y="242"/>
      <point x="261" y="243"/>
      <point x="264" y="249" type="curve" smooth="yes"/>
      <point x="267" y="254"/>
      <point x="270" y="263"/>
      <point x="270" y="267" type="curve" smooth="yes"/>
      <point x="270" y="268"/>
      <point x="270" y="272"/>
      <point x="271" y="275" type="curve" smooth="yes"/>
      <point x="273" y="282"/>
      <point x="275" y="291"/>
      <point x="274" y="292" type="curve" smooth="yes"/>
      <point x="274" y="293"/>
      <point x="274" y="296"/>
      <point x="275" y="299" type="curve" smooth="yes"/>
      <point x="276" y="302"/>
      <point x="276" y="306"/>
      <point x="276" y="311" type="curve" smooth="yes"/>
      <point x="276" y="314"/>
      <point x="276" y="324"/>
      <point x="276" y="331" type="curve" smooth="yes"/>
      <point x="276" y="339"/>
      <point x="275" y="346"/>
      <point x="275" y="347" type="curve" smooth="yes"/>
      <point x="274" y="348"/>
      <point x="274" y="352"/>
      <point x="273" y="356" type="curve"/>
      <point x="273" y="362"/>
      <point x="271" y="371"/>
      <point x="267" y="381" type="curve" smooth="yes"/>
      <point x="266" y="383"/>
      <point x="266" y="386"/>
      <point x="266" y="387" type="curve" smooth="yes"/>
      <point x="266" y="389"/>
      <point x="264" y="393"/>
      <point x="263" y="397" type="curve"/>
      <point x="261" y="400"/>
      <point x="260" y="403"/>
      <point x="260" y="404" type="curve" smooth="yes"/>
      <point x="260" y="406"/>
      <point x="237" y="429"/>
      <point x="236" y="429" type="curve" smooth="yes"/>
      <point x="235" y="429"/>
      <point x="233" y="431"/>
      <point x="231" y="433" type="curve" smooth="yes"/>
      <point x="227" y="437"/>
      <point x="217" y="443"/>
      <point x="214" y="443" type="curve" smooth="yes"/>
      <point x="213" y="443"/>
      <point x="212" y="443"/>
      <point x="211" y="444" type="curve" smooth="yes"/>
      <point x="209" y="446"/>
      <point x="190" y="453"/>
      <point x="183" y="454" type="curve" smooth="yes"/>
      <point x="176" y="456"/>
      <point x="164" y="456"/>
      <point x="161" y="455" type="curve" smooth="yes"/>
      <point x="160" y="454"/>
      <point x="154" y="454"/>
    </contour>
    <contour>
      <point x="183" y="409" type="curve" smooth="yes"/>
      <point x="187" y="408"/>
      <point x="191" y="407"/>
      <point x="192" y="407" type="curve" smooth="yes"/>
      <point x="193" y="407"/>
      <point x="214" y="395"/>
      <point x="216" y="393" type="curve" smooth="yes"/>
      <point x="217" y="392"/>
      <point x="220" y="391"/>
      <point x="221" y="390" type="curve" smooth="yes"/>
      <point x="229" y="386"/>
      <point x="243" y="367"/>
      <point x="243" y="361" type="curve" smooth="yes"/>
      <point x="243" y="360"/>
      <point x="243" y="359"/>
      <point x="244" y="358" type="curve" smooth="yes"/>
      <point x="246" y="355"/>
      <point x="248" y="345"/>
      <point x="248" y="337" type="curve"/>
      <point x="249" y="333"/>
      <point x="249" y="329"/>
      <point x="250" y="329" type="curve" smooth="yes"/>
      <point x="251" y="327"/>
      <point x="253" y="306"/>
      <point x="253" y="295" type="curve" smooth="yes"/>
      <point x="253" y="286"/>
      <point x="251" y="273"/>
      <point x="250" y="270" type="curve" smooth="yes"/>
      <point x="249" y="269"/>
      <point x="249" y="266"/>
      <point x="249" y="265" type="curve" smooth="yes"/>
      <point x="249" y="264"/>
      <point x="248" y="261"/>
      <point x="247" y="259" type="curve" smooth="yes"/>
      <point x="246" y="257"/>
      <point x="245" y="254"/>
      <point x="245" y="253" type="curve" smooth="yes"/>
      <point x="245" y="252"/>
      <point x="244" y="249"/>
      <point x="242" y="247" type="curve"/>
      <point x="241" y="244"/>
      <point x="238" y="239"/>
      <point x="236" y="235" type="curve" smooth="yes"/>
      <point x="229" y="222"/>
      <point x="223" y="217"/>
      <point x="214" y="215" type="curve" smooth="yes"/>
      <point x="211" y="215"/>
      <point x="208" y="214"/>
      <point x="208" y="213" type="curve" smooth="yes"/>
      <point x="205" y="211"/>
      <point x="184" y="211"/>
      <point x="176" y="212" type="curve" smooth="yes"/>
      <point x="162" y="214"/>
      <point x="152" y="217"/>
      <point x="140" y="223" type="curve" smooth="yes"/>
      <point x="134" y="226"/>
      <point x="129" y="228"/>
      <point x="129" y="228" type="curve" smooth="yes"/>
      <point x="128" y="228"/>
      <point x="127" y="229"/>
      <point x="125" y="230" type="curve" smooth="yes"/>
      <point x="123" y="232"/>
      <point x="120" y="233"/>
      <point x="118" y="234" type="curve" smooth="yes"/>
      <point x="113" y="237"/>
      <point x="103" y="246"/>
      <point x="103" y="248" type="curve"/>
      <point x="103" y="248"/>
      <point x="102" y="249"/>
      <point x="101" y="249" type="curve" smooth="yes"/>
      <point x="100" y="249"/>
      <point x="99" y="250"/>
      <point x="98" y="252" type="curve" smooth="yes"/>
      <point x="97" y="253"/>
      <point x="95" y="256"/>
      <point x="94" y="258" type="curve" smooth="yes"/>
      <point x="91" y="261"/>
      <point x="84" y="276"/>
      <point x="83" y="282" type="curve" smooth="yes"/>
      <point x="83" y="284"/>
      <point x="82" y="287"/>
      <point x="81" y="289" type="curve" smooth="yes"/>
      <point x="80" y="291"/>
      <point x="78" y="296"/>
      <point x="77" y="300" type="curve" smooth="yes"/>
      <point x="76" y="303"/>
      <point x="75" y="309"/>
      <point x="73" y="313" type="curve" smooth="yes"/>
      <point x="72" y="317"/>
      <point x="71" y="321"/>
      <point x="71" y="333" type="curve" smooth="yes"/>
      <point x="71" y="347"/>
      <point x="71" y="347"/>
      <point x="78" y="361" type="curve" smooth="yes"/>
      <point x="81" y="366"/>
      <point x="83" y="370"/>
      <point x="85" y="374" type="curve" smooth="yes"/>
      <point x="86" y="377"/>
      <point x="88" y="380"/>
      <point x="89" y="381" type="curve" smooth="yes"/>
      <point x="96" y="385"/>
      <point x="103" y="389"/>
      <point x="103" y="390" type="curve" smooth="yes"/>
      <point x="103" y="392"/>
      <point x="115" y="404"/>
      <point x="118" y="404" type="curve" smooth="yes"/>
      <point x="120" y="404"/>
      <point x="121" y="405"/>
      <point x="123" y="408" type="curve" smooth="yes"/>
      <point x="126" y="412"/>
      <point x="126" y="412"/>
      <point x="140" y="413" type="curve" smooth="yes"/>
      <point x="157" y="414"/>
      <point x="163" y="414"/>
      <point x="170" y="413" type="curve" smooth="yes"/>
      <point x="173" y="412"/>
      <point x="179" y="411"/>
    </contour>
    <contour>
      <point x="23" y="431" type="curve" smooth="yes"/>
      <point x="24" y="432"/>
      <point x="24" y="434"/>
      <point x="23" y="434" type="curve"/>
      <point x="23" y="435"/>
      <point x="23" y="434"/>
      <point x="23" y="433" type="curve" smooth="yes"/>
      <point x="23" y="431"/>
      <point x="23" y="430"/>
    </contour>
  </outline>
</glyph>
<glyph name="uni0050" format="1">
  <advance width="263"/>
  <unicode hex="0050"/>
  <outline>
    <contour>
      <point x="23" y="413" type="line" smooth="yes"/>
      <point x="28" y="401" type="line" smooth="yes"/>
      <point x="31" y="390" type="line" smooth="yes"/>
      <point x="29" y="380" type="line" smooth="yes"/>
      <point x="28" y="367" type="line" smooth="yes"/>
      <point x="27" y="356" type="line" smooth="yes"/>
      <point x="27" y="350" type="line" smooth="yes"/>
      <point x="27" y="344" type="line" smooth="yes"/>
      <point x="26" y="330" type="line" smooth="yes"/>
      <point x="24" y="310" type="line" smooth="yes"/>
      <point x="23" y="297" type="line" smooth="yes"/>
      <point x="23" y="288" type="line"/>
      <point x="23" y="270" type="line" smooth="yes"/>
      <point x="23" y="251" type="line" smooth="yes"/>
      <point x="23" y="242" type="line"/>
      <point x="22" y="216" type="line" smooth="yes"/>
      <point x="21" y="186" type="line" smooth="yes"/>
      <point x="24" y="177" type="line" smooth="yes"/>
      <point x="36" y="174" type="line"/>
      <point x="50" y="173" type="line" smooth="yes"/>
      <point x="59" y="179" type="line"/>
      <point x="61" y="183" type="line" smooth="yes"/>
      <point x="62" y="204" type="line" smooth="yes"/>
      <point x="66" y="242" type="line" smooth="yes"/>
      <point x="117" y="245" type="line" smooth="yes"/>
      <point x="151" y="249" type="line" smooth="yes"/>
      <point x="158" y="250" type="line" smooth="yes"/>
      <point x="183" y="260" type="line" smooth="yes"/>
      <point x="205" y="270" type="line" smooth="yes"/>
      <point x="212" y="276" type="line" smooth="yes"/>
      <point x="221" y="283" type="line" smooth="yes"/>
      <point x="231" y="302" type="line" smooth="yes"/>
      <point x="233" y="305" type="line" smooth="yes"/>
      <point x="241" y="333" type="line" smooth="yes"/>
      <point x="242" y="351" type="line" smooth="yes"/>
      <point x="241" y="374" type="line" smooth="yes"/>
      <point x="241" y="378" type="line" smooth="yes"/>
      <point x="240" y="391" type="line" smooth="yes"/>
      <point x="237" y="397" type="line"/>
      <point x="219" y="423" type="line" smooth="yes"/>
      <point x="201" y="433" type="line"/>
      <point x="198" y="434" type="line"/>
      <point x="192" y="436" type="line"/>
      <point x="185" y="439" type="line" smooth="yes"/>
      <point x="170" y="442" type="line" smooth="yes"/>
      <point x="155" y="444" type="line" smooth="yes"/>
      <point x="145" y="444" type="line" smooth="yes"/>
      <point x="131" y="444" type="line" smooth="yes"/>
      <point x="109" y="444" type="line" smooth="yes"/>
      <point x="69" y="444" type="line" smooth="yes"/>
      <point x="34" y="444" type="line"/>
    </contour>
    <contour>
      <point x="144" y="400" type="line" smooth="yes"/>
      <point x="149" y="400" type="line"/>
      <point x="154" y="399" type="line" smooth="yes"/>
      <point x="164" y="397" type="line" smooth="yes"/>
      <point x="172" y="395" type="line" smooth="yes"/>
      <point x="191" y="388" type="line" smooth="yes"/>
      <point x="200" y="384" type="line" smooth="yes"/>
      <point x="211" y="372" type="line"/>
      <point x="215" y="366" type="line" smooth="yes"/>
      <point x="220" y="358" type="line"/>
      <point x="219" y="326" type="line" smooth="yes"/>
      <point x="190" y="301" type="line" smooth="yes"/>
      <point x="184" y="298" type="line" smooth="yes"/>
      <point x="172" y="292" type="line" smooth="yes"/>
      <point x="163" y="289" type="line" smooth="yes"/>
      <point x="158" y="288" type="line" smooth="yes"/>
      <point x="153" y="287" type="line" smooth="yes"/>
      <point x="139" y="285" type="line"/>
      <point x="125" y="283" type="line" smooth="yes"/>
      <point x="106" y="284" type="line" smooth="yes"/>
      <point x="86" y="285" type="line" smooth="yes"/>
      <point x="65" y="300" type="line" smooth="yes"/>
      <point x="66" y="320" type="line" smooth="yes"/>
      <point x="70" y="387" type="line" smooth="yes"/>
      <point x="78" y="401" type="line" smooth="yes"/>
      <point x="109" y="402" type="line" smooth="yes"/>
      <point x="119" y="402" type="line"/>
      <point x="131" y="400" type="line"/>
    </contour>
  </outline>
</glyph>
<glyph name="uni0051" format="1">
  <advance width="259"/>
  <unicode hex="0051"/>
  <outline>
    <contour>
      <point x="93" y="445" type="curve"/>
      <point x="86" y="445"/>
      <point x="76" y="440"/>
      <point x="69" y="433" type="curve" smooth="yes"/>
      <point x="57" y="423"/>
      <point x="56" y="421"/>
      <point x="54" y="417" type="curve" smooth="yes"/>
      <point x="47" y="403"/>
      <point x="45" y="398"/>
      <point x="42" y="394" type="curve" smooth="yes"/>
      <point x="40" y="392"/>
      <point x="39" y="389"/>
      <point x="39" y="388" type="curve" smooth="yes"/>
      <point x="39" y="387"/>
      <point x="38" y="385"/>
      <point x="36" y="383" type="curve" smooth="yes"/>
      <point x="35" y="381"/>
      <point x="33" y="378"/>
      <point x="33" y="377" type="curve" smooth="yes"/>
      <point x="32" y="375"/>
      <point x="31" y="373"/>
      <point x="31" y="372" type="curve" smooth="yes"/>
      <point x="30" y="370"/>
      <point x="29" y="367"/>
      <point x="28" y="364" type="curve" smooth="yes"/>
      <point x="27" y="360"/>
      <point x="26" y="356"/>
      <point x="25" y="355" type="curve" smooth="yes"/>
      <point x="24" y="353"/>
      <point x="24" y="351"/>
      <point x="24" y="351" type="curve"/>
      <point x="25" y="350"/>
      <point x="24" y="345"/>
      <point x="23" y="341" type="curve" smooth="yes"/>
      <point x="20" y="324"/>
      <point x="19" y="286"/>
      <point x="22" y="278" type="curve" smooth="yes"/>
      <point x="22" y="276"/>
      <point x="23" y="272"/>
      <point x="23" y="268" type="curve" smooth="yes"/>
      <point x="23" y="264"/>
      <point x="24" y="259"/>
      <point x="25" y="256" type="curve" smooth="yes"/>
      <point x="26" y="253"/>
      <point x="27" y="249"/>
      <point x="28" y="246" type="curve" smooth="yes"/>
      <point x="29" y="243"/>
      <point x="31" y="240"/>
      <point x="31" y="239" type="curve" smooth="yes"/>
      <point x="32" y="237"/>
      <point x="33" y="234"/>
      <point x="34" y="232" type="curve"/>
      <point x="34" y="229"/>
      <point x="37" y="225"/>
      <point x="40" y="222" type="curve" smooth="yes"/>
      <point x="43" y="219"/>
      <point x="46" y="215"/>
      <point x="47" y="213" type="curve" smooth="yes"/>
      <point x="49" y="210"/>
      <point x="52" y="207"/>
      <point x="61" y="198" type="curve" smooth="yes"/>
      <point x="63" y="196"/>
      <point x="66" y="194"/>
      <point x="67" y="192" type="curve" smooth="yes"/>
      <point x="71" y="188"/>
      <point x="81" y="181"/>
      <point x="84" y="181" type="curve" smooth="yes"/>
      <point x="85" y="181"/>
      <point x="87" y="180"/>
      <point x="90" y="179" type="curve" smooth="yes"/>
      <point x="99" y="174"/>
      <point x="105" y="173"/>
      <point x="121" y="173" type="curve" smooth="yes"/>
      <point x="136" y="173"/>
      <point x="150" y="174"/>
      <point x="156" y="177" type="curve" smooth="yes"/>
      <point x="167" y="182"/>
      <point x="172" y="181"/>
      <point x="177" y="172" type="curve" smooth="yes"/>
      <point x="179" y="169"/>
      <point x="182" y="166"/>
      <point x="184" y="165" type="curve" smooth="yes"/>
      <point x="185" y="164"/>
      <point x="187" y="161"/>
      <point x="188" y="159" type="curve" smooth="yes"/>
      <point x="193" y="151"/>
      <point x="196" y="147"/>
      <point x="198" y="147" type="curve"/>
      <point x="199" y="146"/>
      <point x="200" y="145"/>
      <point x="200" y="144" type="curve" smooth="yes"/>
      <point x="202" y="139"/>
      <point x="203" y="137"/>
      <point x="206" y="133" type="curve" smooth="yes"/>
      <point x="208" y="131"/>
      <point x="210" y="129"/>
      <point x="210" y="129" type="curve"/>
      <point x="210" y="127"/>
      <point x="212" y="128"/>
      <point x="216" y="130" type="curve" smooth="yes"/>
      <point x="220" y="132"/>
      <point x="221" y="133"/>
      <point x="225" y="140" type="curve" smooth="yes"/>
      <point x="227" y="145"/>
      <point x="229" y="149"/>
      <point x="230" y="150" type="curve" smooth="yes"/>
      <point x="232" y="152"/>
      <point x="235" y="161"/>
      <point x="234" y="164" type="curve" smooth="yes"/>
      <point x="234" y="165"/>
      <point x="232" y="169"/>
      <point x="230" y="171" type="curve" smooth="yes"/>
      <point x="228" y="173"/>
      <point x="226" y="177"/>
      <point x="225" y="180" type="curve" smooth="yes"/>
      <point x="223" y="184"/>
      <point x="219" y="190"/>
      <point x="210" y="200" type="curve"/>
      <point x="204" y="209"/>
      <point x="204" y="208"/>
      <point x="210" y="216" type="curve" smooth="yes"/>
      <point x="213" y="219"/>
      <point x="216" y="225"/>
      <point x="217" y="227" type="curve" smooth="yes"/>
      <point x="219" y="232"/>
      <point x="221" y="235"/>
      <point x="227" y="242" type="curve" smooth="yes"/>
      <point x="229" y="245"/>
      <point x="231" y="249"/>
      <point x="231" y="251" type="curve" smooth="yes"/>
      <point x="232" y="254"/>
      <point x="233" y="257"/>
      <point x="234" y="259" type="curve" smooth="yes"/>
      <point x="235" y="262"/>
      <point x="236" y="267"/>
      <point x="237" y="275" type="curve" smooth="yes"/>
      <point x="237" y="281"/>
      <point x="238" y="287"/>
      <point x="239" y="288" type="curve" smooth="yes"/>
      <point x="240" y="290"/>
      <point x="239" y="313"/>
      <point x="238" y="318" type="curve" smooth="yes"/>
      <point x="237" y="321"/>
      <point x="236" y="325"/>
      <point x="237" y="328" type="curve" smooth="yes"/>
      <point x="237" y="331"/>
      <point x="236" y="336"/>
      <point x="236" y="339" type="curve"/>
      <point x="235" y="341"/>
      <point x="234" y="349"/>
      <point x="233" y="355" type="curve" smooth="yes"/>
      <point x="232" y="365"/>
      <point x="231" y="368"/>
      <point x="228" y="374" type="curve" smooth="yes"/>
      <point x="227" y="377"/>
      <point x="225" y="382"/>
      <point x="224" y="384" type="curve" smooth="yes"/>
      <point x="223" y="386"/>
      <point x="222" y="389"/>
      <point x="221" y="391" type="curve" smooth="yes"/>
      <point x="221" y="392"/>
      <point x="219" y="395"/>
      <point x="217" y="397" type="curve" smooth="yes"/>
      <point x="215" y="399"/>
      <point x="214" y="402"/>
      <point x="214" y="403" type="curve" smooth="yes"/>
      <point x="214" y="404"/>
      <point x="213" y="406"/>
      <point x="212" y="407" type="curve" smooth="yes"/>
      <point x="210" y="408"/>
      <point x="209" y="409"/>
      <point x="209" y="410" type="curve" smooth="yes"/>
      <point x="205" y="419"/>
      <point x="195" y="429"/>
      <point x="190" y="429" type="curve" smooth="yes"/>
      <point x="189" y="429"/>
      <point x="187" y="430"/>
      <point x="186" y="432" type="curve" smooth="yes"/>
      <point x="182" y="436"/>
      <point x="166" y="442"/>
      <point x="160" y="442" type="curve" smooth="yes"/>
      <point x="157" y="442"/>
      <point x="148" y="444"/>
      <point x="144" y="445" type="curve" smooth="yes"/>
      <point x="141" y="446"/>
      <point x="137" y="446"/>
      <point x="118" y="447" type="curve" smooth="yes"/>
      <point x="113" y="448"/>
      <point x="107" y="447"/>
      <point x="104" y="447" type="curve" smooth="yes"/>
      <point x="101" y="447"/>
      <point x="97" y="446"/>
    </contour>
    <contour>
      <point x="156" y="400" type="curve" smooth="yes"/>
      <point x="166" y="400"/>
      <point x="195" y="384"/>
      <point x="195" y="378" type="curve" smooth="yes"/>
      <point x="195" y="377"/>
      <point x="197" y="374"/>
      <point x="199" y="370" type="curve" smooth="yes"/>
      <point x="202" y="366"/>
      <point x="204" y="363"/>
      <point x="204" y="361" type="curve" smooth="yes"/>
      <point x="204" y="359"/>
      <point x="205" y="357"/>
      <point x="207" y="355" type="curve" smooth="yes"/>
      <point x="212" y="352"/>
      <point x="219" y="328"/>
      <point x="219" y="310" type="curve" smooth="yes"/>
      <point x="220" y="285"/>
      <point x="220" y="282"/>
      <point x="219" y="278" type="curve" smooth="yes"/>
      <point x="218" y="276"/>
      <point x="216" y="273"/>
      <point x="216" y="270" type="curve"/>
      <point x="215" y="268"/>
      <point x="213" y="265"/>
      <point x="212" y="263" type="curve"/>
      <point x="210" y="262"/>
      <point x="207" y="258"/>
      <point x="206" y="255" type="curve" smooth="yes"/>
      <point x="202" y="249"/>
      <point x="189" y="235"/>
      <point x="186" y="235" type="curve" smooth="yes"/>
      <point x="183" y="235"/>
      <point x="173" y="247"/>
      <point x="169" y="255" type="curve" smooth="yes"/>
      <point x="163" y="271"/>
      <point x="157" y="272"/>
      <point x="146" y="258" type="curve" smooth="yes"/>
      <point x="139" y="249"/>
      <point x="136" y="243"/>
      <point x="136" y="240" type="curve" smooth="yes"/>
      <point x="136" y="239"/>
      <point x="135" y="238"/>
      <point x="135" y="237" type="curve" smooth="yes"/>
      <point x="133" y="236"/>
      <point x="134" y="233"/>
      <point x="140" y="225" type="curve" smooth="yes"/>
      <point x="148" y="216"/>
      <point x="147" y="215"/>
      <point x="132" y="214" type="curve"/>
      <point x="116" y="214"/>
      <point x="97" y="218"/>
      <point x="89" y="222" type="curve" smooth="yes"/>
      <point x="87" y="223"/>
      <point x="79" y="229"/>
      <point x="77" y="231" type="curve" smooth="yes"/>
      <point x="76" y="232"/>
      <point x="73" y="235"/>
      <point x="70" y="237" type="curve" smooth="yes"/>
      <point x="64" y="240"/>
      <point x="53" y="252"/>
      <point x="53" y="254" type="curve" smooth="yes"/>
      <point x="53" y="255"/>
      <point x="51" y="258"/>
      <point x="49" y="261" type="curve" smooth="yes"/>
      <point x="47" y="264"/>
      <point x="46" y="267"/>
      <point x="46" y="268" type="curve" smooth="yes"/>
      <point x="46" y="269"/>
      <point x="45" y="271"/>
      <point x="44" y="272" type="curve" smooth="yes"/>
      <point x="43" y="276"/>
      <point x="40" y="290"/>
      <point x="39" y="303" type="curve" smooth="yes"/>
      <point x="37" y="317"/>
      <point x="41" y="342"/>
      <point x="46" y="349" type="curve"/>
      <point x="46" y="349"/>
      <point x="47" y="352"/>
      <point x="47" y="354" type="curve" smooth="yes"/>
      <point x="48" y="358"/>
      <point x="49" y="360"/>
      <point x="51" y="362" type="curve" smooth="yes"/>
      <point x="55" y="366"/>
      <point x="60" y="375"/>
      <point x="64" y="382" type="curve" smooth="yes"/>
      <point x="65" y="384"/>
      <point x="67" y="387"/>
      <point x="69" y="388" type="curve" smooth="yes"/>
      <point x="72" y="389"/>
      <point x="75" y="392"/>
      <point x="77" y="394" type="curve" smooth="yes"/>
      <point x="78" y="396"/>
      <point x="81" y="397"/>
      <point x="83" y="398" type="curve" smooth="yes"/>
      <point x="85" y="398"/>
      <point x="89" y="399"/>
      <point x="90" y="400" type="curve" smooth="yes"/>
      <point x="93" y="401"/>
      <point x="96" y="402"/>
      <point x="101" y="402" type="curve" smooth="yes"/>
      <point x="105" y="402"/>
      <point x="110" y="403"/>
      <point x="111" y="404" type="curve" smooth="yes"/>
      <point x="116" y="406"/>
      <point x="144" y="404"/>
      <point x="149" y="402" type="curve" smooth="yes"/>
      <point x="152" y="401"/>
      <point x="155" y="400"/>
    </contour>
  </outline>
</glyph>
<glyph name="uni0052" format="1">
  <advance width="285"/>
  <unicode hex="0052"/>
  <outline>
    <contour>
      <point x="89" y="450" type="curve" smooth="yes"/>
      <point x="79" y="449"/>
      <point x="68" y="447"/>
      <point x="65" y="447" type="curve" smooth="yes"/>
      <point x="61" y="446"/>
      <point x="53" y="446"/>
      <point x="47" y="446" type="curve" smooth="yes"/>
      <point x="34" y="446"/>
      <point x="34" y="446"/>
      <point x="33" y="443" type="curve" smooth="yes"/>
      <point x="33" y="442"/>
      <point x="32" y="440"/>
      <point x="31" y="439" type="curve" smooth="yes"/>
      <point x="30" y="438"/>
      <point x="29" y="436"/>
      <point x="29" y="433" type="curve" smooth="yes"/>
      <point x="29" y="431"/>
      <point x="28" y="428"/>
      <point x="27" y="426" type="curve" smooth="yes"/>
      <point x="25" y="422"/>
      <point x="24" y="412"/>
      <point x="25" y="411" type="curve" smooth="yes"/>
      <point x="27" y="409"/>
      <point x="28" y="403"/>
      <point x="28" y="395" type="curve" smooth="yes"/>
      <point x="28" y="391"/>
      <point x="28" y="387"/>
      <point x="29" y="386" type="curve" smooth="yes"/>
      <point x="29" y="385"/>
      <point x="30" y="374"/>
      <point x="30" y="362" type="curve" smooth="yes"/>
      <point x="30" y="350"/>
      <point x="31" y="337"/>
      <point x="31" y="333" type="curve" smooth="yes"/>
      <point x="31" y="329"/>
      <point x="32" y="325"/>
      <point x="32" y="323" type="curve" smooth="yes"/>
      <point x="32" y="321"/>
      <point x="32" y="319"/>
      <point x="32" y="319" type="curve"/>
      <point x="33" y="318"/>
      <point x="33" y="312"/>
      <point x="32" y="282" type="curve" smooth="yes"/>
      <point x="32" y="275"/>
      <point x="31" y="266"/>
      <point x="30" y="263" type="curve" smooth="yes"/>
      <point x="29" y="257"/>
      <point x="28" y="249"/>
      <point x="28" y="238" type="curve" smooth="yes"/>
      <point x="28" y="234"/>
      <point x="27" y="226"/>
      <point x="26" y="219" type="curve" smooth="yes"/>
      <point x="25" y="212"/>
      <point x="24" y="205"/>
      <point x="24" y="203" type="curve" smooth="yes"/>
      <point x="24" y="201"/>
      <point x="24" y="195"/>
      <point x="23" y="190" type="curve" smooth="yes"/>
      <point x="21" y="174"/>
      <point x="22" y="172"/>
      <point x="41" y="174" type="curve" smooth="yes"/>
      <point x="47" y="175"/>
      <point x="54" y="175"/>
      <point x="56" y="175" type="curve" smooth="yes"/>
      <point x="59" y="175"/>
      <point x="60" y="175"/>
      <point x="60" y="176" type="curve" smooth="yes"/>
      <point x="60" y="177"/>
      <point x="61" y="179"/>
      <point x="62" y="180" type="curve"/>
      <point x="62" y="182"/>
      <point x="63" y="184"/>
      <point x="63" y="185" type="curve" smooth="yes"/>
      <point x="62" y="186"/>
      <point x="63" y="189"/>
      <point x="63" y="191" type="curve" smooth="yes"/>
      <point x="64" y="194"/>
      <point x="64" y="202"/>
      <point x="65" y="209" type="curve"/>
      <point x="65" y="222"/>
      <point x="67" y="235"/>
      <point x="68" y="243" type="curve" smooth="yes"/>
      <point x="69" y="247"/>
      <point x="81" y="249"/>
      <point x="98" y="248" type="curve" smooth="yes"/>
      <point x="99" y="248"/>
      <point x="102" y="248"/>
      <point x="104" y="249" type="curve" smooth="yes"/>
      <point x="110" y="250"/>
      <point x="122" y="249"/>
      <point x="127" y="247" type="curve" smooth="yes"/>
      <point x="131" y="246"/>
      <point x="132" y="246"/>
      <point x="135" y="247" type="curve" smooth="yes"/>
      <point x="144" y="251"/>
      <point x="152" y="247"/>
      <point x="159" y="237" type="curve" smooth="yes"/>
      <point x="160" y="234"/>
      <point x="164" y="230"/>
      <point x="166" y="228" type="curve" smooth="yes"/>
      <point x="170" y="223"/>
      <point x="173" y="219"/>
      <point x="178" y="210" type="curve" smooth="yes"/>
      <point x="180" y="206"/>
      <point x="183" y="202"/>
      <point x="184" y="200" type="curve" smooth="yes"/>
      <point x="185" y="198"/>
      <point x="186" y="196"/>
      <point x="186" y="195" type="curve" smooth="yes"/>
      <point x="186" y="194"/>
      <point x="187" y="193"/>
      <point x="188" y="191" type="curve" smooth="yes"/>
      <point x="189" y="190"/>
      <point x="190" y="188"/>
      <point x="190" y="187" type="curve" smooth="yes"/>
      <point x="190" y="187"/>
      <point x="193" y="183"/>
      <point x="196" y="180" type="curve" smooth="yes"/>
      <point x="201" y="176"/>
      <point x="202" y="173"/>
      <point x="203" y="169" type="curve" smooth="yes"/>
      <point x="207" y="157"/>
      <point x="220" y="156"/>
      <point x="226" y="167" type="curve" smooth="yes"/>
      <point x="227" y="169"/>
      <point x="229" y="172"/>
      <point x="230" y="172" type="curve" smooth="yes"/>
      <point x="232" y="173"/>
      <point x="238" y="185"/>
      <point x="238" y="188" type="curve" smooth="yes"/>
      <point x="238" y="191"/>
      <point x="234" y="200"/>
      <point x="231" y="202" type="curve" smooth="yes"/>
      <point x="230" y="203"/>
      <point x="229" y="205"/>
      <point x="229" y="205" type="curve" smooth="yes"/>
      <point x="229" y="206"/>
      <point x="228" y="208"/>
      <point x="227" y="209" type="curve" smooth="yes"/>
      <point x="226" y="210"/>
      <point x="224" y="212"/>
      <point x="223" y="214" type="curve" smooth="yes"/>
      <point x="222" y="217"/>
      <point x="219" y="221"/>
      <point x="216" y="225" type="curve"/>
      <point x="210" y="230"/>
      <point x="209" y="233"/>
      <point x="202" y="244" type="curve" smooth="yes"/>
      <point x="193" y="260"/>
      <point x="193" y="260"/>
      <point x="203" y="264" type="curve" smooth="yes"/>
      <point x="207" y="266"/>
      <point x="211" y="269"/>
      <point x="213" y="271" type="curve" smooth="yes"/>
      <point x="214" y="273"/>
      <point x="218" y="275"/>
      <point x="220" y="276" type="curve" smooth="yes"/>
      <point x="225" y="279"/>
      <point x="236" y="287"/>
      <point x="236" y="288" type="curve" smooth="yes"/>
      <point x="236" y="289"/>
      <point x="238" y="290"/>
      <point x="239" y="292" type="curve"/>
      <point x="241" y="293"/>
      <point x="242" y="295"/>
      <point x="242" y="296" type="curve" smooth="yes"/>
      <point x="242" y="297"/>
      <point x="244" y="299"/>
      <point x="246" y="301" type="curve" smooth="yes"/>
      <point x="250" y="304"/>
      <point x="253" y="310"/>
      <point x="253" y="315" type="curve" smooth="yes"/>
      <point x="253" y="316"/>
      <point x="254" y="318"/>
      <point x="255" y="319" type="curve" smooth="yes"/>
      <point x="256" y="321"/>
      <point x="256" y="322"/>
      <point x="256" y="323" type="curve" smooth="yes"/>
      <point x="256" y="324"/>
      <point x="258" y="330"/>
      <point x="260" y="335" type="curve" smooth="yes"/>
      <point x="264" y="348"/>
      <point x="265" y="361"/>
      <point x="263" y="384" type="curve" smooth="yes"/>
      <point x="261" y="400"/>
      <point x="260" y="404"/>
      <point x="252" y="415" type="curve"/>
      <point x="250" y="420"/>
      <point x="247" y="423"/>
      <point x="247" y="424" type="curve" smooth="yes"/>
      <point x="247" y="425"/>
      <point x="235" y="434"/>
      <point x="234" y="434" type="curve" smooth="yes"/>
      <point x="233" y="434"/>
      <point x="230" y="436"/>
      <point x="227" y="438" type="curve" smooth="yes"/>
      <point x="223" y="440"/>
      <point x="219" y="442"/>
      <point x="217" y="442" type="curve" smooth="yes"/>
      <point x="214" y="443"/>
      <point x="208" y="445"/>
      <point x="198" y="447" type="curve"/>
      <point x="194" y="449"/>
      <point x="192" y="449"/>
      <point x="187" y="448" type="curve" smooth="yes"/>
      <point x="182" y="447"/>
      <point x="178" y="447"/>
      <point x="176" y="449" type="curve" smooth="yes"/>
      <point x="172" y="452"/>
      <point x="124" y="454"/>
      <point x="111" y="452" type="curve" smooth="yes"/>
      <point x="109" y="451"/>
      <point x="99" y="450"/>
    </contour>
    <contour>
      <point x="121" y="412" type="curve" smooth="yes"/>
      <point x="124" y="412"/>
      <point x="136" y="411"/>
      <point x="150" y="410" type="curve" smooth="yes"/>
      <point x="153" y="410"/>
      <point x="160" y="410"/>
      <point x="164" y="409" type="curve" smooth="yes"/>
      <point x="169" y="408"/>
      <point x="174" y="408"/>
      <point x="175" y="408" type="curve" smooth="yes"/>
      <point x="180" y="408"/>
      <point x="181" y="408"/>
      <point x="187" y="407" type="curve" smooth="yes"/>
      <point x="190" y="406"/>
      <point x="194" y="406"/>
      <point x="196" y="406" type="curve" smooth="yes"/>
      <point x="198" y="405"/>
      <point x="203" y="403"/>
      <point x="207" y="401" type="curve" smooth="yes"/>
      <point x="211" y="399"/>
      <point x="215" y="397"/>
      <point x="216" y="397" type="curve" smooth="yes"/>
      <point x="222" y="397"/>
      <point x="238" y="376"/>
      <point x="238" y="368" type="curve" smooth="yes"/>
      <point x="238" y="366"/>
      <point x="239" y="364"/>
      <point x="239" y="362" type="curve" smooth="yes"/>
      <point x="241" y="357"/>
      <point x="241" y="331"/>
      <point x="239" y="330" type="curve" smooth="yes"/>
      <point x="239" y="329"/>
      <point x="236" y="326"/>
      <point x="234" y="324" type="curve" smooth="yes"/>
      <point x="232" y="321"/>
      <point x="228" y="317"/>
      <point x="225" y="316" type="curve" smooth="yes"/>
      <point x="223" y="315"/>
      <point x="219" y="312"/>
      <point x="217" y="310" type="curve" smooth="yes"/>
      <point x="213" y="306"/>
      <point x="207" y="301"/>
      <point x="206" y="301" type="curve" smooth="yes"/>
      <point x="205" y="301"/>
      <point x="204" y="300"/>
      <point x="202" y="299" type="curve" smooth="yes"/>
      <point x="201" y="298"/>
      <point x="198" y="297"/>
      <point x="196" y="296" type="curve" smooth="yes"/>
      <point x="194" y="296"/>
      <point x="190" y="295"/>
      <point x="187" y="294" type="curve" smooth="yes"/>
      <point x="181" y="291"/>
      <point x="172" y="289"/>
      <point x="165" y="289" type="curve" smooth="yes"/>
      <point x="162" y="289"/>
      <point x="159" y="289"/>
      <point x="159" y="288" type="curve" smooth="yes"/>
      <point x="157" y="286"/>
      <point x="140" y="286"/>
      <point x="132" y="287" type="curve" smooth="yes"/>
      <point x="128" y="288"/>
      <point x="123" y="288"/>
      <point x="122" y="288" type="curve" smooth="yes"/>
      <point x="120" y="288"/>
      <point x="117" y="288"/>
      <point x="114" y="288" type="curve" smooth="yes"/>
      <point x="112" y="288"/>
      <point x="109" y="287"/>
      <point x="108" y="287" type="curve" smooth="yes"/>
      <point x="104" y="285"/>
      <point x="96" y="284"/>
      <point x="91" y="286" type="curve"/>
      <point x="88" y="286"/>
      <point x="85" y="287"/>
      <point x="83" y="287" type="curve" smooth="yes"/>
      <point x="79" y="287"/>
      <point x="72" y="289"/>
      <point x="72" y="291" type="curve" smooth="yes"/>
      <point x="70" y="296"/>
      <point x="71" y="405"/>
      <point x="72" y="406" type="curve" smooth="yes"/>
      <point x="74" y="408"/>
      <point x="75" y="408"/>
      <point x="90" y="410" type="curve" smooth="yes"/>
      <point x="95" y="411"/>
      <point x="100" y="412"/>
      <point x="101" y="412" type="curve" smooth="yes"/>
      <point x="102" y="413"/>
      <point x="104" y="413"/>
      <point x="106" y="412" type="curve" smooth="yes"/>
      <point x="107" y="412"/>
      <point x="111" y="412"/>
      <point x="114" y="412" type="curve" smooth="yes"/>
      <point x="117" y="412"/>
      <point x="120" y="412"/>
    </contour>
  </outline>
</glyph>
<glyph name="uni0053" format="1">
  <advance width="243"/>
  <unicode hex="0053"/>
  <outline>
    <contour>
      <point x="91" y="461" type="curve"/>
      <point x="86" y="461"/>
      <point x="78" y="458"/>
      <point x="77" y="456" type="curve" smooth="yes"/>
      <point x="77" y="455"/>
      <point x="76" y="455"/>
      <point x="75" y="455" type="curve" smooth="yes"/>
      <point x="74" y="455"/>
      <point x="71" y="453"/>
      <point x="68" y="452" type="curve"/>
      <point x="66" y="450"/>
      <point x="63" y="448"/>
      <point x="63" y="448" type="curve" smooth="yes"/>
      <point x="62" y="448"/>
      <point x="53" y="437"/>
      <point x="50" y="433" type="curve" smooth="yes"/>
      <point x="47" y="429"/>
      <point x="42" y="417"/>
      <point x="42" y="416" type="curve" smooth="yes"/>
      <point x="42" y="415"/>
      <point x="41" y="413"/>
      <point x="40" y="411" type="curve" smooth="yes"/>
      <point x="38" y="407"/>
      <point x="36" y="400"/>
      <point x="35" y="394" type="curve" smooth="yes"/>
      <point x="35" y="391"/>
      <point x="34" y="385"/>
      <point x="33" y="380" type="curve" smooth="yes"/>
      <point x="31" y="365"/>
      <point x="31" y="363"/>
      <point x="33" y="359" type="curve" smooth="yes"/>
      <point x="34" y="356"/>
      <point x="35" y="354"/>
      <point x="35" y="353" type="curve" smooth="yes"/>
      <point x="35" y="351"/>
      <point x="40" y="346"/>
      <point x="47" y="340" type="curve" smooth="yes"/>
      <point x="50" y="338"/>
      <point x="54" y="335"/>
      <point x="55" y="333" type="curve" smooth="yes"/>
      <point x="57" y="331"/>
      <point x="60" y="329"/>
      <point x="62" y="328" type="curve" smooth="yes"/>
      <point x="65" y="327"/>
      <point x="67" y="326"/>
      <point x="67" y="325" type="curve" smooth="yes"/>
      <point x="68" y="324"/>
      <point x="69" y="324"/>
      <point x="71" y="324" type="curve" smooth="yes"/>
      <point x="73" y="325"/>
      <point x="74" y="324"/>
      <point x="76" y="323" type="curve" smooth="yes"/>
      <point x="78" y="321"/>
      <point x="92" y="316"/>
      <point x="99" y="315" type="curve" smooth="yes"/>
      <point x="100" y="314"/>
      <point x="108" y="313"/>
      <point x="117" y="312" type="curve" smooth="yes"/>
      <point x="125" y="312"/>
      <point x="133" y="310"/>
      <point x="134" y="310" type="curve" smooth="yes"/>
      <point x="135" y="309"/>
      <point x="138" y="309"/>
      <point x="140" y="309" type="curve" smooth="yes"/>
      <point x="145" y="309"/>
      <point x="157" y="305"/>
      <point x="165" y="301" type="curve" smooth="yes"/>
      <point x="170" y="299"/>
      <point x="174" y="297"/>
      <point x="176" y="297" type="curve" smooth="yes"/>
      <point x="180" y="297"/>
      <point x="184" y="292"/>
      <point x="185" y="288" type="curve" smooth="yes"/>
      <point x="186" y="286"/>
      <point x="187" y="284"/>
      <point x="188" y="284" type="curve" smooth="yes"/>
      <point x="190" y="283"/>
      <point x="191" y="281"/>
      <point x="191" y="281" type="curve" smooth="yes"/>
      <point x="191" y="280"/>
      <point x="192" y="278"/>
      <point x="195" y="275" type="curve" smooth="yes"/>
      <point x="202" y="268"/>
      <point x="204" y="252"/>
      <point x="200" y="243" type="curve" smooth="yes"/>
      <point x="195" y="232"/>
      <point x="172" y="212"/>
      <point x="165" y="212" type="curve"/>
      <point x="165" y="212"/>
      <point x="163" y="211"/>
      <point x="161" y="210" type="curve" smooth="yes"/>
      <point x="159" y="209"/>
      <point x="156" y="209"/>
      <point x="150" y="209" type="curve" smooth="yes"/>
      <point x="145" y="209"/>
      <point x="135" y="209"/>
      <point x="127" y="208" type="curve"/>
      <point x="115" y="208"/>
      <point x="112" y="208"/>
      <point x="109" y="209" type="curve" smooth="yes"/>
      <point x="107" y="210"/>
      <point x="104" y="211"/>
      <point x="102" y="211" type="curve" smooth="yes"/>
      <point x="100" y="212"/>
      <point x="97" y="213"/>
      <point x="95" y="214" type="curve" smooth="yes"/>
      <point x="94" y="215"/>
      <point x="92" y="216"/>
      <point x="92" y="216" type="curve" smooth="yes"/>
      <point x="91" y="216"/>
      <point x="86" y="218"/>
      <point x="79" y="221" type="curve" smooth="yes"/>
      <point x="78" y="222"/>
      <point x="76" y="223"/>
      <point x="74" y="223" type="curve" smooth="yes"/>
      <point x="72" y="224"/>
      <point x="68" y="227"/>
      <point x="65" y="230" type="curve" smooth="yes"/>
      <point x="62" y="232"/>
      <point x="59" y="235"/>
      <point x="58" y="236" type="curve" smooth="yes"/>
      <point x="55" y="237"/>
      <point x="48" y="246"/>
      <point x="45" y="254" type="curve"/>
      <point x="35" y="272"/>
      <point x="28" y="275"/>
      <point x="22" y="264" type="curve" smooth="yes"/>
      <point x="19" y="258"/>
      <point x="19" y="257"/>
      <point x="19" y="243" type="curve" smooth="yes"/>
      <point x="19" y="217"/>
      <point x="20" y="214"/>
      <point x="31" y="202" type="curve" smooth="yes"/>
      <point x="44" y="186"/>
      <point x="73" y="168"/>
      <point x="85" y="168" type="curve" smooth="yes"/>
      <point x="87" y="168"/>
      <point x="92" y="167"/>
      <point x="96" y="166" type="curve" smooth="yes"/>
      <point x="105" y="163"/>
      <point x="110" y="162"/>
      <point x="124" y="161" type="curve" smooth="yes"/>
      <point x="131" y="161"/>
      <point x="138" y="160"/>
      <point x="140" y="160" type="curve" smooth="yes"/>
      <point x="143" y="159"/>
      <point x="153" y="162"/>
      <point x="156" y="164" type="curve" smooth="yes"/>
      <point x="157" y="164"/>
      <point x="160" y="165"/>
      <point x="163" y="166" type="curve" smooth="yes"/>
      <point x="166" y="167"/>
      <point x="169" y="168"/>
      <point x="170" y="169" type="curve" smooth="yes"/>
      <point x="170" y="169"/>
      <point x="171" y="170"/>
      <point x="172" y="170" type="curve" smooth="yes"/>
      <point x="172" y="170"/>
      <point x="175" y="171"/>
      <point x="177" y="173" type="curve" smooth="yes"/>
      <point x="179" y="175"/>
      <point x="181" y="176"/>
      <point x="182" y="176" type="curve" smooth="yes"/>
      <point x="182" y="176"/>
      <point x="183" y="177"/>
      <point x="183" y="178" type="curve" smooth="yes"/>
      <point x="184" y="179"/>
      <point x="186" y="181"/>
      <point x="189" y="183" type="curve" smooth="yes"/>
      <point x="191" y="185"/>
      <point x="197" y="190"/>
      <point x="201" y="195" type="curve" smooth="yes"/>
      <point x="206" y="200"/>
      <point x="210" y="204"/>
      <point x="210" y="204" type="curve" smooth="yes"/>
      <point x="211" y="205"/>
      <point x="212" y="207"/>
      <point x="212" y="209" type="curve" smooth="yes"/>
      <point x="212" y="211"/>
      <point x="212" y="213"/>
      <point x="214" y="215" type="curve" smooth="yes"/>
      <point x="215" y="216"/>
      <point x="216" y="219"/>
      <point x="216" y="221" type="curve" smooth="yes"/>
      <point x="217" y="225"/>
      <point x="222" y="238"/>
      <point x="224" y="239" type="curve"/>
      <point x="224" y="239"/>
      <point x="224" y="240"/>
      <point x="224" y="241" type="curve" smooth="yes"/>
      <point x="224" y="246"/>
      <point x="223" y="251"/>
      <point x="222" y="252" type="curve" smooth="yes"/>
      <point x="222" y="253"/>
      <point x="222" y="254"/>
      <point x="223" y="255" type="curve" smooth="yes"/>
      <point x="224" y="257"/>
      <point x="222" y="277"/>
      <point x="220" y="286" type="curve" smooth="yes"/>
      <point x="219" y="288"/>
      <point x="218" y="292"/>
      <point x="218" y="295" type="curve" smooth="yes"/>
      <point x="216" y="301"/>
      <point x="209" y="314"/>
      <point x="202" y="322" type="curve" smooth="yes"/>
      <point x="197" y="329"/>
      <point x="185" y="339"/>
      <point x="183" y="339" type="curve"/>
      <point x="183" y="339"/>
      <point x="180" y="341"/>
      <point x="177" y="343" type="curve" smooth="yes"/>
      <point x="174" y="344"/>
      <point x="169" y="347"/>
      <point x="167" y="347" type="curve" smooth="yes"/>
      <point x="164" y="348"/>
      <point x="159" y="349"/>
      <point x="155" y="350" type="curve" smooth="yes"/>
      <point x="147" y="353"/>
      <point x="135" y="355"/>
      <point x="126" y="355" type="curve" smooth="yes"/>
      <point x="122" y="355"/>
      <point x="117" y="356"/>
      <point x="115" y="357" type="curve" smooth="yes"/>
      <point x="113" y="357"/>
      <point x="109" y="358"/>
      <point x="107" y="358" type="curve" smooth="yes"/>
      <point x="106" y="358"/>
      <point x="100" y="359"/>
      <point x="95" y="361" type="curve" smooth="yes"/>
      <point x="91" y="363"/>
      <point x="86" y="364"/>
      <point x="85" y="364" type="curve" smooth="yes"/>
      <point x="85" y="364"/>
      <point x="81" y="366"/>
      <point x="77" y="368" type="curve" smooth="yes"/>
      <point x="74" y="369"/>
      <point x="70" y="371"/>
      <point x="69" y="371" type="curve" smooth="yes"/>
      <point x="67" y="371"/>
      <point x="62" y="375"/>
      <point x="60" y="378" type="curve" smooth="yes"/>
      <point x="52" y="386"/>
      <point x="52" y="387"/>
      <point x="54" y="393" type="curve" smooth="yes"/>
      <point x="63" y="415"/>
      <point x="72" y="422"/>
      <point x="102" y="424" type="curve" smooth="yes"/>
      <point x="108" y="424"/>
      <point x="114" y="425"/>
      <point x="116" y="426" type="curve" smooth="yes"/>
      <point x="121" y="427"/>
      <point x="126" y="426"/>
      <point x="131" y="423" type="curve" smooth="yes"/>
      <point x="132" y="422"/>
      <point x="135" y="421"/>
      <point x="139" y="421" type="curve" smooth="yes"/>
      <point x="143" y="421"/>
      <point x="145" y="420"/>
      <point x="148" y="418" type="curve" smooth="yes"/>
      <point x="150" y="417"/>
      <point x="153" y="416"/>
      <point x="155" y="416" type="curve" smooth="yes"/>
      <point x="156" y="416"/>
      <point x="159" y="415"/>
      <point x="160" y="414" type="curve" smooth="yes"/>
      <point x="162" y="412"/>
      <point x="164" y="411"/>
      <point x="166" y="411" type="curve"/>
      <point x="167" y="410"/>
      <point x="170" y="408"/>
      <point x="172" y="407" type="curve" smooth="yes"/>
      <point x="181" y="399"/>
      <point x="186" y="400"/>
      <point x="190" y="408" type="curve" smooth="yes"/>
      <point x="193" y="414"/>
      <point x="195" y="431"/>
      <point x="193" y="435" type="curve" smooth="yes"/>
      <point x="191" y="438"/>
      <point x="177" y="448"/>
      <point x="170" y="451" type="curve" smooth="yes"/>
      <point x="166" y="452"/>
      <point x="162" y="454"/>
      <point x="161" y="455" type="curve" smooth="yes"/>
      <point x="160" y="456"/>
      <point x="157" y="457"/>
      <point x="156" y="457" type="curve" smooth="yes"/>
      <point x="154" y="457"/>
      <point x="151" y="458"/>
      <point x="149" y="459" type="curve" smooth="yes"/>
      <point x="137" y="464"/>
      <point x="134" y="464"/>
      <point x="118" y="464" type="curve" smooth="yes"/>
      <point x="108" y="464"/>
      <point x="101" y="464"/>
      <point x="99" y="463" type="curve" smooth="yes"/>
      <point x="97" y="463"/>
      <point x="94" y="462"/>
    </contour>
  </outline>
</glyph>
<glyph name="uni0054" format="1">
  <advance width="269"/>
  <unicode hex="0054"/>
  <outline>
    <contour>
      <point x="23" y="441" type="curve" smooth="yes"/>
      <point x="23" y="440"/>
      <point x="22" y="437"/>
      <point x="22" y="435" type="curve" smooth="yes"/>
      <point x="19" y="427"/>
      <point x="23" y="403"/>
      <point x="27" y="403" type="curve" smooth="yes"/>
      <point x="33" y="402"/>
      <point x="66" y="403"/>
      <point x="68" y="403" type="curve"/>
      <point x="69" y="404"/>
      <point x="71" y="403"/>
      <point x="74" y="403" type="curve"/>
      <point x="78" y="401"/>
      <point x="92" y="401"/>
      <point x="99" y="402" type="curve" smooth="yes"/>
      <point x="109" y="403"/>
      <point x="112" y="399"/>
      <point x="110" y="381" type="curve"/>
      <point x="109" y="360"/>
      <point x="109" y="334"/>
      <point x="110" y="315" type="curve" smooth="yes"/>
      <point x="111" y="297"/>
      <point x="111" y="286"/>
      <point x="111" y="236" type="curve" smooth="yes"/>
      <point x="111" y="226"/>
      <point x="110" y="214"/>
      <point x="109" y="211" type="curve" smooth="yes"/>
      <point x="108" y="207"/>
      <point x="107" y="178"/>
      <point x="108" y="175" type="curve" smooth="yes"/>
      <point x="109" y="172"/>
      <point x="113" y="171"/>
      <point x="123" y="170" type="curve" smooth="yes"/>
      <point x="138" y="169"/>
      <point x="140" y="169"/>
      <point x="144" y="171" type="curve" smooth="yes"/>
      <point x="149" y="174"/>
      <point x="150" y="177"/>
      <point x="150" y="200" type="curve" smooth="yes"/>
      <point x="150" y="211"/>
      <point x="150" y="220"/>
      <point x="150" y="221" type="curve" smooth="yes"/>
      <point x="152" y="224"/>
      <point x="153" y="296"/>
      <point x="151" y="313" type="curve" smooth="yes"/>
      <point x="149" y="330"/>
      <point x="149" y="397"/>
      <point x="151" y="400" type="curve" smooth="yes"/>
      <point x="152" y="400"/>
      <point x="155" y="401"/>
      <point x="159" y="401" type="curve" smooth="yes"/>
      <point x="163" y="401"/>
      <point x="168" y="401"/>
      <point x="170" y="402" type="curve" smooth="yes"/>
      <point x="173" y="403"/>
      <point x="174" y="403"/>
      <point x="176" y="402" type="curve" smooth="yes"/>
      <point x="178" y="400"/>
      <point x="181" y="400"/>
      <point x="189" y="400" type="curve" smooth="yes"/>
      <point x="199" y="400"/>
      <point x="207" y="400"/>
      <point x="226" y="398" type="curve" smooth="yes"/>
      <point x="245" y="397"/>
      <point x="249" y="401"/>
      <point x="248" y="422" type="curve" smooth="yes"/>
      <point x="248" y="440"/>
      <point x="245" y="443"/>
      <point x="226" y="443" type="curve" smooth="yes"/>
      <point x="224" y="443"/>
      <point x="220" y="443"/>
      <point x="217" y="442" type="curve" smooth="yes"/>
      <point x="215" y="441"/>
      <point x="213" y="441"/>
      <point x="212" y="441" type="curve" smooth="yes"/>
      <point x="211" y="441"/>
      <point x="208" y="441"/>
      <point x="206" y="441" type="curve" smooth="yes"/>
      <point x="203" y="441"/>
      <point x="201" y="442"/>
      <point x="200" y="442" type="curve" smooth="yes"/>
      <point x="200" y="442"/>
      <point x="195" y="442"/>
      <point x="189" y="442" type="curve" smooth="yes"/>
      <point x="183" y="441"/>
      <point x="179" y="442"/>
      <point x="177" y="442" type="curve"/>
      <point x="175" y="444"/>
      <point x="115" y="444"/>
      <point x="103" y="443" type="curve" smooth="yes"/>
      <point x="94" y="442"/>
      <point x="92" y="442"/>
      <point x="84" y="442" type="curve"/>
      <point x="82" y="443"/>
      <point x="69" y="443"/>
      <point x="56" y="443" type="curve" smooth="yes"/>
      <point x="43" y="443"/>
      <point x="32" y="444"/>
      <point x="31" y="444" type="curve"/>
      <point x="31" y="445"/>
      <point x="29" y="445"/>
      <point x="26" y="444" type="curve" smooth="yes"/>
      <point x="25" y="444"/>
      <point x="24" y="443"/>
    </contour>
  </outline>
</glyph>
<glyph name="uni0055" format="1">
  <advance width="254"/>
  <unicode hex="0055"/>
  <outline>
    <contour>
      <point x="28" y="428" type="curve" smooth="yes"/>
      <point x="28" y="426"/>
      <point x="29" y="416"/>
      <point x="29" y="406" type="curve" smooth="yes"/>
      <point x="29" y="395"/>
      <point x="29" y="385"/>
      <point x="29" y="384" type="curve" smooth="yes"/>
      <point x="29" y="383"/>
      <point x="28" y="375"/>
      <point x="27" y="368" type="curve" smooth="yes"/>
      <point x="26" y="355"/>
      <point x="26" y="352"/>
      <point x="27" y="338" type="curve" smooth="yes"/>
      <point x="27" y="329"/>
      <point x="28" y="321"/>
      <point x="28" y="320" type="curve" smooth="yes"/>
      <point x="28" y="313"/>
      <point x="28" y="311"/>
      <point x="28" y="308" type="curve" smooth="yes"/>
      <point x="28" y="306"/>
      <point x="28" y="302"/>
      <point x="27" y="299" type="curve"/>
      <point x="27" y="295"/>
      <point x="28" y="291"/>
      <point x="28" y="290" type="curve" smooth="yes"/>
      <point x="29" y="288"/>
      <point x="29" y="286"/>
      <point x="27" y="285" type="curve"/>
      <point x="26" y="283"/>
      <point x="26" y="281"/>
      <point x="26" y="277" type="curve" smooth="yes"/>
      <point x="27" y="273"/>
      <point x="27" y="270"/>
      <point x="25" y="266" type="curve"/>
      <point x="25" y="263"/>
      <point x="24" y="259"/>
      <point x="24" y="258" type="curve" smooth="yes"/>
      <point x="24" y="256"/>
      <point x="23" y="253"/>
      <point x="22" y="252" type="curve" smooth="yes"/>
      <point x="20" y="249"/>
      <point x="19" y="248"/>
      <point x="21" y="244" type="curve" smooth="yes"/>
      <point x="21" y="242"/>
      <point x="22" y="238"/>
      <point x="23" y="235" type="curve" smooth="yes"/>
      <point x="24" y="231"/>
      <point x="26" y="227"/>
      <point x="27" y="226" type="curve" smooth="yes"/>
      <point x="28" y="224"/>
      <point x="29" y="222"/>
      <point x="29" y="221" type="curve" smooth="yes"/>
      <point x="29" y="220"/>
      <point x="30" y="215"/>
      <point x="32" y="210" type="curve" smooth="yes"/>
      <point x="35" y="201"/>
      <point x="42" y="192"/>
      <point x="49" y="189" type="curve" smooth="yes"/>
      <point x="51" y="188"/>
      <point x="54" y="185"/>
      <point x="57" y="182" type="curve" smooth="yes"/>
      <point x="65" y="176"/>
      <point x="70" y="174"/>
      <point x="75" y="174" type="curve" smooth="yes"/>
      <point x="78" y="174"/>
      <point x="80" y="173"/>
      <point x="81" y="173" type="curve" smooth="yes"/>
      <point x="82" y="172"/>
      <point x="83" y="171"/>
      <point x="84" y="171" type="curve" smooth="yes"/>
      <point x="85" y="171"/>
      <point x="89" y="170"/>
      <point x="93" y="170" type="curve" smooth="yes"/>
      <point x="101" y="168"/>
      <point x="129" y="168"/>
      <point x="133" y="169" type="curve" smooth="yes"/>
      <point x="134" y="170"/>
      <point x="136" y="170"/>
      <point x="138" y="170" type="curve" smooth="yes"/>
      <point x="140" y="171"/>
      <point x="144" y="172"/>
      <point x="148" y="172" type="curve"/>
      <point x="151" y="173"/>
      <point x="156" y="174"/>
      <point x="159" y="174" type="curve" smooth="yes"/>
      <point x="162" y="174"/>
      <point x="165" y="175"/>
      <point x="167" y="176" type="curve" smooth="yes"/>
      <point x="169" y="177"/>
      <point x="172" y="178"/>
      <point x="174" y="179" type="curve" smooth="yes"/>
      <point x="181" y="180"/>
      <point x="191" y="185"/>
      <point x="192" y="187" type="curve" smooth="yes"/>
      <point x="192" y="188"/>
      <point x="194" y="190"/>
      <point x="196" y="192" type="curve" smooth="yes"/>
      <point x="201" y="195"/>
      <point x="209" y="205"/>
      <point x="212" y="211" type="curve" smooth="yes"/>
      <point x="216" y="218"/>
      <point x="219" y="228"/>
      <point x="220" y="232" type="curve" smooth="yes"/>
      <point x="220" y="234"/>
      <point x="221" y="239"/>
      <point x="222" y="244" type="curve" smooth="yes"/>
      <point x="223" y="248"/>
      <point x="224" y="254"/>
      <point x="225" y="258" type="curve" smooth="yes"/>
      <point x="225" y="262"/>
      <point x="226" y="267"/>
      <point x="226" y="269" type="curve" smooth="yes"/>
      <point x="227" y="271"/>
      <point x="227" y="295"/>
      <point x="227" y="322" type="curve" smooth="yes"/>
      <point x="228" y="350"/>
      <point x="228" y="372"/>
      <point x="229" y="375" type="curve" smooth="yes"/>
      <point x="229" y="377"/>
      <point x="230" y="384"/>
      <point x="230" y="389" type="curve" smooth="yes"/>
      <point x="231" y="395"/>
      <point x="231" y="400"/>
      <point x="231" y="400" type="curve" smooth="yes"/>
      <point x="232" y="400"/>
      <point x="232" y="404"/>
      <point x="232" y="409" type="curve" smooth="yes"/>
      <point x="232" y="413"/>
      <point x="233" y="418"/>
      <point x="233" y="419" type="curve" smooth="yes"/>
      <point x="234" y="420"/>
      <point x="234" y="425"/>
      <point x="234" y="429" type="curve" smooth="yes"/>
      <point x="235" y="437"/>
      <point x="234" y="439"/>
      <point x="229" y="439" type="curve" smooth="yes"/>
      <point x="217" y="441"/>
      <point x="207" y="442"/>
      <point x="206" y="441" type="curve" smooth="yes"/>
      <point x="205" y="441"/>
      <point x="203" y="440"/>
      <point x="202" y="440" type="curve" smooth="yes"/>
      <point x="197" y="439"/>
      <point x="195" y="432"/>
      <point x="194" y="417" type="curve" smooth="yes"/>
      <point x="193" y="404"/>
      <point x="192" y="398"/>
      <point x="189" y="378" type="curve" smooth="yes"/>
      <point x="186" y="355"/>
      <point x="186" y="350"/>
      <point x="186" y="342" type="curve" smooth="yes"/>
      <point x="187" y="317"/>
      <point x="185" y="280"/>
      <point x="184" y="271" type="curve" smooth="yes"/>
      <point x="183" y="267"/>
      <point x="183" y="262"/>
      <point x="182" y="258" type="curve" smooth="yes"/>
      <point x="182" y="254"/>
      <point x="181" y="251"/>
      <point x="181" y="250" type="curve" smooth="yes"/>
      <point x="180" y="248"/>
      <point x="180" y="246"/>
      <point x="180" y="245" type="curve" smooth="yes"/>
      <point x="179" y="242"/>
      <point x="175" y="229"/>
      <point x="174" y="223" type="curve" smooth="yes"/>
      <point x="173" y="221"/>
      <point x="172" y="218"/>
      <point x="171" y="217" type="curve" smooth="yes"/>
      <point x="170" y="215"/>
      <point x="169" y="213"/>
      <point x="169" y="212" type="curve" smooth="yes"/>
      <point x="168" y="210"/>
      <point x="166" y="207"/>
      <point x="163" y="205" type="curve" smooth="yes"/>
      <point x="154" y="196"/>
      <point x="152" y="195"/>
      <point x="146" y="195" type="curve"/>
      <point x="143" y="194"/>
      <point x="140" y="194"/>
      <point x="139" y="193" type="curve" smooth="yes"/>
      <point x="137" y="191"/>
      <point x="134" y="190"/>
      <point x="123" y="189" type="curve" smooth="yes"/>
      <point x="119" y="188"/>
      <point x="113" y="188"/>
      <point x="111" y="187" type="curve"/>
      <point x="106" y="187"/>
      <point x="100" y="188"/>
      <point x="97" y="191" type="curve" smooth="yes"/>
      <point x="96" y="191"/>
      <point x="94" y="192"/>
      <point x="94" y="192" type="curve" smooth="yes"/>
      <point x="93" y="192"/>
      <point x="90" y="194"/>
      <point x="88" y="196" type="curve" smooth="yes"/>
      <point x="86" y="198"/>
      <point x="83" y="200"/>
      <point x="83" y="200" type="curve" smooth="yes"/>
      <point x="82" y="200"/>
      <point x="80" y="204"/>
      <point x="78" y="209" type="curve" smooth="yes"/>
      <point x="75" y="214"/>
      <point x="72" y="220"/>
      <point x="70" y="223" type="curve" smooth="yes"/>
      <point x="67" y="229"/>
      <point x="65" y="243"/>
      <point x="66" y="249" type="curve" smooth="yes"/>
      <point x="67" y="251"/>
      <point x="67" y="275"/>
      <point x="67" y="302" type="curve" smooth="yes"/>
      <point x="67" y="363"/>
      <point x="67" y="355"/>
      <point x="67" y="401" type="curve" smooth="yes"/>
      <point x="68" y="448"/>
      <point x="69" y="445"/>
      <point x="52" y="445" type="curve"/>
      <point x="46" y="446"/>
      <point x="40" y="445"/>
      <point x="38" y="445" type="curve" smooth="yes"/>
      <point x="30" y="444"/>
      <point x="26" y="435"/>
    </contour>
  </outline>
</glyph>
<glyph name="uni0056" format="1">
  <advance width="316"/>
  <unicode hex="0056"/>
  <outline>
    <contour>
      <point x="25" y="441" type="curve" smooth="yes"/>
      <point x="24" y="439"/>
      <point x="24" y="439"/>
      <point x="27" y="426" type="curve" smooth="yes"/>
      <point x="27" y="424"/>
      <point x="30" y="418"/>
      <point x="32" y="413" type="curve" smooth="yes"/>
      <point x="35" y="408"/>
      <point x="37" y="402"/>
      <point x="37" y="401" type="curve" smooth="yes"/>
      <point x="38" y="400"/>
      <point x="40" y="396"/>
      <point x="41" y="393" type="curve" smooth="yes"/>
      <point x="43" y="389"/>
      <point x="46" y="383"/>
      <point x="47" y="379" type="curve" smooth="yes"/>
      <point x="48" y="375"/>
      <point x="50" y="370"/>
      <point x="50" y="369" type="curve" smooth="yes"/>
      <point x="51" y="368"/>
      <point x="53" y="363"/>
      <point x="54" y="360" type="curve" smooth="yes"/>
      <point x="56" y="350"/>
      <point x="58" y="346"/>
      <point x="60" y="344" type="curve" smooth="yes"/>
      <point x="63" y="340"/>
      <point x="71" y="317"/>
      <point x="70" y="316" type="curve" smooth="yes"/>
      <point x="70" y="315"/>
      <point x="71" y="313"/>
      <point x="72" y="309" type="curve"/>
      <point x="74" y="306"/>
      <point x="75" y="303"/>
      <point x="75" y="303" type="curve" smooth="yes"/>
      <point x="75" y="302"/>
      <point x="76" y="301"/>
      <point x="77" y="300" type="curve" smooth="yes"/>
      <point x="78" y="299"/>
      <point x="79" y="296"/>
      <point x="79" y="295" type="curve" smooth="yes"/>
      <point x="81" y="285"/>
      <point x="82" y="281"/>
      <point x="83" y="277" type="curve" smooth="yes"/>
      <point x="84" y="275"/>
      <point x="85" y="270"/>
      <point x="86" y="267" type="curve"/>
      <point x="86" y="263"/>
      <point x="87" y="260"/>
      <point x="88" y="259" type="curve" smooth="yes"/>
      <point x="90" y="257"/>
      <point x="94" y="244"/>
      <point x="96" y="237" type="curve" smooth="yes"/>
      <point x="97" y="233"/>
      <point x="98" y="230"/>
      <point x="98" y="229" type="curve" smooth="yes"/>
      <point x="99" y="227"/>
      <point x="100" y="225"/>
      <point x="100" y="223" type="curve" smooth="yes"/>
      <point x="101" y="221"/>
      <point x="101" y="219"/>
      <point x="102" y="219" type="curve"/>
      <point x="102" y="218"/>
      <point x="103" y="215"/>
      <point x="103" y="212" type="curve" smooth="yes"/>
      <point x="103" y="209"/>
      <point x="105" y="205"/>
      <point x="106" y="202" type="curve" smooth="yes"/>
      <point x="108" y="199"/>
      <point x="109" y="195"/>
      <point x="109" y="193" type="curve" smooth="yes"/>
      <point x="110" y="185"/>
      <point x="112" y="179"/>
      <point x="115" y="176" type="curve" smooth="yes"/>
      <point x="116" y="175"/>
      <point x="118" y="171"/>
      <point x="120" y="169" type="curve"/>
      <point x="122" y="162"/>
      <point x="126" y="160"/>
      <point x="136" y="160" type="curve" smooth="yes"/>
      <point x="141" y="160"/>
      <point x="142" y="159"/>
      <point x="144" y="158" type="curve"/>
      <point x="146" y="155"/>
      <point x="147" y="155"/>
      <point x="149" y="158" type="curve" smooth="yes"/>
      <point x="150" y="160"/>
      <point x="151" y="160"/>
      <point x="155" y="160" type="curve" smooth="yes"/>
      <point x="160" y="160"/>
      <point x="160" y="160"/>
      <point x="167" y="168" type="curve" smooth="yes"/>
      <point x="171" y="172"/>
      <point x="176" y="178"/>
      <point x="177" y="181" type="curve" smooth="yes"/>
      <point x="179" y="184"/>
      <point x="182" y="187"/>
      <point x="182" y="188" type="curve" smooth="yes"/>
      <point x="183" y="189"/>
      <point x="186" y="195"/>
      <point x="189" y="201" type="curve" smooth="yes"/>
      <point x="192" y="207"/>
      <point x="195" y="212"/>
      <point x="196" y="213" type="curve" smooth="yes"/>
      <point x="196" y="214"/>
      <point x="198" y="217"/>
      <point x="199" y="221" type="curve"/>
      <point x="201" y="224"/>
      <point x="203" y="229"/>
      <point x="205" y="232" type="curve" smooth="yes"/>
      <point x="207" y="235"/>
      <point x="209" y="240"/>
      <point x="210" y="242" type="curve" smooth="yes"/>
      <point x="213" y="248"/>
      <point x="218" y="259"/>
      <point x="228" y="277" type="curve"/>
      <point x="234" y="290"/>
      <point x="237" y="297"/>
      <point x="242" y="309" type="curve"/>
      <point x="243" y="314"/>
      <point x="245" y="317"/>
      <point x="252" y="333" type="curve" smooth="yes"/>
      <point x="257" y="344"/>
      <point x="261" y="353"/>
      <point x="264" y="361" type="curve"/>
      <point x="264" y="364"/>
      <point x="267" y="370"/>
      <point x="269" y="374" type="curve" smooth="yes"/>
      <point x="270" y="378"/>
      <point x="272" y="382"/>
      <point x="273" y="384" type="curve" smooth="yes"/>
      <point x="273" y="385"/>
      <point x="275" y="388"/>
      <point x="276" y="391" type="curve" smooth="yes"/>
      <point x="278" y="394"/>
      <point x="279" y="397"/>
      <point x="279" y="398" type="curve" smooth="yes"/>
      <point x="279" y="399"/>
      <point x="280" y="402"/>
      <point x="282" y="406" type="curve" smooth="yes"/>
      <point x="284" y="410"/>
      <point x="286" y="415"/>
      <point x="286" y="416" type="curve" smooth="yes"/>
      <point x="287" y="418"/>
      <point x="288" y="422"/>
      <point x="290" y="424" type="curve" smooth="yes"/>
      <point x="294" y="430"/>
      <point x="294" y="438"/>
      <point x="290" y="441" type="curve" smooth="yes"/>
      <point x="284" y="444"/>
      <point x="269" y="446"/>
      <point x="263" y="444" type="curve" smooth="yes"/>
      <point x="259" y="443"/>
      <point x="254" y="436"/>
      <point x="254" y="432" type="curve" smooth="yes"/>
      <point x="254" y="430"/>
      <point x="250" y="421"/>
      <point x="248" y="419" type="curve" smooth="yes"/>
      <point x="247" y="417"/>
      <point x="246" y="415"/>
      <point x="245" y="413" type="curve" smooth="yes"/>
      <point x="244" y="410"/>
      <point x="243" y="406"/>
      <point x="241" y="404" type="curve"/>
      <point x="240" y="401"/>
      <point x="239" y="399"/>
      <point x="239" y="398" type="curve" smooth="yes"/>
      <point x="239" y="397"/>
      <point x="238" y="394"/>
      <point x="236" y="392" type="curve" smooth="yes"/>
      <point x="234" y="389"/>
      <point x="233" y="387"/>
      <point x="233" y="386" type="curve" smooth="yes"/>
      <point x="233" y="385"/>
      <point x="232" y="383"/>
      <point x="226" y="369" type="curve" smooth="yes"/>
      <point x="224" y="364"/>
      <point x="221" y="357"/>
      <point x="219" y="353" type="curve" smooth="yes"/>
      <point x="217" y="348"/>
      <point x="215" y="343"/>
      <point x="213" y="341" type="curve" smooth="yes"/>
      <point x="212" y="339"/>
      <point x="211" y="336"/>
      <point x="210" y="334" type="curve" smooth="yes"/>
      <point x="210" y="332"/>
      <point x="209" y="329"/>
      <point x="208" y="328" type="curve" smooth="yes"/>
      <point x="205" y="324"/>
      <point x="202" y="317"/>
      <point x="201" y="313" type="curve" smooth="yes"/>
      <point x="200" y="310"/>
      <point x="198" y="306"/>
      <point x="197" y="303" type="curve" smooth="yes"/>
      <point x="190" y="288"/>
      <point x="187" y="281"/>
      <point x="187" y="280" type="curve" smooth="yes"/>
      <point x="187" y="280"/>
      <point x="186" y="278"/>
      <point x="185" y="276" type="curve"/>
      <point x="183" y="275"/>
      <point x="181" y="272"/>
      <point x="180" y="269" type="curve" smooth="yes"/>
      <point x="179" y="267"/>
      <point x="177" y="265"/>
      <point x="177" y="264" type="curve"/>
      <point x="176" y="264"/>
      <point x="176" y="263"/>
      <point x="176" y="262" type="curve" smooth="yes"/>
      <point x="176" y="262"/>
      <point x="174" y="256"/>
      <point x="171" y="251" type="curve" smooth="yes"/>
      <point x="168" y="245"/>
      <point x="166" y="239"/>
      <point x="165" y="237" type="curve" smooth="yes"/>
      <point x="163" y="231"/>
      <point x="161" y="227"/>
      <point x="159" y="222" type="curve"/>
      <point x="157" y="220"/>
      <point x="155" y="214"/>
      <point x="153" y="211" type="curve" smooth="yes"/>
      <point x="147" y="199"/>
      <point x="145" y="200"/>
      <point x="141" y="216" type="curve" smooth="yes"/>
      <point x="140" y="221"/>
      <point x="138" y="230"/>
      <point x="136" y="235" type="curve" smooth="yes"/>
      <point x="135" y="239"/>
      <point x="133" y="246"/>
      <point x="132" y="250" type="curve" smooth="yes"/>
      <point x="131" y="253"/>
      <point x="129" y="258"/>
      <point x="128" y="261" type="curve" smooth="yes"/>
      <point x="126" y="265"/>
      <point x="124" y="270"/>
      <point x="123" y="274" type="curve" smooth="yes"/>
      <point x="122" y="278"/>
      <point x="121" y="284"/>
      <point x="119" y="288" type="curve" smooth="yes"/>
      <point x="118" y="291"/>
      <point x="116" y="297"/>
      <point x="116" y="301" type="curve" smooth="yes"/>
      <point x="115" y="306"/>
      <point x="113" y="311"/>
      <point x="112" y="313" type="curve" smooth="yes"/>
      <point x="110" y="316"/>
      <point x="106" y="327"/>
      <point x="106" y="329" type="curve" smooth="yes"/>
      <point x="106" y="330"/>
      <point x="105" y="333"/>
      <point x="104" y="336" type="curve" smooth="yes"/>
      <point x="100" y="343"/>
      <point x="97" y="350"/>
      <point x="95" y="356" type="curve"/>
      <point x="92" y="361"/>
      <point x="90" y="367"/>
      <point x="88" y="374" type="curve" smooth="yes"/>
      <point x="87" y="375"/>
      <point x="86" y="377"/>
      <point x="86" y="379" type="curve"/>
      <point x="85" y="380"/>
      <point x="83" y="386"/>
      <point x="80" y="392" type="curve" smooth="yes"/>
      <point x="76" y="403"/>
      <point x="74" y="408"/>
      <point x="70" y="415" type="curve" smooth="yes"/>
      <point x="67" y="420"/>
      <point x="67" y="421"/>
      <point x="67" y="423" type="curve" smooth="yes"/>
      <point x="67" y="425"/>
      <point x="65" y="429"/>
      <point x="64" y="434" type="curve"/>
      <point x="62" y="438"/>
      <point x="60" y="442"/>
      <point x="59" y="444" type="curve" smooth="yes"/>
      <point x="58" y="448"/>
      <point x="53" y="450"/>
      <point x="46" y="449" type="curve" smooth="yes"/>
      <point x="35" y="448"/>
      <point x="27" y="445"/>
    </contour>
  </outline>
</glyph>
<glyph name="uni0057" format="1">
  <advance width="308"/>
  <unicode hex="0057"/>
  <outline>
    <contour>
      <point x="257" y="430" type="curve" smooth="yes"/>
      <point x="256" y="426"/>
      <point x="254" y="420"/>
      <point x="254" y="417" type="curve" smooth="yes"/>
      <point x="253" y="414"/>
      <point x="252" y="409"/>
      <point x="251" y="405" type="curve" smooth="yes"/>
      <point x="251" y="401"/>
      <point x="249" y="395"/>
      <point x="247" y="391" type="curve"/>
      <point x="246" y="386"/>
      <point x="244" y="380"/>
      <point x="243" y="377" type="curve" smooth="yes"/>
      <point x="242" y="374"/>
      <point x="241" y="367"/>
      <point x="240" y="362" type="curve" smooth="yes"/>
      <point x="239" y="356"/>
      <point x="237" y="348"/>
      <point x="236" y="343" type="curve" smooth="yes"/>
      <point x="233" y="333"/>
      <point x="229" y="313"/>
      <point x="227" y="300" type="curve" smooth="yes"/>
      <point x="226" y="296"/>
      <point x="226" y="292"/>
      <point x="225" y="290" type="curve" smooth="yes"/>
      <point x="224" y="287"/>
      <point x="223" y="280"/>
      <point x="221" y="273" type="curve"/>
      <point x="220" y="265"/>
      <point x="218" y="257"/>
      <point x="217" y="255" type="curve" smooth="yes"/>
      <point x="216" y="253"/>
      <point x="215" y="248"/>
      <point x="214" y="245" type="curve" smooth="yes"/>
      <point x="214" y="242"/>
      <point x="213" y="238"/>
      <point x="212" y="237" type="curve"/>
      <point x="212" y="235"/>
      <point x="211" y="233"/>
      <point x="211" y="232" type="curve" smooth="yes"/>
      <point x="211" y="227"/>
      <point x="209" y="231"/>
      <point x="206" y="242" type="curve" smooth="yes"/>
      <point x="204" y="249"/>
      <point x="202" y="255"/>
      <point x="202" y="256" type="curve" smooth="yes"/>
      <point x="201" y="258"/>
      <point x="199" y="264"/>
      <point x="196" y="271" type="curve" smooth="yes"/>
      <point x="194" y="277"/>
      <point x="191" y="284"/>
      <point x="190" y="287" type="curve" smooth="yes"/>
      <point x="189" y="289"/>
      <point x="188" y="292"/>
      <point x="187" y="293" type="curve"/>
      <point x="187" y="295"/>
      <point x="186" y="297"/>
      <point x="186" y="297" type="curve" smooth="yes"/>
      <point x="186" y="298"/>
      <point x="185" y="300"/>
      <point x="183" y="302" type="curve" smooth="yes"/>
      <point x="181" y="304"/>
      <point x="180" y="307"/>
      <point x="179" y="309" type="curve" smooth="yes"/>
      <point x="178" y="313"/>
      <point x="176" y="318"/>
      <point x="173" y="320" type="curve" smooth="yes"/>
      <point x="171" y="322"/>
      <point x="170" y="323"/>
      <point x="163" y="346" type="curve"/>
      <point x="157" y="361"/>
      <point x="157" y="361"/>
      <point x="152" y="361" type="curve" smooth="yes"/>
      <point x="142" y="361"/>
      <point x="135" y="355"/>
      <point x="134" y="344" type="curve" smooth="yes"/>
      <point x="134" y="340"/>
      <point x="133" y="333"/>
      <point x="130" y="326" type="curve" smooth="yes"/>
      <point x="128" y="319"/>
      <point x="125" y="310"/>
      <point x="124" y="306" type="curve" smooth="yes"/>
      <point x="122" y="297"/>
      <point x="120" y="289"/>
      <point x="118" y="282" type="curve" smooth="yes"/>
      <point x="117" y="280"/>
      <point x="116" y="274"/>
      <point x="116" y="270" type="curve" smooth="yes"/>
      <point x="115" y="265"/>
      <point x="114" y="260"/>
      <point x="113" y="258" type="curve" smooth="yes"/>
      <point x="112" y="252"/>
      <point x="110" y="246"/>
      <point x="109" y="239" type="curve" smooth="yes"/>
      <point x="108" y="235"/>
      <point x="107" y="229"/>
      <point x="105" y="224" type="curve" smooth="yes"/>
      <point x="104" y="220"/>
      <point x="103" y="215"/>
      <point x="103" y="214" type="curve" smooth="yes"/>
      <point x="103" y="211"/>
      <point x="100" y="205"/>
      <point x="99" y="205" type="curve" smooth="yes"/>
      <point x="98" y="205"/>
      <point x="98" y="206"/>
      <point x="98" y="207" type="curve" smooth="yes"/>
      <point x="98" y="207"/>
      <point x="97" y="213"/>
      <point x="95" y="219" type="curve" smooth="yes"/>
      <point x="93" y="225"/>
      <point x="91" y="234"/>
      <point x="90" y="239" type="curve" smooth="yes"/>
      <point x="89" y="244"/>
      <point x="87" y="251"/>
      <point x="86" y="255" type="curve" smooth="yes"/>
      <point x="85" y="258"/>
      <point x="84" y="265"/>
      <point x="84" y="270" type="curve" smooth="yes"/>
      <point x="84" y="274"/>
      <point x="82" y="283"/>
      <point x="81" y="289" type="curve" smooth="yes"/>
      <point x="79" y="295"/>
      <point x="78" y="302"/>
      <point x="77" y="306" type="curve" smooth="yes"/>
      <point x="77" y="309"/>
      <point x="75" y="315"/>
      <point x="74" y="320" type="curve" smooth="yes"/>
      <point x="71" y="338"/>
      <point x="69" y="347"/>
      <point x="68" y="353" type="curve" smooth="yes"/>
      <point x="68" y="357"/>
      <point x="67" y="363"/>
      <point x="66" y="367" type="curve" smooth="yes"/>
      <point x="62" y="382"/>
      <point x="60" y="390"/>
      <point x="57" y="406" type="curve" smooth="yes"/>
      <point x="57" y="410"/>
      <point x="55" y="417"/>
      <point x="54" y="420" type="curve" smooth="yes"/>
      <point x="53" y="424"/>
      <point x="51" y="430"/>
      <point x="51" y="435" type="curve" smooth="yes"/>
      <point x="49" y="447"/>
      <point x="48" y="448"/>
      <point x="39" y="448" type="curve" smooth="yes"/>
      <point x="27" y="447"/>
      <point x="22" y="442"/>
      <point x="24" y="433" type="curve" smooth="yes"/>
      <point x="24" y="430"/>
      <point x="25" y="425"/>
      <point x="26" y="422" type="curve" smooth="yes"/>
      <point x="27" y="418"/>
      <point x="28" y="415"/>
      <point x="28" y="413" type="curve"/>
      <point x="29" y="412"/>
      <point x="30" y="407"/>
      <point x="30" y="402" type="curve" smooth="yes"/>
      <point x="31" y="395"/>
      <point x="34" y="381"/>
      <point x="37" y="368" type="curve" smooth="yes"/>
      <point x="39" y="358"/>
      <point x="41" y="350"/>
      <point x="42" y="343" type="curve" smooth="yes"/>
      <point x="43" y="335"/>
      <point x="45" y="323"/>
      <point x="48" y="311" type="curve" smooth="yes"/>
      <point x="49" y="308"/>
      <point x="49" y="304"/>
      <point x="50" y="301" type="curve" smooth="yes"/>
      <point x="51" y="297"/>
      <point x="52" y="291"/>
      <point x="52" y="288" type="curve" smooth="yes"/>
      <point x="54" y="280"/>
      <point x="56" y="267"/>
      <point x="58" y="255" type="curve" smooth="yes"/>
      <point x="58" y="252"/>
      <point x="59" y="248"/>
      <point x="60" y="247" type="curve"/>
      <point x="60" y="245"/>
      <point x="61" y="243"/>
      <point x="61" y="241" type="curve" smooth="yes"/>
      <point x="61" y="240"/>
      <point x="62" y="237"/>
      <point x="62" y="235" type="curve" smooth="yes"/>
      <point x="63" y="233"/>
      <point x="65" y="225"/>
      <point x="66" y="217" type="curve" smooth="yes"/>
      <point x="68" y="209"/>
      <point x="70" y="198"/>
      <point x="71" y="192" type="curve" smooth="yes"/>
      <point x="73" y="186"/>
      <point x="74" y="180"/>
      <point x="74" y="179" type="curve" smooth="yes"/>
      <point x="74" y="174"/>
      <point x="79" y="167"/>
      <point x="83" y="164" type="curve" smooth="yes"/>
      <point x="94" y="158"/>
      <point x="115" y="166"/>
      <point x="117" y="177" type="curve" smooth="yes"/>
      <point x="118" y="178"/>
      <point x="119" y="180"/>
      <point x="119" y="181" type="curve" smooth="yes"/>
      <point x="122" y="185"/>
      <point x="133" y="216"/>
      <point x="134" y="225" type="curve" smooth="yes"/>
      <point x="135" y="227"/>
      <point x="136" y="232"/>
      <point x="136" y="235" type="curve"/>
      <point x="137" y="237"/>
      <point x="138" y="242"/>
      <point x="139" y="245" type="curve" smooth="yes"/>
      <point x="139" y="248"/>
      <point x="141" y="254"/>
      <point x="141" y="258" type="curve" smooth="yes"/>
      <point x="144" y="272"/>
      <point x="147" y="287"/>
      <point x="147" y="289" type="curve" smooth="yes"/>
      <point x="147" y="292"/>
      <point x="150" y="302"/>
      <point x="152" y="303" type="curve" smooth="yes"/>
      <point x="153" y="303"/>
      <point x="155" y="299"/>
      <point x="158" y="290" type="curve" smooth="yes"/>
      <point x="160" y="286"/>
      <point x="162" y="280"/>
      <point x="163" y="278" type="curve" smooth="yes"/>
      <point x="165" y="276"/>
      <point x="167" y="269"/>
      <point x="168" y="264" type="curve" smooth="yes"/>
      <point x="170" y="259"/>
      <point x="172" y="254"/>
      <point x="172" y="253" type="curve" smooth="yes"/>
      <point x="172" y="252"/>
      <point x="174" y="247"/>
      <point x="176" y="242" type="curve" smooth="yes"/>
      <point x="177" y="237"/>
      <point x="179" y="232"/>
      <point x="180" y="231" type="curve" smooth="yes"/>
      <point x="181" y="229"/>
      <point x="182" y="225"/>
      <point x="183" y="222" type="curve" smooth="yes"/>
      <point x="184" y="219"/>
      <point x="185" y="214"/>
      <point x="186" y="210" type="curve" smooth="yes"/>
      <point x="187" y="206"/>
      <point x="188" y="201"/>
      <point x="189" y="198" type="curve" smooth="yes"/>
      <point x="194" y="173"/>
      <point x="201" y="163"/>
      <point x="211" y="165" type="curve" smooth="yes"/>
      <point x="213" y="166"/>
      <point x="217" y="166"/>
      <point x="219" y="166" type="curve" smooth="yes"/>
      <point x="220" y="166"/>
      <point x="222" y="167"/>
      <point x="223" y="168" type="curve" smooth="yes"/>
      <point x="225" y="170"/>
      <point x="229" y="185"/>
      <point x="230" y="193" type="curve" smooth="yes"/>
      <point x="231" y="195"/>
      <point x="232" y="200"/>
      <point x="232" y="204" type="curve"/>
      <point x="237" y="223"/>
      <point x="241" y="239"/>
      <point x="245" y="254" type="curve" smooth="yes"/>
      <point x="250" y="274"/>
      <point x="251" y="278"/>
      <point x="256" y="306" type="curve" smooth="yes"/>
      <point x="256" y="308"/>
      <point x="257" y="313"/>
      <point x="258" y="317" type="curve" smooth="yes"/>
      <point x="259" y="320"/>
      <point x="260" y="325"/>
      <point x="261" y="329" type="curve" smooth="yes"/>
      <point x="263" y="340"/>
      <point x="264" y="345"/>
      <point x="266" y="354" type="curve" smooth="yes"/>
      <point x="268" y="359"/>
      <point x="269" y="366"/>
      <point x="269" y="368" type="curve" smooth="yes"/>
      <point x="270" y="370"/>
      <point x="271" y="377"/>
      <point x="273" y="384" type="curve" smooth="yes"/>
      <point x="274" y="390"/>
      <point x="277" y="399"/>
      <point x="278" y="405" type="curve" smooth="yes"/>
      <point x="279" y="410"/>
      <point x="281" y="418"/>
      <point x="282" y="423" type="curve" smooth="yes"/>
      <point x="285" y="433"/>
      <point x="286" y="443"/>
      <point x="283" y="445" type="curve" smooth="yes"/>
      <point x="279" y="449"/>
      <point x="265" y="450"/>
      <point x="262" y="447" type="curve" smooth="yes"/>
      <point x="260" y="445"/>
      <point x="259" y="441"/>
    </contour>
  </outline>
</glyph>
